G04 #@! TF.GenerationSoftware,KiCad,Pcbnew,(5.1.4)-1*
G04 #@! TF.CreationDate,2022-05-22T19:09:44+08:00*
G04 #@! TF.ProjectId,keyboard-pcb-tutorial,6b657962-6f61-4726-942d-7063622d7475,rev?*
G04 #@! TF.SameCoordinates,Original*
G04 #@! TF.FileFunction,Copper,L1,Top*
G04 #@! TF.FilePolarity,Positive*
%FSLAX46Y46*%
G04 Gerber Fmt 4.6, Leading zero omitted, Abs format (unit mm)*
G04 Created by KiCad (PCBNEW (5.1.4)-1) date 2022-05-22 19:09:44*
%MOMM*%
%LPD*%
G04 APERTURE LIST*
%ADD10C,2.250000*%
%ADD11C,2.250000*%
%ADD12O,1.700000X2.700000*%
%ADD13C,0.800000*%
%ADD14C,0.381000*%
%ADD15C,0.254000*%
G04 APERTURE END LIST*
D10*
X137200000Y-107125000D03*
X136545001Y-107855000D03*
D11*
X135890000Y-108585000D02*
X137200002Y-107125000D01*
D10*
X142240000Y-106045000D03*
X142220000Y-106335000D03*
D11*
X142200000Y-106625000D02*
X142240000Y-106045000D01*
D12*
X94775000Y-84137500D03*
X102075000Y-84137500D03*
X102075000Y-88637500D03*
X94775000Y-88637500D03*
D10*
X156250000Y-107125000D03*
X155595001Y-107855000D03*
D11*
X154940000Y-108585000D02*
X156250002Y-107125000D01*
D10*
X161290000Y-106045000D03*
X161270000Y-106335000D03*
D11*
X161250000Y-106625000D02*
X161290000Y-106045000D01*
D10*
X156250000Y-88075000D03*
X155595001Y-88805000D03*
D11*
X154940000Y-89535000D02*
X156250002Y-88075000D01*
D10*
X161290000Y-86995000D03*
X161270000Y-87285000D03*
D11*
X161250000Y-87575000D02*
X161290000Y-86995000D01*
D10*
X137200000Y-88075000D03*
X136545001Y-88805000D03*
D11*
X135890000Y-89535000D02*
X137200002Y-88075000D01*
D10*
X142240000Y-86995000D03*
X142220000Y-87285000D03*
D11*
X142200000Y-87575000D02*
X142240000Y-86995000D01*
D13*
X106362500Y-101600000D03*
X108743750Y-106362500D03*
X125412500Y-111918750D03*
X130175000Y-97631250D03*
X110331250Y-104775000D03*
X105568750Y-96837500D03*
X110331250Y-94846260D03*
X103187500Y-111918750D03*
X103187500Y-92868750D03*
D14*
X106362500Y-101600000D02*
X106362500Y-103981250D01*
X106362500Y-103981250D02*
X108743750Y-106362500D01*
X125412500Y-111918750D02*
X130175000Y-107156250D01*
X130175000Y-107156250D02*
X130175000Y-97631250D01*
X110331250Y-104775000D02*
X110331250Y-109537500D01*
X112712500Y-111918750D02*
X125412500Y-111918750D01*
X110331250Y-109537500D02*
X112712500Y-111918750D01*
X106362500Y-97631250D02*
X110331250Y-97631250D01*
X105568750Y-96837500D02*
X106362500Y-97631250D01*
X110331250Y-97631250D02*
X110331250Y-104775000D01*
X110331250Y-97631250D02*
X110331250Y-94846260D01*
D15*
X135890000Y-105815000D02*
X135890000Y-108585000D01*
X135890000Y-89535000D02*
X135890000Y-105815000D01*
X154940000Y-108585000D02*
X154940000Y-89535000D01*
X103187500Y-111918750D02*
X103187500Y-92868750D01*
M02*
