G04 #@! TF.GenerationSoftware,KiCad,Pcbnew,(5.1.4)-1*
G04 #@! TF.CreationDate,2022-05-22T19:09:44+08:00*
G04 #@! TF.ProjectId,keyboard-pcb-tutorial,6b657962-6f61-4726-942d-7063622d7475,rev?*
G04 #@! TF.SameCoordinates,Original*
G04 #@! TF.FileFunction,Soldermask,Top*
G04 #@! TF.FilePolarity,Negative*
%FSLAX46Y46*%
G04 Gerber Fmt 4.6, Leading zero omitted, Abs format (unit mm)*
G04 Created by KiCad (PCBNEW (5.1.4)-1) date 2022-05-22 19:09:44*
%MOMM*%
%LPD*%
G04 APERTURE LIST*
%ADD10C,0.100000*%
G04 APERTURE END LIST*
D10*
G36*
X140296474Y-109158684D02*
G01*
X140514474Y-109248983D01*
X140668623Y-109312833D01*
X141003548Y-109536623D01*
X141288377Y-109821452D01*
X141512167Y-110156377D01*
X141544562Y-110234586D01*
X141666316Y-110528526D01*
X141744900Y-110923594D01*
X141744900Y-111326406D01*
X141666316Y-111721474D01*
X141615451Y-111844272D01*
X141512167Y-112093623D01*
X141288377Y-112428548D01*
X141003548Y-112713377D01*
X140668623Y-112937167D01*
X140514474Y-113001017D01*
X140296474Y-113091316D01*
X139901406Y-113169900D01*
X139498594Y-113169900D01*
X139103526Y-113091316D01*
X138885526Y-113001017D01*
X138731377Y-112937167D01*
X138396452Y-112713377D01*
X138111623Y-112428548D01*
X137887833Y-112093623D01*
X137784549Y-111844272D01*
X137733684Y-111721474D01*
X137655100Y-111326406D01*
X137655100Y-110923594D01*
X137733684Y-110528526D01*
X137855438Y-110234586D01*
X137887833Y-110156377D01*
X138111623Y-109821452D01*
X138396452Y-109536623D01*
X138731377Y-109312833D01*
X138885526Y-109248983D01*
X139103526Y-109158684D01*
X139498594Y-109080100D01*
X139901406Y-109080100D01*
X140296474Y-109158684D01*
X140296474Y-109158684D01*
G37*
G36*
X159346474Y-109158684D02*
G01*
X159564474Y-109248983D01*
X159718623Y-109312833D01*
X160053548Y-109536623D01*
X160338377Y-109821452D01*
X160562167Y-110156377D01*
X160594562Y-110234586D01*
X160716316Y-110528526D01*
X160794900Y-110923594D01*
X160794900Y-111326406D01*
X160716316Y-111721474D01*
X160665451Y-111844272D01*
X160562167Y-112093623D01*
X160338377Y-112428548D01*
X160053548Y-112713377D01*
X159718623Y-112937167D01*
X159564474Y-113001017D01*
X159346474Y-113091316D01*
X158951406Y-113169900D01*
X158548594Y-113169900D01*
X158153526Y-113091316D01*
X157935526Y-113001017D01*
X157781377Y-112937167D01*
X157446452Y-112713377D01*
X157161623Y-112428548D01*
X156937833Y-112093623D01*
X156834549Y-111844272D01*
X156783684Y-111721474D01*
X156705100Y-111326406D01*
X156705100Y-110923594D01*
X156783684Y-110528526D01*
X156905438Y-110234586D01*
X156937833Y-110156377D01*
X157161623Y-109821452D01*
X157446452Y-109536623D01*
X157781377Y-109312833D01*
X157935526Y-109248983D01*
X158153526Y-109158684D01*
X158548594Y-109080100D01*
X158951406Y-109080100D01*
X159346474Y-109158684D01*
X159346474Y-109158684D01*
G37*
G36*
X145050104Y-110234585D02*
G01*
X145218626Y-110304389D01*
X145370291Y-110405728D01*
X145499272Y-110534709D01*
X145600611Y-110686374D01*
X145670415Y-110854896D01*
X145706000Y-111033797D01*
X145706000Y-111216203D01*
X145670415Y-111395104D01*
X145600611Y-111563626D01*
X145499272Y-111715291D01*
X145370291Y-111844272D01*
X145218626Y-111945611D01*
X145050104Y-112015415D01*
X144871203Y-112051000D01*
X144688797Y-112051000D01*
X144509896Y-112015415D01*
X144341374Y-111945611D01*
X144189709Y-111844272D01*
X144060728Y-111715291D01*
X143959389Y-111563626D01*
X143889585Y-111395104D01*
X143854000Y-111216203D01*
X143854000Y-111033797D01*
X143889585Y-110854896D01*
X143959389Y-110686374D01*
X144060728Y-110534709D01*
X144189709Y-110405728D01*
X144341374Y-110304389D01*
X144509896Y-110234585D01*
X144688797Y-110199000D01*
X144871203Y-110199000D01*
X145050104Y-110234585D01*
X145050104Y-110234585D01*
G37*
G36*
X153940104Y-110234585D02*
G01*
X154108626Y-110304389D01*
X154260291Y-110405728D01*
X154389272Y-110534709D01*
X154490611Y-110686374D01*
X154560415Y-110854896D01*
X154596000Y-111033797D01*
X154596000Y-111216203D01*
X154560415Y-111395104D01*
X154490611Y-111563626D01*
X154389272Y-111715291D01*
X154260291Y-111844272D01*
X154108626Y-111945611D01*
X153940104Y-112015415D01*
X153761203Y-112051000D01*
X153578797Y-112051000D01*
X153399896Y-112015415D01*
X153231374Y-111945611D01*
X153079709Y-111844272D01*
X152950728Y-111715291D01*
X152849389Y-111563626D01*
X152779585Y-111395104D01*
X152744000Y-111216203D01*
X152744000Y-111033797D01*
X152779585Y-110854896D01*
X152849389Y-110686374D01*
X152950728Y-110534709D01*
X153079709Y-110405728D01*
X153231374Y-110304389D01*
X153399896Y-110234585D01*
X153578797Y-110199000D01*
X153761203Y-110199000D01*
X153940104Y-110234585D01*
X153940104Y-110234585D01*
G37*
G36*
X164100104Y-110234585D02*
G01*
X164268626Y-110304389D01*
X164420291Y-110405728D01*
X164549272Y-110534709D01*
X164650611Y-110686374D01*
X164720415Y-110854896D01*
X164756000Y-111033797D01*
X164756000Y-111216203D01*
X164720415Y-111395104D01*
X164650611Y-111563626D01*
X164549272Y-111715291D01*
X164420291Y-111844272D01*
X164268626Y-111945611D01*
X164100104Y-112015415D01*
X163921203Y-112051000D01*
X163738797Y-112051000D01*
X163559896Y-112015415D01*
X163391374Y-111945611D01*
X163239709Y-111844272D01*
X163110728Y-111715291D01*
X163009389Y-111563626D01*
X162939585Y-111395104D01*
X162904000Y-111216203D01*
X162904000Y-111033797D01*
X162939585Y-110854896D01*
X163009389Y-110686374D01*
X163110728Y-110534709D01*
X163239709Y-110405728D01*
X163391374Y-110304389D01*
X163559896Y-110234585D01*
X163738797Y-110199000D01*
X163921203Y-110199000D01*
X164100104Y-110234585D01*
X164100104Y-110234585D01*
G37*
G36*
X134890104Y-110234585D02*
G01*
X135058626Y-110304389D01*
X135210291Y-110405728D01*
X135339272Y-110534709D01*
X135440611Y-110686374D01*
X135510415Y-110854896D01*
X135546000Y-111033797D01*
X135546000Y-111216203D01*
X135510415Y-111395104D01*
X135440611Y-111563626D01*
X135339272Y-111715291D01*
X135210291Y-111844272D01*
X135058626Y-111945611D01*
X134890104Y-112015415D01*
X134711203Y-112051000D01*
X134528797Y-112051000D01*
X134349896Y-112015415D01*
X134181374Y-111945611D01*
X134029709Y-111844272D01*
X133900728Y-111715291D01*
X133799389Y-111563626D01*
X133729585Y-111395104D01*
X133694000Y-111216203D01*
X133694000Y-111033797D01*
X133729585Y-110854896D01*
X133799389Y-110686374D01*
X133900728Y-110534709D01*
X134029709Y-110405728D01*
X134181374Y-110304389D01*
X134349896Y-110234585D01*
X134528797Y-110199000D01*
X134711203Y-110199000D01*
X134890104Y-110234585D01*
X134890104Y-110234585D01*
G37*
G36*
X140296474Y-90108684D02*
G01*
X140514474Y-90198983D01*
X140668623Y-90262833D01*
X141003548Y-90486623D01*
X141288377Y-90771452D01*
X141512167Y-91106377D01*
X141544562Y-91184586D01*
X141666316Y-91478526D01*
X141744900Y-91873594D01*
X141744900Y-92276406D01*
X141666316Y-92671474D01*
X141615451Y-92794272D01*
X141512167Y-93043623D01*
X141288377Y-93378548D01*
X141003548Y-93663377D01*
X140668623Y-93887167D01*
X140514474Y-93951017D01*
X140296474Y-94041316D01*
X139901406Y-94119900D01*
X139498594Y-94119900D01*
X139103526Y-94041316D01*
X138885526Y-93951017D01*
X138731377Y-93887167D01*
X138396452Y-93663377D01*
X138111623Y-93378548D01*
X137887833Y-93043623D01*
X137784549Y-92794272D01*
X137733684Y-92671474D01*
X137655100Y-92276406D01*
X137655100Y-91873594D01*
X137733684Y-91478526D01*
X137855438Y-91184586D01*
X137887833Y-91106377D01*
X138111623Y-90771452D01*
X138396452Y-90486623D01*
X138731377Y-90262833D01*
X138885526Y-90198983D01*
X139103526Y-90108684D01*
X139498594Y-90030100D01*
X139901406Y-90030100D01*
X140296474Y-90108684D01*
X140296474Y-90108684D01*
G37*
G36*
X159346474Y-90108684D02*
G01*
X159564474Y-90198983D01*
X159718623Y-90262833D01*
X160053548Y-90486623D01*
X160338377Y-90771452D01*
X160562167Y-91106377D01*
X160594562Y-91184586D01*
X160716316Y-91478526D01*
X160794900Y-91873594D01*
X160794900Y-92276406D01*
X160716316Y-92671474D01*
X160665451Y-92794272D01*
X160562167Y-93043623D01*
X160338377Y-93378548D01*
X160053548Y-93663377D01*
X159718623Y-93887167D01*
X159564474Y-93951017D01*
X159346474Y-94041316D01*
X158951406Y-94119900D01*
X158548594Y-94119900D01*
X158153526Y-94041316D01*
X157935526Y-93951017D01*
X157781377Y-93887167D01*
X157446452Y-93663377D01*
X157161623Y-93378548D01*
X156937833Y-93043623D01*
X156834549Y-92794272D01*
X156783684Y-92671474D01*
X156705100Y-92276406D01*
X156705100Y-91873594D01*
X156783684Y-91478526D01*
X156905438Y-91184586D01*
X156937833Y-91106377D01*
X157161623Y-90771452D01*
X157446452Y-90486623D01*
X157781377Y-90262833D01*
X157935526Y-90198983D01*
X158153526Y-90108684D01*
X158548594Y-90030100D01*
X158951406Y-90030100D01*
X159346474Y-90108684D01*
X159346474Y-90108684D01*
G37*
G36*
X153940104Y-91184585D02*
G01*
X154108626Y-91254389D01*
X154260291Y-91355728D01*
X154389272Y-91484709D01*
X154490611Y-91636374D01*
X154560415Y-91804896D01*
X154596000Y-91983797D01*
X154596000Y-92166203D01*
X154560415Y-92345104D01*
X154490611Y-92513626D01*
X154389272Y-92665291D01*
X154260291Y-92794272D01*
X154108626Y-92895611D01*
X153940104Y-92965415D01*
X153761203Y-93001000D01*
X153578797Y-93001000D01*
X153399896Y-92965415D01*
X153231374Y-92895611D01*
X153079709Y-92794272D01*
X152950728Y-92665291D01*
X152849389Y-92513626D01*
X152779585Y-92345104D01*
X152744000Y-92166203D01*
X152744000Y-91983797D01*
X152779585Y-91804896D01*
X152849389Y-91636374D01*
X152950728Y-91484709D01*
X153079709Y-91355728D01*
X153231374Y-91254389D01*
X153399896Y-91184585D01*
X153578797Y-91149000D01*
X153761203Y-91149000D01*
X153940104Y-91184585D01*
X153940104Y-91184585D01*
G37*
G36*
X134890104Y-91184585D02*
G01*
X135058626Y-91254389D01*
X135210291Y-91355728D01*
X135339272Y-91484709D01*
X135440611Y-91636374D01*
X135510415Y-91804896D01*
X135546000Y-91983797D01*
X135546000Y-92166203D01*
X135510415Y-92345104D01*
X135440611Y-92513626D01*
X135339272Y-92665291D01*
X135210291Y-92794272D01*
X135058626Y-92895611D01*
X134890104Y-92965415D01*
X134711203Y-93001000D01*
X134528797Y-93001000D01*
X134349896Y-92965415D01*
X134181374Y-92895611D01*
X134029709Y-92794272D01*
X133900728Y-92665291D01*
X133799389Y-92513626D01*
X133729585Y-92345104D01*
X133694000Y-92166203D01*
X133694000Y-91983797D01*
X133729585Y-91804896D01*
X133799389Y-91636374D01*
X133900728Y-91484709D01*
X134029709Y-91355728D01*
X134181374Y-91254389D01*
X134349896Y-91184585D01*
X134528797Y-91149000D01*
X134711203Y-91149000D01*
X134890104Y-91184585D01*
X134890104Y-91184585D01*
G37*
G36*
X145050104Y-91184585D02*
G01*
X145218626Y-91254389D01*
X145370291Y-91355728D01*
X145499272Y-91484709D01*
X145600611Y-91636374D01*
X145670415Y-91804896D01*
X145706000Y-91983797D01*
X145706000Y-92166203D01*
X145670415Y-92345104D01*
X145600611Y-92513626D01*
X145499272Y-92665291D01*
X145370291Y-92794272D01*
X145218626Y-92895611D01*
X145050104Y-92965415D01*
X144871203Y-93001000D01*
X144688797Y-93001000D01*
X144509896Y-92965415D01*
X144341374Y-92895611D01*
X144189709Y-92794272D01*
X144060728Y-92665291D01*
X143959389Y-92513626D01*
X143889585Y-92345104D01*
X143854000Y-92166203D01*
X143854000Y-91983797D01*
X143889585Y-91804896D01*
X143959389Y-91636374D01*
X144060728Y-91484709D01*
X144189709Y-91355728D01*
X144341374Y-91254389D01*
X144509896Y-91184585D01*
X144688797Y-91149000D01*
X144871203Y-91149000D01*
X145050104Y-91184585D01*
X145050104Y-91184585D01*
G37*
G36*
X164100104Y-91184585D02*
G01*
X164268626Y-91254389D01*
X164420291Y-91355728D01*
X164549272Y-91484709D01*
X164650611Y-91636374D01*
X164720415Y-91804896D01*
X164756000Y-91983797D01*
X164756000Y-92166203D01*
X164720415Y-92345104D01*
X164650611Y-92513626D01*
X164549272Y-92665291D01*
X164420291Y-92794272D01*
X164268626Y-92895611D01*
X164100104Y-92965415D01*
X163921203Y-93001000D01*
X163738797Y-93001000D01*
X163559896Y-92965415D01*
X163391374Y-92895611D01*
X163239709Y-92794272D01*
X163110728Y-92665291D01*
X163009389Y-92513626D01*
X162939585Y-92345104D01*
X162904000Y-92166203D01*
X162904000Y-91983797D01*
X162939585Y-91804896D01*
X163009389Y-91636374D01*
X163110728Y-91484709D01*
X163239709Y-91355728D01*
X163391374Y-91254389D01*
X163559896Y-91184585D01*
X163738797Y-91149000D01*
X163921203Y-91149000D01*
X164100104Y-91184585D01*
X164100104Y-91184585D01*
G37*
G36*
X102251627Y-87249537D02*
G01*
X102421466Y-87301057D01*
X102577991Y-87384722D01*
X102613729Y-87414052D01*
X102715186Y-87497314D01*
X102798448Y-87598771D01*
X102827778Y-87634509D01*
X102911443Y-87791034D01*
X102962963Y-87960873D01*
X102976000Y-88093242D01*
X102976000Y-89181758D01*
X102962963Y-89314127D01*
X102911443Y-89483966D01*
X102827778Y-89640491D01*
X102798448Y-89676229D01*
X102715186Y-89777686D01*
X102577989Y-89890279D01*
X102421467Y-89973942D01*
X102421465Y-89973943D01*
X102251626Y-90025463D01*
X102075000Y-90042859D01*
X101898373Y-90025463D01*
X101728534Y-89973943D01*
X101572009Y-89890278D01*
X101536271Y-89860948D01*
X101434814Y-89777686D01*
X101322221Y-89640489D01*
X101238558Y-89483967D01*
X101238557Y-89483965D01*
X101187037Y-89314126D01*
X101174000Y-89181757D01*
X101174001Y-88093242D01*
X101187038Y-87960873D01*
X101238558Y-87791034D01*
X101322223Y-87634509D01*
X101351553Y-87598771D01*
X101434815Y-87497314D01*
X101536272Y-87414052D01*
X101572010Y-87384722D01*
X101728535Y-87301057D01*
X101898374Y-87249537D01*
X102075000Y-87232141D01*
X102251627Y-87249537D01*
X102251627Y-87249537D01*
G37*
G36*
X94951627Y-87249537D02*
G01*
X95121466Y-87301057D01*
X95277991Y-87384722D01*
X95313729Y-87414052D01*
X95415186Y-87497314D01*
X95498448Y-87598771D01*
X95527778Y-87634509D01*
X95611443Y-87791034D01*
X95662963Y-87960873D01*
X95676000Y-88093242D01*
X95676000Y-89181758D01*
X95662963Y-89314127D01*
X95611443Y-89483966D01*
X95527778Y-89640491D01*
X95498448Y-89676229D01*
X95415186Y-89777686D01*
X95277989Y-89890279D01*
X95121467Y-89973942D01*
X95121465Y-89973943D01*
X94951626Y-90025463D01*
X94775000Y-90042859D01*
X94598373Y-90025463D01*
X94428534Y-89973943D01*
X94272009Y-89890278D01*
X94236271Y-89860948D01*
X94134814Y-89777686D01*
X94022221Y-89640489D01*
X93938558Y-89483967D01*
X93938557Y-89483965D01*
X93887037Y-89314126D01*
X93874000Y-89181757D01*
X93874001Y-88093242D01*
X93887038Y-87960873D01*
X93938558Y-87791034D01*
X94022223Y-87634509D01*
X94051553Y-87598771D01*
X94134815Y-87497314D01*
X94236272Y-87414052D01*
X94272010Y-87384722D01*
X94428535Y-87301057D01*
X94598374Y-87249537D01*
X94775000Y-87232141D01*
X94951627Y-87249537D01*
X94951627Y-87249537D01*
G37*
G36*
X102251627Y-82749537D02*
G01*
X102421466Y-82801057D01*
X102577991Y-82884722D01*
X102613729Y-82914052D01*
X102715186Y-82997314D01*
X102798448Y-83098771D01*
X102827778Y-83134509D01*
X102911443Y-83291034D01*
X102962963Y-83460873D01*
X102976000Y-83593242D01*
X102976000Y-84681758D01*
X102962963Y-84814127D01*
X102911443Y-84983966D01*
X102827778Y-85140491D01*
X102798448Y-85176229D01*
X102715186Y-85277686D01*
X102577989Y-85390279D01*
X102421467Y-85473942D01*
X102421465Y-85473943D01*
X102251626Y-85525463D01*
X102075000Y-85542859D01*
X101898373Y-85525463D01*
X101728534Y-85473943D01*
X101572009Y-85390278D01*
X101536271Y-85360948D01*
X101434814Y-85277686D01*
X101322221Y-85140489D01*
X101238558Y-84983967D01*
X101238557Y-84983965D01*
X101187037Y-84814126D01*
X101174000Y-84681757D01*
X101174001Y-83593242D01*
X101187038Y-83460873D01*
X101238558Y-83291034D01*
X101322223Y-83134509D01*
X101351553Y-83098771D01*
X101434815Y-82997314D01*
X101536272Y-82914052D01*
X101572010Y-82884722D01*
X101728535Y-82801057D01*
X101898374Y-82749537D01*
X102075000Y-82732141D01*
X102251627Y-82749537D01*
X102251627Y-82749537D01*
G37*
G36*
X94951627Y-82749537D02*
G01*
X95121466Y-82801057D01*
X95277991Y-82884722D01*
X95313729Y-82914052D01*
X95415186Y-82997314D01*
X95498448Y-83098771D01*
X95527778Y-83134509D01*
X95611443Y-83291034D01*
X95662963Y-83460873D01*
X95676000Y-83593242D01*
X95676000Y-84681758D01*
X95662963Y-84814127D01*
X95611443Y-84983966D01*
X95527778Y-85140491D01*
X95498448Y-85176229D01*
X95415186Y-85277686D01*
X95277989Y-85390279D01*
X95121467Y-85473942D01*
X95121465Y-85473943D01*
X94951626Y-85525463D01*
X94775000Y-85542859D01*
X94598373Y-85525463D01*
X94428534Y-85473943D01*
X94272009Y-85390278D01*
X94236271Y-85360948D01*
X94134814Y-85277686D01*
X94022221Y-85140489D01*
X93938558Y-84983967D01*
X93938557Y-84983965D01*
X93887037Y-84814126D01*
X93874000Y-84681757D01*
X93874001Y-83593242D01*
X93887038Y-83460873D01*
X93938558Y-83291034D01*
X94022223Y-83134509D01*
X94051553Y-83098771D01*
X94134815Y-82997314D01*
X94236272Y-82914052D01*
X94272010Y-82884722D01*
X94428535Y-82801057D01*
X94598374Y-82749537D01*
X94775000Y-82732141D01*
X94951627Y-82749537D01*
X94951627Y-82749537D01*
G37*
M02*
