G04 #@! TF.GenerationSoftware,KiCad,Pcbnew,(5.1.4)-1*
G04 #@! TF.CreationDate,2022-05-22T19:09:44+08:00*
G04 #@! TF.ProjectId,keyboard-pcb-tutorial,6b657962-6f61-4726-942d-7063622d7475,rev?*
G04 #@! TF.SameCoordinates,Original*
G04 #@! TF.FileFunction,Copper,L2,Bot*
G04 #@! TF.FilePolarity,Positive*
%FSLAX46Y46*%
G04 Gerber Fmt 4.6, Leading zero omitted, Abs format (unit mm)*
G04 Created by KiCad (PCBNEW (5.1.4)-1) date 2022-05-22 19:09:44*
%MOMM*%
%LPD*%
G04 APERTURE LIST*
%ADD10C,0.100000*%
%ADD11C,0.975000*%
%ADD12C,2.250000*%
%ADD13C,2.250000*%
%ADD14C,1.250000*%
%ADD15R,1.400000X1.200000*%
%ADD16O,1.700000X2.700000*%
%ADD17R,0.500000X2.250000*%
%ADD18R,0.550000X1.500000*%
%ADD19R,1.500000X0.550000*%
%ADD20R,1.800000X1.100000*%
%ADD21R,1.200000X0.900000*%
%ADD22C,0.800000*%
%ADD23C,0.381000*%
%ADD24C,0.254000*%
G04 APERTURE END LIST*
D10*
G36*
X110811392Y-91444924D02*
G01*
X110835053Y-91448434D01*
X110858257Y-91454246D01*
X110880779Y-91462304D01*
X110902403Y-91472532D01*
X110922920Y-91484829D01*
X110942133Y-91499079D01*
X110959857Y-91515143D01*
X110975921Y-91532867D01*
X110990171Y-91552080D01*
X111002468Y-91572597D01*
X111012696Y-91594221D01*
X111020754Y-91616743D01*
X111026566Y-91639947D01*
X111030076Y-91663608D01*
X111031250Y-91687500D01*
X111031250Y-92175000D01*
X111030076Y-92198892D01*
X111026566Y-92222553D01*
X111020754Y-92245757D01*
X111012696Y-92268279D01*
X111002468Y-92289903D01*
X110990171Y-92310420D01*
X110975921Y-92329633D01*
X110959857Y-92347357D01*
X110942133Y-92363421D01*
X110922920Y-92377671D01*
X110902403Y-92389968D01*
X110880779Y-92400196D01*
X110858257Y-92408254D01*
X110835053Y-92414066D01*
X110811392Y-92417576D01*
X110787500Y-92418750D01*
X109875000Y-92418750D01*
X109851108Y-92417576D01*
X109827447Y-92414066D01*
X109804243Y-92408254D01*
X109781721Y-92400196D01*
X109760097Y-92389968D01*
X109739580Y-92377671D01*
X109720367Y-92363421D01*
X109702643Y-92347357D01*
X109686579Y-92329633D01*
X109672329Y-92310420D01*
X109660032Y-92289903D01*
X109649804Y-92268279D01*
X109641746Y-92245757D01*
X109635934Y-92222553D01*
X109632424Y-92198892D01*
X109631250Y-92175000D01*
X109631250Y-91687500D01*
X109632424Y-91663608D01*
X109635934Y-91639947D01*
X109641746Y-91616743D01*
X109649804Y-91594221D01*
X109660032Y-91572597D01*
X109672329Y-91552080D01*
X109686579Y-91532867D01*
X109702643Y-91515143D01*
X109720367Y-91499079D01*
X109739580Y-91484829D01*
X109760097Y-91472532D01*
X109781721Y-91462304D01*
X109804243Y-91454246D01*
X109827447Y-91448434D01*
X109851108Y-91444924D01*
X109875000Y-91443750D01*
X110787500Y-91443750D01*
X110811392Y-91444924D01*
X110811392Y-91444924D01*
G37*
D11*
X110331250Y-91931250D03*
D10*
G36*
X110811392Y-93319924D02*
G01*
X110835053Y-93323434D01*
X110858257Y-93329246D01*
X110880779Y-93337304D01*
X110902403Y-93347532D01*
X110922920Y-93359829D01*
X110942133Y-93374079D01*
X110959857Y-93390143D01*
X110975921Y-93407867D01*
X110990171Y-93427080D01*
X111002468Y-93447597D01*
X111012696Y-93469221D01*
X111020754Y-93491743D01*
X111026566Y-93514947D01*
X111030076Y-93538608D01*
X111031250Y-93562500D01*
X111031250Y-94050000D01*
X111030076Y-94073892D01*
X111026566Y-94097553D01*
X111020754Y-94120757D01*
X111012696Y-94143279D01*
X111002468Y-94164903D01*
X110990171Y-94185420D01*
X110975921Y-94204633D01*
X110959857Y-94222357D01*
X110942133Y-94238421D01*
X110922920Y-94252671D01*
X110902403Y-94264968D01*
X110880779Y-94275196D01*
X110858257Y-94283254D01*
X110835053Y-94289066D01*
X110811392Y-94292576D01*
X110787500Y-94293750D01*
X109875000Y-94293750D01*
X109851108Y-94292576D01*
X109827447Y-94289066D01*
X109804243Y-94283254D01*
X109781721Y-94275196D01*
X109760097Y-94264968D01*
X109739580Y-94252671D01*
X109720367Y-94238421D01*
X109702643Y-94222357D01*
X109686579Y-94204633D01*
X109672329Y-94185420D01*
X109660032Y-94164903D01*
X109649804Y-94143279D01*
X109641746Y-94120757D01*
X109635934Y-94097553D01*
X109632424Y-94073892D01*
X109631250Y-94050000D01*
X109631250Y-93562500D01*
X109632424Y-93538608D01*
X109635934Y-93514947D01*
X109641746Y-93491743D01*
X109649804Y-93469221D01*
X109660032Y-93447597D01*
X109672329Y-93427080D01*
X109686579Y-93407867D01*
X109702643Y-93390143D01*
X109720367Y-93374079D01*
X109739580Y-93359829D01*
X109760097Y-93347532D01*
X109781721Y-93337304D01*
X109804243Y-93329246D01*
X109827447Y-93323434D01*
X109851108Y-93319924D01*
X109875000Y-93318750D01*
X110787500Y-93318750D01*
X110811392Y-93319924D01*
X110811392Y-93319924D01*
G37*
D11*
X110331250Y-93806250D03*
D12*
X137200000Y-107125000D03*
X136545001Y-107855000D03*
D13*
X135890000Y-108585000D02*
X137200002Y-107125000D01*
D12*
X142240000Y-106045000D03*
X142220000Y-106335000D03*
D13*
X142200000Y-106625000D02*
X142240000Y-106045000D01*
D10*
G36*
X106949504Y-98344954D02*
G01*
X106973773Y-98348554D01*
X106997571Y-98354515D01*
X107020671Y-98362780D01*
X107042849Y-98373270D01*
X107063893Y-98385883D01*
X107083598Y-98400497D01*
X107101777Y-98416973D01*
X107118253Y-98435152D01*
X107132867Y-98454857D01*
X107145480Y-98475901D01*
X107155970Y-98498079D01*
X107164235Y-98521179D01*
X107170196Y-98544977D01*
X107173796Y-98569246D01*
X107175000Y-98593750D01*
X107175000Y-99843750D01*
X107173796Y-99868254D01*
X107170196Y-99892523D01*
X107164235Y-99916321D01*
X107155970Y-99939421D01*
X107145480Y-99961599D01*
X107132867Y-99982643D01*
X107118253Y-100002348D01*
X107101777Y-100020527D01*
X107083598Y-100037003D01*
X107063893Y-100051617D01*
X107042849Y-100064230D01*
X107020671Y-100074720D01*
X106997571Y-100082985D01*
X106973773Y-100088946D01*
X106949504Y-100092546D01*
X106925000Y-100093750D01*
X106175000Y-100093750D01*
X106150496Y-100092546D01*
X106126227Y-100088946D01*
X106102429Y-100082985D01*
X106079329Y-100074720D01*
X106057151Y-100064230D01*
X106036107Y-100051617D01*
X106016402Y-100037003D01*
X105998223Y-100020527D01*
X105981747Y-100002348D01*
X105967133Y-99982643D01*
X105954520Y-99961599D01*
X105944030Y-99939421D01*
X105935765Y-99916321D01*
X105929804Y-99892523D01*
X105926204Y-99868254D01*
X105925000Y-99843750D01*
X105925000Y-98593750D01*
X105926204Y-98569246D01*
X105929804Y-98544977D01*
X105935765Y-98521179D01*
X105944030Y-98498079D01*
X105954520Y-98475901D01*
X105967133Y-98454857D01*
X105981747Y-98435152D01*
X105998223Y-98416973D01*
X106016402Y-98400497D01*
X106036107Y-98385883D01*
X106057151Y-98373270D01*
X106079329Y-98362780D01*
X106102429Y-98354515D01*
X106126227Y-98348554D01*
X106150496Y-98344954D01*
X106175000Y-98343750D01*
X106925000Y-98343750D01*
X106949504Y-98344954D01*
X106949504Y-98344954D01*
G37*
D14*
X106550000Y-99218750D03*
D10*
G36*
X109749504Y-98344954D02*
G01*
X109773773Y-98348554D01*
X109797571Y-98354515D01*
X109820671Y-98362780D01*
X109842849Y-98373270D01*
X109863893Y-98385883D01*
X109883598Y-98400497D01*
X109901777Y-98416973D01*
X109918253Y-98435152D01*
X109932867Y-98454857D01*
X109945480Y-98475901D01*
X109955970Y-98498079D01*
X109964235Y-98521179D01*
X109970196Y-98544977D01*
X109973796Y-98569246D01*
X109975000Y-98593750D01*
X109975000Y-99843750D01*
X109973796Y-99868254D01*
X109970196Y-99892523D01*
X109964235Y-99916321D01*
X109955970Y-99939421D01*
X109945480Y-99961599D01*
X109932867Y-99982643D01*
X109918253Y-100002348D01*
X109901777Y-100020527D01*
X109883598Y-100037003D01*
X109863893Y-100051617D01*
X109842849Y-100064230D01*
X109820671Y-100074720D01*
X109797571Y-100082985D01*
X109773773Y-100088946D01*
X109749504Y-100092546D01*
X109725000Y-100093750D01*
X108975000Y-100093750D01*
X108950496Y-100092546D01*
X108926227Y-100088946D01*
X108902429Y-100082985D01*
X108879329Y-100074720D01*
X108857151Y-100064230D01*
X108836107Y-100051617D01*
X108816402Y-100037003D01*
X108798223Y-100020527D01*
X108781747Y-100002348D01*
X108767133Y-99982643D01*
X108754520Y-99961599D01*
X108744030Y-99939421D01*
X108735765Y-99916321D01*
X108729804Y-99892523D01*
X108726204Y-99868254D01*
X108725000Y-99843750D01*
X108725000Y-98593750D01*
X108726204Y-98569246D01*
X108729804Y-98544977D01*
X108735765Y-98521179D01*
X108744030Y-98498079D01*
X108754520Y-98475901D01*
X108767133Y-98454857D01*
X108781747Y-98435152D01*
X108798223Y-98416973D01*
X108816402Y-98400497D01*
X108836107Y-98385883D01*
X108857151Y-98373270D01*
X108879329Y-98362780D01*
X108902429Y-98354515D01*
X108926227Y-98348554D01*
X108950496Y-98344954D01*
X108975000Y-98343750D01*
X109725000Y-98343750D01*
X109749504Y-98344954D01*
X109749504Y-98344954D01*
G37*
D14*
X109350000Y-99218750D03*
D10*
G36*
X99698892Y-93826174D02*
G01*
X99722553Y-93829684D01*
X99745757Y-93835496D01*
X99768279Y-93843554D01*
X99789903Y-93853782D01*
X99810420Y-93866079D01*
X99829633Y-93880329D01*
X99847357Y-93896393D01*
X99863421Y-93914117D01*
X99877671Y-93933330D01*
X99889968Y-93953847D01*
X99900196Y-93975471D01*
X99908254Y-93997993D01*
X99914066Y-94021197D01*
X99917576Y-94044858D01*
X99918750Y-94068750D01*
X99918750Y-94556250D01*
X99917576Y-94580142D01*
X99914066Y-94603803D01*
X99908254Y-94627007D01*
X99900196Y-94649529D01*
X99889968Y-94671153D01*
X99877671Y-94691670D01*
X99863421Y-94710883D01*
X99847357Y-94728607D01*
X99829633Y-94744671D01*
X99810420Y-94758921D01*
X99789903Y-94771218D01*
X99768279Y-94781446D01*
X99745757Y-94789504D01*
X99722553Y-94795316D01*
X99698892Y-94798826D01*
X99675000Y-94800000D01*
X98762500Y-94800000D01*
X98738608Y-94798826D01*
X98714947Y-94795316D01*
X98691743Y-94789504D01*
X98669221Y-94781446D01*
X98647597Y-94771218D01*
X98627080Y-94758921D01*
X98607867Y-94744671D01*
X98590143Y-94728607D01*
X98574079Y-94710883D01*
X98559829Y-94691670D01*
X98547532Y-94671153D01*
X98537304Y-94649529D01*
X98529246Y-94627007D01*
X98523434Y-94603803D01*
X98519924Y-94580142D01*
X98518750Y-94556250D01*
X98518750Y-94068750D01*
X98519924Y-94044858D01*
X98523434Y-94021197D01*
X98529246Y-93997993D01*
X98537304Y-93975471D01*
X98547532Y-93953847D01*
X98559829Y-93933330D01*
X98574079Y-93914117D01*
X98590143Y-93896393D01*
X98607867Y-93880329D01*
X98627080Y-93866079D01*
X98647597Y-93853782D01*
X98669221Y-93843554D01*
X98691743Y-93835496D01*
X98714947Y-93829684D01*
X98738608Y-93826174D01*
X98762500Y-93825000D01*
X99675000Y-93825000D01*
X99698892Y-93826174D01*
X99698892Y-93826174D01*
G37*
D11*
X99218750Y-94312500D03*
D10*
G36*
X99698892Y-95701174D02*
G01*
X99722553Y-95704684D01*
X99745757Y-95710496D01*
X99768279Y-95718554D01*
X99789903Y-95728782D01*
X99810420Y-95741079D01*
X99829633Y-95755329D01*
X99847357Y-95771393D01*
X99863421Y-95789117D01*
X99877671Y-95808330D01*
X99889968Y-95828847D01*
X99900196Y-95850471D01*
X99908254Y-95872993D01*
X99914066Y-95896197D01*
X99917576Y-95919858D01*
X99918750Y-95943750D01*
X99918750Y-96431250D01*
X99917576Y-96455142D01*
X99914066Y-96478803D01*
X99908254Y-96502007D01*
X99900196Y-96524529D01*
X99889968Y-96546153D01*
X99877671Y-96566670D01*
X99863421Y-96585883D01*
X99847357Y-96603607D01*
X99829633Y-96619671D01*
X99810420Y-96633921D01*
X99789903Y-96646218D01*
X99768279Y-96656446D01*
X99745757Y-96664504D01*
X99722553Y-96670316D01*
X99698892Y-96673826D01*
X99675000Y-96675000D01*
X98762500Y-96675000D01*
X98738608Y-96673826D01*
X98714947Y-96670316D01*
X98691743Y-96664504D01*
X98669221Y-96656446D01*
X98647597Y-96646218D01*
X98627080Y-96633921D01*
X98607867Y-96619671D01*
X98590143Y-96603607D01*
X98574079Y-96585883D01*
X98559829Y-96566670D01*
X98547532Y-96546153D01*
X98537304Y-96524529D01*
X98529246Y-96502007D01*
X98523434Y-96478803D01*
X98519924Y-96455142D01*
X98518750Y-96431250D01*
X98518750Y-95943750D01*
X98519924Y-95919858D01*
X98523434Y-95896197D01*
X98529246Y-95872993D01*
X98537304Y-95850471D01*
X98547532Y-95828847D01*
X98559829Y-95808330D01*
X98574079Y-95789117D01*
X98590143Y-95771393D01*
X98607867Y-95755329D01*
X98627080Y-95741079D01*
X98647597Y-95728782D01*
X98669221Y-95718554D01*
X98691743Y-95710496D01*
X98714947Y-95704684D01*
X98738608Y-95701174D01*
X98762500Y-95700000D01*
X99675000Y-95700000D01*
X99698892Y-95701174D01*
X99698892Y-95701174D01*
G37*
D11*
X99218750Y-96187500D03*
D15*
X119051250Y-87891250D03*
X116851250Y-87891250D03*
X116851250Y-89591250D03*
X119051250Y-89591250D03*
D16*
X94775000Y-84137500D03*
X102075000Y-84137500D03*
X102075000Y-88637500D03*
X94775000Y-88637500D03*
D17*
X96825000Y-88637500D03*
X97625000Y-88637500D03*
X98425000Y-88637500D03*
X99225000Y-88637500D03*
X100025000Y-88637500D03*
D18*
X113951250Y-107141250D03*
X114751250Y-107141250D03*
X115551250Y-107141250D03*
X116351250Y-107141250D03*
X117151250Y-107141250D03*
X117951250Y-107141250D03*
X118751250Y-107141250D03*
X119551250Y-107141250D03*
X120351250Y-107141250D03*
X121151250Y-107141250D03*
X121951250Y-107141250D03*
D19*
X123651250Y-105441250D03*
X123651250Y-104641250D03*
X123651250Y-103841250D03*
X123651250Y-103041250D03*
X123651250Y-102241250D03*
X123651250Y-101441250D03*
X123651250Y-100641250D03*
X123651250Y-99841250D03*
X123651250Y-99041250D03*
X123651250Y-98241250D03*
X123651250Y-97441250D03*
D18*
X121951250Y-95741250D03*
X121151250Y-95741250D03*
X120351250Y-95741250D03*
X119551250Y-95741250D03*
X118751250Y-95741250D03*
X117951250Y-95741250D03*
X117151250Y-95741250D03*
X116351250Y-95741250D03*
X115551250Y-95741250D03*
X114751250Y-95741250D03*
X113951250Y-95741250D03*
D19*
X112251250Y-97441250D03*
X112251250Y-98241250D03*
X112251250Y-99041250D03*
X112251250Y-99841250D03*
X112251250Y-100641250D03*
X112251250Y-101441250D03*
X112251250Y-102241250D03*
X112251250Y-103041250D03*
X112251250Y-103841250D03*
X112251250Y-104641250D03*
X112251250Y-105441250D03*
D20*
X103112500Y-116943750D03*
X96912500Y-113243750D03*
X103112500Y-113243750D03*
X96912500Y-116943750D03*
D10*
G36*
X128273892Y-104938674D02*
G01*
X128297553Y-104942184D01*
X128320757Y-104947996D01*
X128343279Y-104956054D01*
X128364903Y-104966282D01*
X128385420Y-104978579D01*
X128404633Y-104992829D01*
X128422357Y-105008893D01*
X128438421Y-105026617D01*
X128452671Y-105045830D01*
X128464968Y-105066347D01*
X128475196Y-105087971D01*
X128483254Y-105110493D01*
X128489066Y-105133697D01*
X128492576Y-105157358D01*
X128493750Y-105181250D01*
X128493750Y-105668750D01*
X128492576Y-105692642D01*
X128489066Y-105716303D01*
X128483254Y-105739507D01*
X128475196Y-105762029D01*
X128464968Y-105783653D01*
X128452671Y-105804170D01*
X128438421Y-105823383D01*
X128422357Y-105841107D01*
X128404633Y-105857171D01*
X128385420Y-105871421D01*
X128364903Y-105883718D01*
X128343279Y-105893946D01*
X128320757Y-105902004D01*
X128297553Y-105907816D01*
X128273892Y-105911326D01*
X128250000Y-105912500D01*
X127337500Y-105912500D01*
X127313608Y-105911326D01*
X127289947Y-105907816D01*
X127266743Y-105902004D01*
X127244221Y-105893946D01*
X127222597Y-105883718D01*
X127202080Y-105871421D01*
X127182867Y-105857171D01*
X127165143Y-105841107D01*
X127149079Y-105823383D01*
X127134829Y-105804170D01*
X127122532Y-105783653D01*
X127112304Y-105762029D01*
X127104246Y-105739507D01*
X127098434Y-105716303D01*
X127094924Y-105692642D01*
X127093750Y-105668750D01*
X127093750Y-105181250D01*
X127094924Y-105157358D01*
X127098434Y-105133697D01*
X127104246Y-105110493D01*
X127112304Y-105087971D01*
X127122532Y-105066347D01*
X127134829Y-105045830D01*
X127149079Y-105026617D01*
X127165143Y-105008893D01*
X127182867Y-104992829D01*
X127202080Y-104978579D01*
X127222597Y-104966282D01*
X127244221Y-104956054D01*
X127266743Y-104947996D01*
X127289947Y-104942184D01*
X127313608Y-104938674D01*
X127337500Y-104937500D01*
X128250000Y-104937500D01*
X128273892Y-104938674D01*
X128273892Y-104938674D01*
G37*
D11*
X127793750Y-105425000D03*
D10*
G36*
X128273892Y-106813674D02*
G01*
X128297553Y-106817184D01*
X128320757Y-106822996D01*
X128343279Y-106831054D01*
X128364903Y-106841282D01*
X128385420Y-106853579D01*
X128404633Y-106867829D01*
X128422357Y-106883893D01*
X128438421Y-106901617D01*
X128452671Y-106920830D01*
X128464968Y-106941347D01*
X128475196Y-106962971D01*
X128483254Y-106985493D01*
X128489066Y-107008697D01*
X128492576Y-107032358D01*
X128493750Y-107056250D01*
X128493750Y-107543750D01*
X128492576Y-107567642D01*
X128489066Y-107591303D01*
X128483254Y-107614507D01*
X128475196Y-107637029D01*
X128464968Y-107658653D01*
X128452671Y-107679170D01*
X128438421Y-107698383D01*
X128422357Y-107716107D01*
X128404633Y-107732171D01*
X128385420Y-107746421D01*
X128364903Y-107758718D01*
X128343279Y-107768946D01*
X128320757Y-107777004D01*
X128297553Y-107782816D01*
X128273892Y-107786326D01*
X128250000Y-107787500D01*
X127337500Y-107787500D01*
X127313608Y-107786326D01*
X127289947Y-107782816D01*
X127266743Y-107777004D01*
X127244221Y-107768946D01*
X127222597Y-107758718D01*
X127202080Y-107746421D01*
X127182867Y-107732171D01*
X127165143Y-107716107D01*
X127149079Y-107698383D01*
X127134829Y-107679170D01*
X127122532Y-107658653D01*
X127112304Y-107637029D01*
X127104246Y-107614507D01*
X127098434Y-107591303D01*
X127094924Y-107567642D01*
X127093750Y-107543750D01*
X127093750Y-107056250D01*
X127094924Y-107032358D01*
X127098434Y-107008697D01*
X127104246Y-106985493D01*
X127112304Y-106962971D01*
X127122532Y-106941347D01*
X127134829Y-106920830D01*
X127149079Y-106901617D01*
X127165143Y-106883893D01*
X127182867Y-106867829D01*
X127202080Y-106853579D01*
X127222597Y-106841282D01*
X127244221Y-106831054D01*
X127266743Y-106822996D01*
X127289947Y-106817184D01*
X127313608Y-106813674D01*
X127337500Y-106812500D01*
X128250000Y-106812500D01*
X128273892Y-106813674D01*
X128273892Y-106813674D01*
G37*
D11*
X127793750Y-107300000D03*
D10*
G36*
X96523892Y-93826174D02*
G01*
X96547553Y-93829684D01*
X96570757Y-93835496D01*
X96593279Y-93843554D01*
X96614903Y-93853782D01*
X96635420Y-93866079D01*
X96654633Y-93880329D01*
X96672357Y-93896393D01*
X96688421Y-93914117D01*
X96702671Y-93933330D01*
X96714968Y-93953847D01*
X96725196Y-93975471D01*
X96733254Y-93997993D01*
X96739066Y-94021197D01*
X96742576Y-94044858D01*
X96743750Y-94068750D01*
X96743750Y-94556250D01*
X96742576Y-94580142D01*
X96739066Y-94603803D01*
X96733254Y-94627007D01*
X96725196Y-94649529D01*
X96714968Y-94671153D01*
X96702671Y-94691670D01*
X96688421Y-94710883D01*
X96672357Y-94728607D01*
X96654633Y-94744671D01*
X96635420Y-94758921D01*
X96614903Y-94771218D01*
X96593279Y-94781446D01*
X96570757Y-94789504D01*
X96547553Y-94795316D01*
X96523892Y-94798826D01*
X96500000Y-94800000D01*
X95587500Y-94800000D01*
X95563608Y-94798826D01*
X95539947Y-94795316D01*
X95516743Y-94789504D01*
X95494221Y-94781446D01*
X95472597Y-94771218D01*
X95452080Y-94758921D01*
X95432867Y-94744671D01*
X95415143Y-94728607D01*
X95399079Y-94710883D01*
X95384829Y-94691670D01*
X95372532Y-94671153D01*
X95362304Y-94649529D01*
X95354246Y-94627007D01*
X95348434Y-94603803D01*
X95344924Y-94580142D01*
X95343750Y-94556250D01*
X95343750Y-94068750D01*
X95344924Y-94044858D01*
X95348434Y-94021197D01*
X95354246Y-93997993D01*
X95362304Y-93975471D01*
X95372532Y-93953847D01*
X95384829Y-93933330D01*
X95399079Y-93914117D01*
X95415143Y-93896393D01*
X95432867Y-93880329D01*
X95452080Y-93866079D01*
X95472597Y-93853782D01*
X95494221Y-93843554D01*
X95516743Y-93835496D01*
X95539947Y-93829684D01*
X95563608Y-93826174D01*
X95587500Y-93825000D01*
X96500000Y-93825000D01*
X96523892Y-93826174D01*
X96523892Y-93826174D01*
G37*
D11*
X96043750Y-94312500D03*
D10*
G36*
X96523892Y-95701174D02*
G01*
X96547553Y-95704684D01*
X96570757Y-95710496D01*
X96593279Y-95718554D01*
X96614903Y-95728782D01*
X96635420Y-95741079D01*
X96654633Y-95755329D01*
X96672357Y-95771393D01*
X96688421Y-95789117D01*
X96702671Y-95808330D01*
X96714968Y-95828847D01*
X96725196Y-95850471D01*
X96733254Y-95872993D01*
X96739066Y-95896197D01*
X96742576Y-95919858D01*
X96743750Y-95943750D01*
X96743750Y-96431250D01*
X96742576Y-96455142D01*
X96739066Y-96478803D01*
X96733254Y-96502007D01*
X96725196Y-96524529D01*
X96714968Y-96546153D01*
X96702671Y-96566670D01*
X96688421Y-96585883D01*
X96672357Y-96603607D01*
X96654633Y-96619671D01*
X96635420Y-96633921D01*
X96614903Y-96646218D01*
X96593279Y-96656446D01*
X96570757Y-96664504D01*
X96547553Y-96670316D01*
X96523892Y-96673826D01*
X96500000Y-96675000D01*
X95587500Y-96675000D01*
X95563608Y-96673826D01*
X95539947Y-96670316D01*
X95516743Y-96664504D01*
X95494221Y-96656446D01*
X95472597Y-96646218D01*
X95452080Y-96633921D01*
X95432867Y-96619671D01*
X95415143Y-96603607D01*
X95399079Y-96585883D01*
X95384829Y-96566670D01*
X95372532Y-96546153D01*
X95362304Y-96524529D01*
X95354246Y-96502007D01*
X95348434Y-96478803D01*
X95344924Y-96455142D01*
X95343750Y-96431250D01*
X95343750Y-95943750D01*
X95344924Y-95919858D01*
X95348434Y-95896197D01*
X95354246Y-95872993D01*
X95362304Y-95850471D01*
X95372532Y-95828847D01*
X95384829Y-95808330D01*
X95399079Y-95789117D01*
X95415143Y-95771393D01*
X95432867Y-95755329D01*
X95452080Y-95741079D01*
X95472597Y-95728782D01*
X95494221Y-95718554D01*
X95516743Y-95710496D01*
X95539947Y-95704684D01*
X95563608Y-95701174D01*
X95587500Y-95700000D01*
X96500000Y-95700000D01*
X96523892Y-95701174D01*
X96523892Y-95701174D01*
G37*
D11*
X96043750Y-96187500D03*
D10*
G36*
X105731392Y-92397424D02*
G01*
X105755053Y-92400934D01*
X105778257Y-92406746D01*
X105800779Y-92414804D01*
X105822403Y-92425032D01*
X105842920Y-92437329D01*
X105862133Y-92451579D01*
X105879857Y-92467643D01*
X105895921Y-92485367D01*
X105910171Y-92504580D01*
X105922468Y-92525097D01*
X105932696Y-92546721D01*
X105940754Y-92569243D01*
X105946566Y-92592447D01*
X105950076Y-92616108D01*
X105951250Y-92640000D01*
X105951250Y-93127500D01*
X105950076Y-93151392D01*
X105946566Y-93175053D01*
X105940754Y-93198257D01*
X105932696Y-93220779D01*
X105922468Y-93242403D01*
X105910171Y-93262920D01*
X105895921Y-93282133D01*
X105879857Y-93299857D01*
X105862133Y-93315921D01*
X105842920Y-93330171D01*
X105822403Y-93342468D01*
X105800779Y-93352696D01*
X105778257Y-93360754D01*
X105755053Y-93366566D01*
X105731392Y-93370076D01*
X105707500Y-93371250D01*
X104795000Y-93371250D01*
X104771108Y-93370076D01*
X104747447Y-93366566D01*
X104724243Y-93360754D01*
X104701721Y-93352696D01*
X104680097Y-93342468D01*
X104659580Y-93330171D01*
X104640367Y-93315921D01*
X104622643Y-93299857D01*
X104606579Y-93282133D01*
X104592329Y-93262920D01*
X104580032Y-93242403D01*
X104569804Y-93220779D01*
X104561746Y-93198257D01*
X104555934Y-93175053D01*
X104552424Y-93151392D01*
X104551250Y-93127500D01*
X104551250Y-92640000D01*
X104552424Y-92616108D01*
X104555934Y-92592447D01*
X104561746Y-92569243D01*
X104569804Y-92546721D01*
X104580032Y-92525097D01*
X104592329Y-92504580D01*
X104606579Y-92485367D01*
X104622643Y-92467643D01*
X104640367Y-92451579D01*
X104659580Y-92437329D01*
X104680097Y-92425032D01*
X104701721Y-92414804D01*
X104724243Y-92406746D01*
X104747447Y-92400934D01*
X104771108Y-92397424D01*
X104795000Y-92396250D01*
X105707500Y-92396250D01*
X105731392Y-92397424D01*
X105731392Y-92397424D01*
G37*
D11*
X105251250Y-92883750D03*
D10*
G36*
X105731392Y-94272424D02*
G01*
X105755053Y-94275934D01*
X105778257Y-94281746D01*
X105800779Y-94289804D01*
X105822403Y-94300032D01*
X105842920Y-94312329D01*
X105862133Y-94326579D01*
X105879857Y-94342643D01*
X105895921Y-94360367D01*
X105910171Y-94379580D01*
X105922468Y-94400097D01*
X105932696Y-94421721D01*
X105940754Y-94444243D01*
X105946566Y-94467447D01*
X105950076Y-94491108D01*
X105951250Y-94515000D01*
X105951250Y-95002500D01*
X105950076Y-95026392D01*
X105946566Y-95050053D01*
X105940754Y-95073257D01*
X105932696Y-95095779D01*
X105922468Y-95117403D01*
X105910171Y-95137920D01*
X105895921Y-95157133D01*
X105879857Y-95174857D01*
X105862133Y-95190921D01*
X105842920Y-95205171D01*
X105822403Y-95217468D01*
X105800779Y-95227696D01*
X105778257Y-95235754D01*
X105755053Y-95241566D01*
X105731392Y-95245076D01*
X105707500Y-95246250D01*
X104795000Y-95246250D01*
X104771108Y-95245076D01*
X104747447Y-95241566D01*
X104724243Y-95235754D01*
X104701721Y-95227696D01*
X104680097Y-95217468D01*
X104659580Y-95205171D01*
X104640367Y-95190921D01*
X104622643Y-95174857D01*
X104606579Y-95157133D01*
X104592329Y-95137920D01*
X104580032Y-95117403D01*
X104569804Y-95095779D01*
X104561746Y-95073257D01*
X104555934Y-95050053D01*
X104552424Y-95026392D01*
X104551250Y-95002500D01*
X104551250Y-94515000D01*
X104552424Y-94491108D01*
X104555934Y-94467447D01*
X104561746Y-94444243D01*
X104569804Y-94421721D01*
X104580032Y-94400097D01*
X104592329Y-94379580D01*
X104606579Y-94360367D01*
X104622643Y-94342643D01*
X104640367Y-94326579D01*
X104659580Y-94312329D01*
X104680097Y-94300032D01*
X104701721Y-94289804D01*
X104724243Y-94281746D01*
X104747447Y-94275934D01*
X104771108Y-94272424D01*
X104795000Y-94271250D01*
X105707500Y-94271250D01*
X105731392Y-94272424D01*
X105731392Y-94272424D01*
G37*
D11*
X105251250Y-94758750D03*
D12*
X156250000Y-107125000D03*
X155595001Y-107855000D03*
D13*
X154940000Y-108585000D02*
X156250002Y-107125000D01*
D12*
X161290000Y-106045000D03*
X161270000Y-106335000D03*
D13*
X161250000Y-106625000D02*
X161290000Y-106045000D01*
D12*
X156250000Y-88075000D03*
X155595001Y-88805000D03*
D13*
X154940000Y-89535000D02*
X156250002Y-88075000D01*
D12*
X161290000Y-86995000D03*
X161270000Y-87285000D03*
D13*
X161250000Y-87575000D02*
X161290000Y-86995000D01*
D12*
X137200000Y-88075000D03*
X136545001Y-88805000D03*
D13*
X135890000Y-89535000D02*
X137200002Y-88075000D01*
D12*
X142240000Y-86995000D03*
X142220000Y-87285000D03*
D13*
X142200000Y-87575000D02*
X142240000Y-86995000D01*
D10*
G36*
X95899504Y-97988704D02*
G01*
X95923773Y-97992304D01*
X95947571Y-97998265D01*
X95970671Y-98006530D01*
X95992849Y-98017020D01*
X96013893Y-98029633D01*
X96033598Y-98044247D01*
X96051777Y-98060723D01*
X96068253Y-98078902D01*
X96082867Y-98098607D01*
X96095480Y-98119651D01*
X96105970Y-98141829D01*
X96114235Y-98164929D01*
X96120196Y-98188727D01*
X96123796Y-98212996D01*
X96125000Y-98237500D01*
X96125000Y-98987500D01*
X96123796Y-99012004D01*
X96120196Y-99036273D01*
X96114235Y-99060071D01*
X96105970Y-99083171D01*
X96095480Y-99105349D01*
X96082867Y-99126393D01*
X96068253Y-99146098D01*
X96051777Y-99164277D01*
X96033598Y-99180753D01*
X96013893Y-99195367D01*
X95992849Y-99207980D01*
X95970671Y-99218470D01*
X95947571Y-99226735D01*
X95923773Y-99232696D01*
X95899504Y-99236296D01*
X95875000Y-99237500D01*
X94625000Y-99237500D01*
X94600496Y-99236296D01*
X94576227Y-99232696D01*
X94552429Y-99226735D01*
X94529329Y-99218470D01*
X94507151Y-99207980D01*
X94486107Y-99195367D01*
X94466402Y-99180753D01*
X94448223Y-99164277D01*
X94431747Y-99146098D01*
X94417133Y-99126393D01*
X94404520Y-99105349D01*
X94394030Y-99083171D01*
X94385765Y-99060071D01*
X94379804Y-99036273D01*
X94376204Y-99012004D01*
X94375000Y-98987500D01*
X94375000Y-98237500D01*
X94376204Y-98212996D01*
X94379804Y-98188727D01*
X94385765Y-98164929D01*
X94394030Y-98141829D01*
X94404520Y-98119651D01*
X94417133Y-98098607D01*
X94431747Y-98078902D01*
X94448223Y-98060723D01*
X94466402Y-98044247D01*
X94486107Y-98029633D01*
X94507151Y-98017020D01*
X94529329Y-98006530D01*
X94552429Y-97998265D01*
X94576227Y-97992304D01*
X94600496Y-97988704D01*
X94625000Y-97987500D01*
X95875000Y-97987500D01*
X95899504Y-97988704D01*
X95899504Y-97988704D01*
G37*
D14*
X95250000Y-98612500D03*
D10*
G36*
X95899504Y-100788704D02*
G01*
X95923773Y-100792304D01*
X95947571Y-100798265D01*
X95970671Y-100806530D01*
X95992849Y-100817020D01*
X96013893Y-100829633D01*
X96033598Y-100844247D01*
X96051777Y-100860723D01*
X96068253Y-100878902D01*
X96082867Y-100898607D01*
X96095480Y-100919651D01*
X96105970Y-100941829D01*
X96114235Y-100964929D01*
X96120196Y-100988727D01*
X96123796Y-101012996D01*
X96125000Y-101037500D01*
X96125000Y-101787500D01*
X96123796Y-101812004D01*
X96120196Y-101836273D01*
X96114235Y-101860071D01*
X96105970Y-101883171D01*
X96095480Y-101905349D01*
X96082867Y-101926393D01*
X96068253Y-101946098D01*
X96051777Y-101964277D01*
X96033598Y-101980753D01*
X96013893Y-101995367D01*
X95992849Y-102007980D01*
X95970671Y-102018470D01*
X95947571Y-102026735D01*
X95923773Y-102032696D01*
X95899504Y-102036296D01*
X95875000Y-102037500D01*
X94625000Y-102037500D01*
X94600496Y-102036296D01*
X94576227Y-102032696D01*
X94552429Y-102026735D01*
X94529329Y-102018470D01*
X94507151Y-102007980D01*
X94486107Y-101995367D01*
X94466402Y-101980753D01*
X94448223Y-101964277D01*
X94431747Y-101946098D01*
X94417133Y-101926393D01*
X94404520Y-101905349D01*
X94394030Y-101883171D01*
X94385765Y-101860071D01*
X94379804Y-101836273D01*
X94376204Y-101812004D01*
X94375000Y-101787500D01*
X94375000Y-101037500D01*
X94376204Y-101012996D01*
X94379804Y-100988727D01*
X94385765Y-100964929D01*
X94394030Y-100941829D01*
X94404520Y-100919651D01*
X94417133Y-100898607D01*
X94431747Y-100878902D01*
X94448223Y-100860723D01*
X94466402Y-100844247D01*
X94486107Y-100829633D01*
X94507151Y-100817020D01*
X94529329Y-100806530D01*
X94552429Y-100798265D01*
X94576227Y-100792304D01*
X94600496Y-100788704D01*
X94625000Y-100787500D01*
X95875000Y-100787500D01*
X95899504Y-100788704D01*
X95899504Y-100788704D01*
G37*
D14*
X95250000Y-101412500D03*
D21*
X166687500Y-109475000D03*
X166687500Y-112775000D03*
X147637500Y-109475000D03*
X147637500Y-112775000D03*
X166687500Y-90425000D03*
X166687500Y-93725000D03*
X147637500Y-90425000D03*
X147637500Y-93725000D03*
D10*
G36*
X107636392Y-106526174D02*
G01*
X107660053Y-106529684D01*
X107683257Y-106535496D01*
X107705779Y-106543554D01*
X107727403Y-106553782D01*
X107747920Y-106566079D01*
X107767133Y-106580329D01*
X107784857Y-106596393D01*
X107800921Y-106614117D01*
X107815171Y-106633330D01*
X107827468Y-106653847D01*
X107837696Y-106675471D01*
X107845754Y-106697993D01*
X107851566Y-106721197D01*
X107855076Y-106744858D01*
X107856250Y-106768750D01*
X107856250Y-107256250D01*
X107855076Y-107280142D01*
X107851566Y-107303803D01*
X107845754Y-107327007D01*
X107837696Y-107349529D01*
X107827468Y-107371153D01*
X107815171Y-107391670D01*
X107800921Y-107410883D01*
X107784857Y-107428607D01*
X107767133Y-107444671D01*
X107747920Y-107458921D01*
X107727403Y-107471218D01*
X107705779Y-107481446D01*
X107683257Y-107489504D01*
X107660053Y-107495316D01*
X107636392Y-107498826D01*
X107612500Y-107500000D01*
X106700000Y-107500000D01*
X106676108Y-107498826D01*
X106652447Y-107495316D01*
X106629243Y-107489504D01*
X106606721Y-107481446D01*
X106585097Y-107471218D01*
X106564580Y-107458921D01*
X106545367Y-107444671D01*
X106527643Y-107428607D01*
X106511579Y-107410883D01*
X106497329Y-107391670D01*
X106485032Y-107371153D01*
X106474804Y-107349529D01*
X106466746Y-107327007D01*
X106460934Y-107303803D01*
X106457424Y-107280142D01*
X106456250Y-107256250D01*
X106456250Y-106768750D01*
X106457424Y-106744858D01*
X106460934Y-106721197D01*
X106466746Y-106697993D01*
X106474804Y-106675471D01*
X106485032Y-106653847D01*
X106497329Y-106633330D01*
X106511579Y-106614117D01*
X106527643Y-106596393D01*
X106545367Y-106580329D01*
X106564580Y-106566079D01*
X106585097Y-106553782D01*
X106606721Y-106543554D01*
X106629243Y-106535496D01*
X106652447Y-106529684D01*
X106676108Y-106526174D01*
X106700000Y-106525000D01*
X107612500Y-106525000D01*
X107636392Y-106526174D01*
X107636392Y-106526174D01*
G37*
D11*
X107156250Y-107012500D03*
D10*
G36*
X107636392Y-108401174D02*
G01*
X107660053Y-108404684D01*
X107683257Y-108410496D01*
X107705779Y-108418554D01*
X107727403Y-108428782D01*
X107747920Y-108441079D01*
X107767133Y-108455329D01*
X107784857Y-108471393D01*
X107800921Y-108489117D01*
X107815171Y-108508330D01*
X107827468Y-108528847D01*
X107837696Y-108550471D01*
X107845754Y-108572993D01*
X107851566Y-108596197D01*
X107855076Y-108619858D01*
X107856250Y-108643750D01*
X107856250Y-109131250D01*
X107855076Y-109155142D01*
X107851566Y-109178803D01*
X107845754Y-109202007D01*
X107837696Y-109224529D01*
X107827468Y-109246153D01*
X107815171Y-109266670D01*
X107800921Y-109285883D01*
X107784857Y-109303607D01*
X107767133Y-109319671D01*
X107747920Y-109333921D01*
X107727403Y-109346218D01*
X107705779Y-109356446D01*
X107683257Y-109364504D01*
X107660053Y-109370316D01*
X107636392Y-109373826D01*
X107612500Y-109375000D01*
X106700000Y-109375000D01*
X106676108Y-109373826D01*
X106652447Y-109370316D01*
X106629243Y-109364504D01*
X106606721Y-109356446D01*
X106585097Y-109346218D01*
X106564580Y-109333921D01*
X106545367Y-109319671D01*
X106527643Y-109303607D01*
X106511579Y-109285883D01*
X106497329Y-109266670D01*
X106485032Y-109246153D01*
X106474804Y-109224529D01*
X106466746Y-109202007D01*
X106460934Y-109178803D01*
X106457424Y-109155142D01*
X106456250Y-109131250D01*
X106456250Y-108643750D01*
X106457424Y-108619858D01*
X106460934Y-108596197D01*
X106466746Y-108572993D01*
X106474804Y-108550471D01*
X106485032Y-108528847D01*
X106497329Y-108508330D01*
X106511579Y-108489117D01*
X106527643Y-108471393D01*
X106545367Y-108455329D01*
X106564580Y-108441079D01*
X106585097Y-108428782D01*
X106606721Y-108418554D01*
X106629243Y-108410496D01*
X106652447Y-108404684D01*
X106676108Y-108401174D01*
X106700000Y-108400000D01*
X107612500Y-108400000D01*
X107636392Y-108401174D01*
X107636392Y-108401174D01*
G37*
D11*
X107156250Y-108887500D03*
D10*
G36*
X122361392Y-110902424D02*
G01*
X122385053Y-110905934D01*
X122408257Y-110911746D01*
X122430779Y-110919804D01*
X122452403Y-110930032D01*
X122472920Y-110942329D01*
X122492133Y-110956579D01*
X122509857Y-110972643D01*
X122525921Y-110990367D01*
X122540171Y-111009580D01*
X122552468Y-111030097D01*
X122562696Y-111051721D01*
X122570754Y-111074243D01*
X122576566Y-111097447D01*
X122580076Y-111121108D01*
X122581250Y-111145000D01*
X122581250Y-112057500D01*
X122580076Y-112081392D01*
X122576566Y-112105053D01*
X122570754Y-112128257D01*
X122562696Y-112150779D01*
X122552468Y-112172403D01*
X122540171Y-112192920D01*
X122525921Y-112212133D01*
X122509857Y-112229857D01*
X122492133Y-112245921D01*
X122472920Y-112260171D01*
X122452403Y-112272468D01*
X122430779Y-112282696D01*
X122408257Y-112290754D01*
X122385053Y-112296566D01*
X122361392Y-112300076D01*
X122337500Y-112301250D01*
X121850000Y-112301250D01*
X121826108Y-112300076D01*
X121802447Y-112296566D01*
X121779243Y-112290754D01*
X121756721Y-112282696D01*
X121735097Y-112272468D01*
X121714580Y-112260171D01*
X121695367Y-112245921D01*
X121677643Y-112229857D01*
X121661579Y-112212133D01*
X121647329Y-112192920D01*
X121635032Y-112172403D01*
X121624804Y-112150779D01*
X121616746Y-112128257D01*
X121610934Y-112105053D01*
X121607424Y-112081392D01*
X121606250Y-112057500D01*
X121606250Y-111145000D01*
X121607424Y-111121108D01*
X121610934Y-111097447D01*
X121616746Y-111074243D01*
X121624804Y-111051721D01*
X121635032Y-111030097D01*
X121647329Y-111009580D01*
X121661579Y-110990367D01*
X121677643Y-110972643D01*
X121695367Y-110956579D01*
X121714580Y-110942329D01*
X121735097Y-110930032D01*
X121756721Y-110919804D01*
X121779243Y-110911746D01*
X121802447Y-110905934D01*
X121826108Y-110902424D01*
X121850000Y-110901250D01*
X122337500Y-110901250D01*
X122361392Y-110902424D01*
X122361392Y-110902424D01*
G37*
D11*
X122093750Y-111601250D03*
D10*
G36*
X124236392Y-110902424D02*
G01*
X124260053Y-110905934D01*
X124283257Y-110911746D01*
X124305779Y-110919804D01*
X124327403Y-110930032D01*
X124347920Y-110942329D01*
X124367133Y-110956579D01*
X124384857Y-110972643D01*
X124400921Y-110990367D01*
X124415171Y-111009580D01*
X124427468Y-111030097D01*
X124437696Y-111051721D01*
X124445754Y-111074243D01*
X124451566Y-111097447D01*
X124455076Y-111121108D01*
X124456250Y-111145000D01*
X124456250Y-112057500D01*
X124455076Y-112081392D01*
X124451566Y-112105053D01*
X124445754Y-112128257D01*
X124437696Y-112150779D01*
X124427468Y-112172403D01*
X124415171Y-112192920D01*
X124400921Y-112212133D01*
X124384857Y-112229857D01*
X124367133Y-112245921D01*
X124347920Y-112260171D01*
X124327403Y-112272468D01*
X124305779Y-112282696D01*
X124283257Y-112290754D01*
X124260053Y-112296566D01*
X124236392Y-112300076D01*
X124212500Y-112301250D01*
X123725000Y-112301250D01*
X123701108Y-112300076D01*
X123677447Y-112296566D01*
X123654243Y-112290754D01*
X123631721Y-112282696D01*
X123610097Y-112272468D01*
X123589580Y-112260171D01*
X123570367Y-112245921D01*
X123552643Y-112229857D01*
X123536579Y-112212133D01*
X123522329Y-112192920D01*
X123510032Y-112172403D01*
X123499804Y-112150779D01*
X123491746Y-112128257D01*
X123485934Y-112105053D01*
X123482424Y-112081392D01*
X123481250Y-112057500D01*
X123481250Y-111145000D01*
X123482424Y-111121108D01*
X123485934Y-111097447D01*
X123491746Y-111074243D01*
X123499804Y-111051721D01*
X123510032Y-111030097D01*
X123522329Y-111009580D01*
X123536579Y-110990367D01*
X123552643Y-110972643D01*
X123570367Y-110956579D01*
X123589580Y-110942329D01*
X123610097Y-110930032D01*
X123631721Y-110919804D01*
X123654243Y-110911746D01*
X123677447Y-110905934D01*
X123701108Y-110902424D01*
X123725000Y-110901250D01*
X124212500Y-110901250D01*
X124236392Y-110902424D01*
X124236392Y-110902424D01*
G37*
D11*
X123968750Y-111601250D03*
D10*
G36*
X128591392Y-94937424D02*
G01*
X128615053Y-94940934D01*
X128638257Y-94946746D01*
X128660779Y-94954804D01*
X128682403Y-94965032D01*
X128702920Y-94977329D01*
X128722133Y-94991579D01*
X128739857Y-95007643D01*
X128755921Y-95025367D01*
X128770171Y-95044580D01*
X128782468Y-95065097D01*
X128792696Y-95086721D01*
X128800754Y-95109243D01*
X128806566Y-95132447D01*
X128810076Y-95156108D01*
X128811250Y-95180000D01*
X128811250Y-95667500D01*
X128810076Y-95691392D01*
X128806566Y-95715053D01*
X128800754Y-95738257D01*
X128792696Y-95760779D01*
X128782468Y-95782403D01*
X128770171Y-95802920D01*
X128755921Y-95822133D01*
X128739857Y-95839857D01*
X128722133Y-95855921D01*
X128702920Y-95870171D01*
X128682403Y-95882468D01*
X128660779Y-95892696D01*
X128638257Y-95900754D01*
X128615053Y-95906566D01*
X128591392Y-95910076D01*
X128567500Y-95911250D01*
X127655000Y-95911250D01*
X127631108Y-95910076D01*
X127607447Y-95906566D01*
X127584243Y-95900754D01*
X127561721Y-95892696D01*
X127540097Y-95882468D01*
X127519580Y-95870171D01*
X127500367Y-95855921D01*
X127482643Y-95839857D01*
X127466579Y-95822133D01*
X127452329Y-95802920D01*
X127440032Y-95782403D01*
X127429804Y-95760779D01*
X127421746Y-95738257D01*
X127415934Y-95715053D01*
X127412424Y-95691392D01*
X127411250Y-95667500D01*
X127411250Y-95180000D01*
X127412424Y-95156108D01*
X127415934Y-95132447D01*
X127421746Y-95109243D01*
X127429804Y-95086721D01*
X127440032Y-95065097D01*
X127452329Y-95044580D01*
X127466579Y-95025367D01*
X127482643Y-95007643D01*
X127500367Y-94991579D01*
X127519580Y-94977329D01*
X127540097Y-94965032D01*
X127561721Y-94954804D01*
X127584243Y-94946746D01*
X127607447Y-94940934D01*
X127631108Y-94937424D01*
X127655000Y-94936250D01*
X128567500Y-94936250D01*
X128591392Y-94937424D01*
X128591392Y-94937424D01*
G37*
D11*
X128111250Y-95423750D03*
D10*
G36*
X128591392Y-96812424D02*
G01*
X128615053Y-96815934D01*
X128638257Y-96821746D01*
X128660779Y-96829804D01*
X128682403Y-96840032D01*
X128702920Y-96852329D01*
X128722133Y-96866579D01*
X128739857Y-96882643D01*
X128755921Y-96900367D01*
X128770171Y-96919580D01*
X128782468Y-96940097D01*
X128792696Y-96961721D01*
X128800754Y-96984243D01*
X128806566Y-97007447D01*
X128810076Y-97031108D01*
X128811250Y-97055000D01*
X128811250Y-97542500D01*
X128810076Y-97566392D01*
X128806566Y-97590053D01*
X128800754Y-97613257D01*
X128792696Y-97635779D01*
X128782468Y-97657403D01*
X128770171Y-97677920D01*
X128755921Y-97697133D01*
X128739857Y-97714857D01*
X128722133Y-97730921D01*
X128702920Y-97745171D01*
X128682403Y-97757468D01*
X128660779Y-97767696D01*
X128638257Y-97775754D01*
X128615053Y-97781566D01*
X128591392Y-97785076D01*
X128567500Y-97786250D01*
X127655000Y-97786250D01*
X127631108Y-97785076D01*
X127607447Y-97781566D01*
X127584243Y-97775754D01*
X127561721Y-97767696D01*
X127540097Y-97757468D01*
X127519580Y-97745171D01*
X127500367Y-97730921D01*
X127482643Y-97714857D01*
X127466579Y-97697133D01*
X127452329Y-97677920D01*
X127440032Y-97657403D01*
X127429804Y-97635779D01*
X127421746Y-97613257D01*
X127415934Y-97590053D01*
X127412424Y-97566392D01*
X127411250Y-97542500D01*
X127411250Y-97055000D01*
X127412424Y-97031108D01*
X127415934Y-97007447D01*
X127421746Y-96984243D01*
X127429804Y-96961721D01*
X127440032Y-96940097D01*
X127452329Y-96919580D01*
X127466579Y-96900367D01*
X127482643Y-96882643D01*
X127500367Y-96866579D01*
X127519580Y-96852329D01*
X127540097Y-96840032D01*
X127561721Y-96829804D01*
X127584243Y-96821746D01*
X127607447Y-96815934D01*
X127631108Y-96812424D01*
X127655000Y-96811250D01*
X128567500Y-96811250D01*
X128591392Y-96812424D01*
X128591392Y-96812424D01*
G37*
D11*
X128111250Y-97298750D03*
D10*
G36*
X108073892Y-100901174D02*
G01*
X108097553Y-100904684D01*
X108120757Y-100910496D01*
X108143279Y-100918554D01*
X108164903Y-100928782D01*
X108185420Y-100941079D01*
X108204633Y-100955329D01*
X108222357Y-100971393D01*
X108238421Y-100989117D01*
X108252671Y-101008330D01*
X108264968Y-101028847D01*
X108275196Y-101050471D01*
X108283254Y-101072993D01*
X108289066Y-101096197D01*
X108292576Y-101119858D01*
X108293750Y-101143750D01*
X108293750Y-102056250D01*
X108292576Y-102080142D01*
X108289066Y-102103803D01*
X108283254Y-102127007D01*
X108275196Y-102149529D01*
X108264968Y-102171153D01*
X108252671Y-102191670D01*
X108238421Y-102210883D01*
X108222357Y-102228607D01*
X108204633Y-102244671D01*
X108185420Y-102258921D01*
X108164903Y-102271218D01*
X108143279Y-102281446D01*
X108120757Y-102289504D01*
X108097553Y-102295316D01*
X108073892Y-102298826D01*
X108050000Y-102300000D01*
X107562500Y-102300000D01*
X107538608Y-102298826D01*
X107514947Y-102295316D01*
X107491743Y-102289504D01*
X107469221Y-102281446D01*
X107447597Y-102271218D01*
X107427080Y-102258921D01*
X107407867Y-102244671D01*
X107390143Y-102228607D01*
X107374079Y-102210883D01*
X107359829Y-102191670D01*
X107347532Y-102171153D01*
X107337304Y-102149529D01*
X107329246Y-102127007D01*
X107323434Y-102103803D01*
X107319924Y-102080142D01*
X107318750Y-102056250D01*
X107318750Y-101143750D01*
X107319924Y-101119858D01*
X107323434Y-101096197D01*
X107329246Y-101072993D01*
X107337304Y-101050471D01*
X107347532Y-101028847D01*
X107359829Y-101008330D01*
X107374079Y-100989117D01*
X107390143Y-100971393D01*
X107407867Y-100955329D01*
X107427080Y-100941079D01*
X107447597Y-100928782D01*
X107469221Y-100918554D01*
X107491743Y-100910496D01*
X107514947Y-100904684D01*
X107538608Y-100901174D01*
X107562500Y-100900000D01*
X108050000Y-100900000D01*
X108073892Y-100901174D01*
X108073892Y-100901174D01*
G37*
D11*
X107806250Y-101600000D03*
D10*
G36*
X109948892Y-100901174D02*
G01*
X109972553Y-100904684D01*
X109995757Y-100910496D01*
X110018279Y-100918554D01*
X110039903Y-100928782D01*
X110060420Y-100941079D01*
X110079633Y-100955329D01*
X110097357Y-100971393D01*
X110113421Y-100989117D01*
X110127671Y-101008330D01*
X110139968Y-101028847D01*
X110150196Y-101050471D01*
X110158254Y-101072993D01*
X110164066Y-101096197D01*
X110167576Y-101119858D01*
X110168750Y-101143750D01*
X110168750Y-102056250D01*
X110167576Y-102080142D01*
X110164066Y-102103803D01*
X110158254Y-102127007D01*
X110150196Y-102149529D01*
X110139968Y-102171153D01*
X110127671Y-102191670D01*
X110113421Y-102210883D01*
X110097357Y-102228607D01*
X110079633Y-102244671D01*
X110060420Y-102258921D01*
X110039903Y-102271218D01*
X110018279Y-102281446D01*
X109995757Y-102289504D01*
X109972553Y-102295316D01*
X109948892Y-102298826D01*
X109925000Y-102300000D01*
X109437500Y-102300000D01*
X109413608Y-102298826D01*
X109389947Y-102295316D01*
X109366743Y-102289504D01*
X109344221Y-102281446D01*
X109322597Y-102271218D01*
X109302080Y-102258921D01*
X109282867Y-102244671D01*
X109265143Y-102228607D01*
X109249079Y-102210883D01*
X109234829Y-102191670D01*
X109222532Y-102171153D01*
X109212304Y-102149529D01*
X109204246Y-102127007D01*
X109198434Y-102103803D01*
X109194924Y-102080142D01*
X109193750Y-102056250D01*
X109193750Y-101143750D01*
X109194924Y-101119858D01*
X109198434Y-101096197D01*
X109204246Y-101072993D01*
X109212304Y-101050471D01*
X109222532Y-101028847D01*
X109234829Y-101008330D01*
X109249079Y-100989117D01*
X109265143Y-100971393D01*
X109282867Y-100955329D01*
X109302080Y-100941079D01*
X109322597Y-100928782D01*
X109344221Y-100918554D01*
X109366743Y-100910496D01*
X109389947Y-100904684D01*
X109413608Y-100901174D01*
X109437500Y-100900000D01*
X109925000Y-100900000D01*
X109948892Y-100901174D01*
X109948892Y-100901174D01*
G37*
D11*
X109681250Y-101600000D03*
D10*
G36*
X113351392Y-89192424D02*
G01*
X113375053Y-89195934D01*
X113398257Y-89201746D01*
X113420779Y-89209804D01*
X113442403Y-89220032D01*
X113462920Y-89232329D01*
X113482133Y-89246579D01*
X113499857Y-89262643D01*
X113515921Y-89280367D01*
X113530171Y-89299580D01*
X113542468Y-89320097D01*
X113552696Y-89341721D01*
X113560754Y-89364243D01*
X113566566Y-89387447D01*
X113570076Y-89411108D01*
X113571250Y-89435000D01*
X113571250Y-89922500D01*
X113570076Y-89946392D01*
X113566566Y-89970053D01*
X113560754Y-89993257D01*
X113552696Y-90015779D01*
X113542468Y-90037403D01*
X113530171Y-90057920D01*
X113515921Y-90077133D01*
X113499857Y-90094857D01*
X113482133Y-90110921D01*
X113462920Y-90125171D01*
X113442403Y-90137468D01*
X113420779Y-90147696D01*
X113398257Y-90155754D01*
X113375053Y-90161566D01*
X113351392Y-90165076D01*
X113327500Y-90166250D01*
X112415000Y-90166250D01*
X112391108Y-90165076D01*
X112367447Y-90161566D01*
X112344243Y-90155754D01*
X112321721Y-90147696D01*
X112300097Y-90137468D01*
X112279580Y-90125171D01*
X112260367Y-90110921D01*
X112242643Y-90094857D01*
X112226579Y-90077133D01*
X112212329Y-90057920D01*
X112200032Y-90037403D01*
X112189804Y-90015779D01*
X112181746Y-89993257D01*
X112175934Y-89970053D01*
X112172424Y-89946392D01*
X112171250Y-89922500D01*
X112171250Y-89435000D01*
X112172424Y-89411108D01*
X112175934Y-89387447D01*
X112181746Y-89364243D01*
X112189804Y-89341721D01*
X112200032Y-89320097D01*
X112212329Y-89299580D01*
X112226579Y-89280367D01*
X112242643Y-89262643D01*
X112260367Y-89246579D01*
X112279580Y-89232329D01*
X112300097Y-89220032D01*
X112321721Y-89209804D01*
X112344243Y-89201746D01*
X112367447Y-89195934D01*
X112391108Y-89192424D01*
X112415000Y-89191250D01*
X113327500Y-89191250D01*
X113351392Y-89192424D01*
X113351392Y-89192424D01*
G37*
D11*
X112871250Y-89678750D03*
D10*
G36*
X113351392Y-87317424D02*
G01*
X113375053Y-87320934D01*
X113398257Y-87326746D01*
X113420779Y-87334804D01*
X113442403Y-87345032D01*
X113462920Y-87357329D01*
X113482133Y-87371579D01*
X113499857Y-87387643D01*
X113515921Y-87405367D01*
X113530171Y-87424580D01*
X113542468Y-87445097D01*
X113552696Y-87466721D01*
X113560754Y-87489243D01*
X113566566Y-87512447D01*
X113570076Y-87536108D01*
X113571250Y-87560000D01*
X113571250Y-88047500D01*
X113570076Y-88071392D01*
X113566566Y-88095053D01*
X113560754Y-88118257D01*
X113552696Y-88140779D01*
X113542468Y-88162403D01*
X113530171Y-88182920D01*
X113515921Y-88202133D01*
X113499857Y-88219857D01*
X113482133Y-88235921D01*
X113462920Y-88250171D01*
X113442403Y-88262468D01*
X113420779Y-88272696D01*
X113398257Y-88280754D01*
X113375053Y-88286566D01*
X113351392Y-88290076D01*
X113327500Y-88291250D01*
X112415000Y-88291250D01*
X112391108Y-88290076D01*
X112367447Y-88286566D01*
X112344243Y-88280754D01*
X112321721Y-88272696D01*
X112300097Y-88262468D01*
X112279580Y-88250171D01*
X112260367Y-88235921D01*
X112242643Y-88219857D01*
X112226579Y-88202133D01*
X112212329Y-88182920D01*
X112200032Y-88162403D01*
X112189804Y-88140779D01*
X112181746Y-88118257D01*
X112175934Y-88095053D01*
X112172424Y-88071392D01*
X112171250Y-88047500D01*
X112171250Y-87560000D01*
X112172424Y-87536108D01*
X112175934Y-87512447D01*
X112181746Y-87489243D01*
X112189804Y-87466721D01*
X112200032Y-87445097D01*
X112212329Y-87424580D01*
X112226579Y-87405367D01*
X112242643Y-87387643D01*
X112260367Y-87371579D01*
X112279580Y-87357329D01*
X112300097Y-87345032D01*
X112321721Y-87334804D01*
X112344243Y-87326746D01*
X112367447Y-87320934D01*
X112391108Y-87317424D01*
X112415000Y-87316250D01*
X113327500Y-87316250D01*
X113351392Y-87317424D01*
X113351392Y-87317424D01*
G37*
D11*
X112871250Y-87803750D03*
D10*
G36*
X123511392Y-87317424D02*
G01*
X123535053Y-87320934D01*
X123558257Y-87326746D01*
X123580779Y-87334804D01*
X123602403Y-87345032D01*
X123622920Y-87357329D01*
X123642133Y-87371579D01*
X123659857Y-87387643D01*
X123675921Y-87405367D01*
X123690171Y-87424580D01*
X123702468Y-87445097D01*
X123712696Y-87466721D01*
X123720754Y-87489243D01*
X123726566Y-87512447D01*
X123730076Y-87536108D01*
X123731250Y-87560000D01*
X123731250Y-88047500D01*
X123730076Y-88071392D01*
X123726566Y-88095053D01*
X123720754Y-88118257D01*
X123712696Y-88140779D01*
X123702468Y-88162403D01*
X123690171Y-88182920D01*
X123675921Y-88202133D01*
X123659857Y-88219857D01*
X123642133Y-88235921D01*
X123622920Y-88250171D01*
X123602403Y-88262468D01*
X123580779Y-88272696D01*
X123558257Y-88280754D01*
X123535053Y-88286566D01*
X123511392Y-88290076D01*
X123487500Y-88291250D01*
X122575000Y-88291250D01*
X122551108Y-88290076D01*
X122527447Y-88286566D01*
X122504243Y-88280754D01*
X122481721Y-88272696D01*
X122460097Y-88262468D01*
X122439580Y-88250171D01*
X122420367Y-88235921D01*
X122402643Y-88219857D01*
X122386579Y-88202133D01*
X122372329Y-88182920D01*
X122360032Y-88162403D01*
X122349804Y-88140779D01*
X122341746Y-88118257D01*
X122335934Y-88095053D01*
X122332424Y-88071392D01*
X122331250Y-88047500D01*
X122331250Y-87560000D01*
X122332424Y-87536108D01*
X122335934Y-87512447D01*
X122341746Y-87489243D01*
X122349804Y-87466721D01*
X122360032Y-87445097D01*
X122372329Y-87424580D01*
X122386579Y-87405367D01*
X122402643Y-87387643D01*
X122420367Y-87371579D01*
X122439580Y-87357329D01*
X122460097Y-87345032D01*
X122481721Y-87334804D01*
X122504243Y-87326746D01*
X122527447Y-87320934D01*
X122551108Y-87317424D01*
X122575000Y-87316250D01*
X123487500Y-87316250D01*
X123511392Y-87317424D01*
X123511392Y-87317424D01*
G37*
D11*
X123031250Y-87803750D03*
D10*
G36*
X123511392Y-89192424D02*
G01*
X123535053Y-89195934D01*
X123558257Y-89201746D01*
X123580779Y-89209804D01*
X123602403Y-89220032D01*
X123622920Y-89232329D01*
X123642133Y-89246579D01*
X123659857Y-89262643D01*
X123675921Y-89280367D01*
X123690171Y-89299580D01*
X123702468Y-89320097D01*
X123712696Y-89341721D01*
X123720754Y-89364243D01*
X123726566Y-89387447D01*
X123730076Y-89411108D01*
X123731250Y-89435000D01*
X123731250Y-89922500D01*
X123730076Y-89946392D01*
X123726566Y-89970053D01*
X123720754Y-89993257D01*
X123712696Y-90015779D01*
X123702468Y-90037403D01*
X123690171Y-90057920D01*
X123675921Y-90077133D01*
X123659857Y-90094857D01*
X123642133Y-90110921D01*
X123622920Y-90125171D01*
X123602403Y-90137468D01*
X123580779Y-90147696D01*
X123558257Y-90155754D01*
X123535053Y-90161566D01*
X123511392Y-90165076D01*
X123487500Y-90166250D01*
X122575000Y-90166250D01*
X122551108Y-90165076D01*
X122527447Y-90161566D01*
X122504243Y-90155754D01*
X122481721Y-90147696D01*
X122460097Y-90137468D01*
X122439580Y-90125171D01*
X122420367Y-90110921D01*
X122402643Y-90094857D01*
X122386579Y-90077133D01*
X122372329Y-90057920D01*
X122360032Y-90037403D01*
X122349804Y-90015779D01*
X122341746Y-89993257D01*
X122335934Y-89970053D01*
X122332424Y-89946392D01*
X122331250Y-89922500D01*
X122331250Y-89435000D01*
X122332424Y-89411108D01*
X122335934Y-89387447D01*
X122341746Y-89364243D01*
X122349804Y-89341721D01*
X122360032Y-89320097D01*
X122372329Y-89299580D01*
X122386579Y-89280367D01*
X122402643Y-89262643D01*
X122420367Y-89246579D01*
X122439580Y-89232329D01*
X122460097Y-89220032D01*
X122481721Y-89209804D01*
X122504243Y-89201746D01*
X122527447Y-89195934D01*
X122551108Y-89192424D01*
X122575000Y-89191250D01*
X123487500Y-89191250D01*
X123511392Y-89192424D01*
X123511392Y-89192424D01*
G37*
D11*
X123031250Y-89678750D03*
D22*
X106362500Y-101600000D03*
X108743750Y-106362500D03*
X125412500Y-111918750D03*
X130175000Y-97631250D03*
X110331250Y-104775000D03*
X105568750Y-96837500D03*
X110331250Y-94846260D03*
X103187500Y-111918750D03*
X103187500Y-92868750D03*
D23*
X112871250Y-89678750D02*
X116351250Y-93158750D01*
X119138750Y-87803750D02*
X119051250Y-87891250D01*
X123031250Y-87803750D02*
X119138750Y-87803750D01*
X117154152Y-89591250D02*
X116851250Y-89591250D01*
X118854152Y-87891250D02*
X117154152Y-89591250D01*
X119051250Y-87891250D02*
X118854152Y-87891250D01*
X111125000Y-89663750D02*
X111125000Y-86518750D01*
X119051250Y-86530000D02*
X119051250Y-87891250D01*
X111140000Y-89678750D02*
X111125000Y-89663750D01*
X111125000Y-86518750D02*
X119062500Y-86518750D01*
X119062500Y-86518750D02*
X119051250Y-86530000D01*
X112871250Y-89678750D02*
X111140000Y-89678750D01*
X116351250Y-96872250D02*
X116351250Y-95741250D01*
X116920250Y-97441250D02*
X116351250Y-96872250D01*
X114751250Y-106010250D02*
X114751250Y-107141250D01*
X113382250Y-102241250D02*
X114751250Y-103610250D01*
X112251250Y-102241250D02*
X113382250Y-102241250D01*
X121151250Y-97543750D02*
X121253750Y-97441250D01*
X123651250Y-97441250D02*
X121253750Y-97441250D01*
X121253750Y-97441250D02*
X116920250Y-97441250D01*
X114910000Y-104482500D02*
X114751250Y-104323750D01*
X121151250Y-104482500D02*
X114910000Y-104482500D01*
X114751250Y-103610250D02*
X114751250Y-104323750D01*
X121151250Y-104482500D02*
X121151250Y-97543750D01*
X122399152Y-105861250D02*
X121151250Y-105861250D01*
X123837902Y-107300000D02*
X122399152Y-105861250D01*
X127793750Y-107300000D02*
X123837902Y-107300000D01*
X121151250Y-107141250D02*
X121151250Y-105861250D01*
X121151250Y-105861250D02*
X121151250Y-104482500D01*
X114751250Y-104323750D02*
X114751250Y-105911250D01*
X114751250Y-105911250D02*
X114751250Y-106010250D01*
X113453348Y-105911250D02*
X114751250Y-105911250D01*
X112352098Y-107012500D02*
X113453348Y-105911250D01*
X121537513Y-112157487D02*
X122093750Y-111601250D01*
X115810749Y-117884251D02*
X121537513Y-112157487D01*
X99134001Y-117884251D02*
X115810749Y-117884251D01*
X98193500Y-116943750D02*
X99134001Y-117884251D01*
X96912500Y-116943750D02*
X98193500Y-116943750D01*
X121151250Y-110658750D02*
X121151250Y-107141250D01*
X122093750Y-111601250D02*
X121151250Y-110658750D01*
X126093750Y-97441250D02*
X128111250Y-95423750D01*
X123651250Y-97441250D02*
X126093750Y-97441250D01*
X116351250Y-93158750D02*
X116351250Y-95741250D01*
X109531250Y-91931250D02*
X110331250Y-91931250D01*
X102443750Y-91931250D02*
X109531250Y-91931250D01*
X100025000Y-89512500D02*
X102443750Y-91931250D01*
X100025000Y-88637500D02*
X100025000Y-89512500D01*
X116216751Y-95606751D02*
X116351250Y-95741250D01*
X116216751Y-94454079D02*
X116216751Y-95606751D01*
X115384176Y-93621504D02*
X116216751Y-94454079D01*
X110331250Y-91931250D02*
X112021503Y-93621503D01*
X112021503Y-93621503D02*
X115384176Y-93621504D01*
X107806250Y-101600000D02*
X106362500Y-101600000D01*
X108828065Y-107012500D02*
X108887500Y-107012500D01*
X108743750Y-106928185D02*
X108828065Y-107012500D01*
X108743750Y-106362500D02*
X108743750Y-106928185D01*
X107156250Y-107012500D02*
X108887500Y-107012500D01*
X108887500Y-107012500D02*
X112352098Y-107012500D01*
D24*
X117951250Y-94737250D02*
X117951250Y-95741250D01*
X117951250Y-91545250D02*
X117951250Y-94737250D01*
X119051250Y-90445250D02*
X117951250Y-91545250D01*
X119051250Y-89591250D02*
X119051250Y-90445250D01*
X122943750Y-89591250D02*
X123031250Y-89678750D01*
X119051250Y-89591250D02*
X122943750Y-89591250D01*
X112958750Y-87891250D02*
X112871250Y-87803750D01*
X116851250Y-87891250D02*
X112958750Y-87891250D01*
X116851250Y-87891250D02*
X115897250Y-87891250D01*
X116953251Y-95543251D02*
X117151250Y-95741250D01*
X116953251Y-93028883D02*
X116953251Y-95543251D01*
X115824249Y-91899881D02*
X116953251Y-93028883D01*
X115897250Y-87891250D02*
X115824249Y-87964251D01*
X115824249Y-87964251D02*
X115824249Y-91899881D01*
X112092500Y-101600000D02*
X112251250Y-101441250D01*
X109681250Y-101600000D02*
X112092500Y-101600000D01*
D23*
X122607250Y-107141250D02*
X121951250Y-107141250D01*
X123968750Y-108502750D02*
X122607250Y-107141250D01*
X123968750Y-111601250D02*
X123968750Y-108502750D01*
X123968750Y-111601250D02*
X125095000Y-111601250D01*
X125095000Y-111601250D02*
X125412500Y-111918750D01*
X128443750Y-97631250D02*
X128111250Y-97298750D01*
X130175000Y-97631250D02*
X128443750Y-97631250D01*
X124782250Y-98241250D02*
X123651250Y-98241250D01*
X126368750Y-98241250D02*
X124782250Y-98241250D01*
X127311250Y-97298750D02*
X126368750Y-98241250D01*
X128111250Y-97298750D02*
X127311250Y-97298750D01*
X107796770Y-104775000D02*
X110331250Y-104775000D01*
X106065740Y-106506030D02*
X107796770Y-104775000D01*
X107156250Y-108887500D02*
X106065740Y-107796990D01*
X106065740Y-107796990D02*
X106065740Y-106506030D01*
X110465000Y-104641250D02*
X110331250Y-104775000D01*
X112251250Y-104641250D02*
X110465000Y-104641250D01*
X105251250Y-94758750D02*
X105251250Y-96520000D01*
X105251250Y-96520000D02*
X105568750Y-96837500D01*
X113951250Y-107616250D02*
X113951250Y-107141250D01*
X112680000Y-108887500D02*
X113951250Y-107616250D01*
X107156250Y-108887500D02*
X112680000Y-108887500D01*
X106550000Y-97818750D02*
X105568750Y-96837500D01*
X106550000Y-99218750D02*
X106550000Y-97818750D01*
X104774780Y-106506030D02*
X106065740Y-106506030D01*
X99681250Y-101412500D02*
X104774780Y-106506030D01*
X95250000Y-101412500D02*
X99681250Y-101412500D01*
X110331250Y-94846260D02*
X110331250Y-93806250D01*
X115551250Y-94610250D02*
X115551250Y-95741250D01*
X115541749Y-94600749D02*
X115551250Y-94610250D01*
X112179077Y-94600749D02*
X115541749Y-94600749D01*
X111384578Y-93806250D02*
X112179077Y-94600749D01*
X110331250Y-93806250D02*
X111384578Y-93806250D01*
D24*
X145670000Y-90425000D02*
X142240000Y-86995000D01*
X147637500Y-90425000D02*
X145670000Y-90425000D01*
X148491500Y-93725000D02*
X147637500Y-93725000D01*
X149162401Y-94395901D02*
X148491500Y-93725000D01*
X165162599Y-94395901D02*
X149162401Y-94395901D01*
X165833500Y-93725000D02*
X165162599Y-94395901D01*
X166687500Y-93725000D02*
X165833500Y-93725000D01*
X147637500Y-94429000D02*
X147637500Y-93725000D01*
X141425250Y-100641250D02*
X147637500Y-94429000D01*
X123651250Y-100641250D02*
X141425250Y-100641250D01*
X164720000Y-90425000D02*
X161290000Y-86995000D01*
X166687500Y-90425000D02*
X164720000Y-90425000D01*
X142820000Y-106625000D02*
X142200000Y-106625000D01*
X145670000Y-109475000D02*
X142820000Y-106625000D01*
X147637500Y-109475000D02*
X145670000Y-109475000D01*
X166537500Y-112775000D02*
X166687500Y-112775000D01*
X165833500Y-113479000D02*
X166537500Y-112775000D01*
X149195500Y-113479000D02*
X165833500Y-113479000D01*
X148491500Y-112775000D02*
X149195500Y-113479000D01*
X147637500Y-112775000D02*
X148491500Y-112775000D01*
X147487500Y-112775000D02*
X147637500Y-112775000D01*
X146783500Y-113479000D02*
X147487500Y-112775000D01*
X133085000Y-113479000D02*
X146783500Y-113479000D01*
X132381000Y-112775000D02*
X133085000Y-113479000D01*
X132381000Y-108505072D02*
X132381000Y-112775000D01*
X126917178Y-103041250D02*
X132381000Y-108505072D01*
X123651250Y-103041250D02*
X126917178Y-103041250D01*
X161870000Y-106625000D02*
X161250000Y-106625000D01*
X164720000Y-109475000D02*
X161870000Y-106625000D01*
X166687500Y-109475000D02*
X164720000Y-109475000D01*
D23*
X94554290Y-94204980D02*
X94554290Y-97916790D01*
X96015510Y-92743760D02*
X94554290Y-94204980D01*
X96015510Y-88815990D02*
X96015510Y-92743760D01*
X96194000Y-88637500D02*
X96015510Y-88815990D01*
X96825000Y-88637500D02*
X96194000Y-88637500D01*
X110772500Y-100641250D02*
X112251250Y-100641250D01*
X109350000Y-99218750D02*
X110772500Y-100641250D01*
X108654290Y-99914460D02*
X109350000Y-99218750D01*
X108084490Y-100484260D02*
X108654290Y-99914460D01*
X105909690Y-100484260D02*
X108084490Y-100484260D01*
X100734920Y-95309490D02*
X105909690Y-100484260D01*
X95324780Y-95309490D02*
X100734920Y-95309490D01*
X94554290Y-96079980D02*
X95324780Y-95309490D01*
X94554290Y-97916790D02*
X94554290Y-96079980D01*
X95250000Y-98612500D02*
X94554290Y-97916790D01*
D24*
X129546250Y-102241250D02*
X135890000Y-108585000D01*
X123651250Y-102241250D02*
X129546250Y-102241250D01*
X147796250Y-101441250D02*
X154940000Y-108585000D01*
X123651250Y-101441250D02*
X147796250Y-101441250D01*
X107940760Y-95573260D02*
X105807487Y-93439987D01*
X105807487Y-93439987D02*
X105251250Y-92883750D01*
X111023918Y-95573260D02*
X107940760Y-95573260D01*
X112268909Y-96818251D02*
X111023918Y-95573260D01*
X114487851Y-96818251D02*
X112268909Y-96818251D01*
X114751250Y-96554852D02*
X114487851Y-96818251D01*
X114751250Y-95741250D02*
X114751250Y-96554852D01*
X103112500Y-113243750D02*
X103112500Y-111993750D01*
X103112500Y-111993750D02*
X103187500Y-111918750D01*
X105236250Y-92868750D02*
X105251250Y-92883750D01*
X103187500Y-92868750D02*
X105236250Y-92868750D01*
X98425000Y-93518750D02*
X99218750Y-94312500D01*
X98425000Y-88637500D02*
X98425000Y-93518750D01*
X112251250Y-103041250D02*
X105568750Y-103187500D01*
X99218750Y-97920434D02*
X99218750Y-96187500D01*
X104775000Y-103187500D02*
X99218750Y-97920434D01*
X105568750Y-103187500D02*
X104775000Y-103187500D01*
X97625000Y-92731250D02*
X97625000Y-88637500D01*
X96043750Y-94312500D02*
X97625000Y-92731250D01*
X111247250Y-103841250D02*
X112251250Y-103841250D01*
X104497500Y-103841250D02*
X111247250Y-103841250D01*
X96843750Y-96187500D02*
X104497500Y-103841250D01*
X96043750Y-96187500D02*
X96843750Y-96187500D01*
X123667500Y-105425000D02*
X123651250Y-105441250D01*
X127793750Y-105425000D02*
X123667500Y-105425000D01*
X94775000Y-88637500D02*
X94775000Y-84137500D01*
X94775000Y-84137500D02*
X102075000Y-84137500D01*
X102075000Y-84137500D02*
X102075000Y-88637500D01*
G36*
X93290000Y-83564550D02*
G01*
X93290000Y-84710449D01*
X93311487Y-84928610D01*
X93396401Y-85208533D01*
X93534294Y-85466513D01*
X93719866Y-85692634D01*
X93945986Y-85878206D01*
X94013001Y-85914026D01*
X94013000Y-86860975D01*
X93945987Y-86896794D01*
X93719867Y-87082366D01*
X93534294Y-87308486D01*
X93396401Y-87566466D01*
X93311487Y-87846389D01*
X93290000Y-88064550D01*
X93290000Y-89210449D01*
X93311487Y-89428610D01*
X93396401Y-89708533D01*
X93534294Y-89966513D01*
X93719866Y-90192634D01*
X93945986Y-90378206D01*
X94203966Y-90516099D01*
X94483889Y-90601013D01*
X94775000Y-90629685D01*
X95066110Y-90601013D01*
X95190010Y-90563428D01*
X95190011Y-92401826D01*
X93999256Y-93592582D01*
X93967749Y-93618439D01*
X93900566Y-93700303D01*
X93864591Y-93744138D01*
X93816347Y-93834396D01*
X93787937Y-93887547D01*
X93740734Y-94043155D01*
X93730269Y-94149409D01*
X93724796Y-94204980D01*
X93728790Y-94245531D01*
X93728790Y-96039425D01*
X93724796Y-96079980D01*
X93728791Y-96120540D01*
X93728790Y-97876239D01*
X93724796Y-97916790D01*
X93728790Y-97957340D01*
X93728790Y-97957342D01*
X93740734Y-98078615D01*
X93749674Y-98108087D01*
X93736928Y-98237500D01*
X93736928Y-98987500D01*
X93753992Y-99160754D01*
X93804528Y-99327350D01*
X93886595Y-99480886D01*
X93997038Y-99615462D01*
X94131614Y-99725905D01*
X94285150Y-99807972D01*
X94451746Y-99858508D01*
X94625000Y-99875572D01*
X95875000Y-99875572D01*
X96048254Y-99858508D01*
X96214850Y-99807972D01*
X96368386Y-99725905D01*
X96502962Y-99615462D01*
X96613405Y-99480886D01*
X96695472Y-99327350D01*
X96746008Y-99160754D01*
X96763072Y-98987500D01*
X96763072Y-98237500D01*
X96746008Y-98064246D01*
X96695472Y-97897650D01*
X96613405Y-97744114D01*
X96502962Y-97609538D01*
X96368386Y-97499095D01*
X96214850Y-97417028D01*
X96048254Y-97366492D01*
X95875000Y-97349428D01*
X95379790Y-97349428D01*
X95379790Y-97285306D01*
X95415465Y-97296128D01*
X95587500Y-97313072D01*
X96500000Y-97313072D01*
X96672035Y-97296128D01*
X96827567Y-97248948D01*
X103932221Y-104353602D01*
X103956078Y-104382672D01*
X104072108Y-104477895D01*
X104204485Y-104548652D01*
X104348122Y-104592224D01*
X104460074Y-104603250D01*
X104460076Y-104603250D01*
X104497499Y-104606936D01*
X104534922Y-104603250D01*
X106801087Y-104603250D01*
X105723808Y-105680530D01*
X105116713Y-105680530D01*
X100293648Y-100857466D01*
X100267791Y-100825959D01*
X100142092Y-100722801D01*
X99998684Y-100646147D01*
X99843076Y-100598944D01*
X99721803Y-100587000D01*
X99721800Y-100587000D01*
X99681250Y-100583006D01*
X99640700Y-100587000D01*
X96636328Y-100587000D01*
X96613405Y-100544114D01*
X96502962Y-100409538D01*
X96368386Y-100299095D01*
X96214850Y-100217028D01*
X96048254Y-100166492D01*
X95875000Y-100149428D01*
X94625000Y-100149428D01*
X94451746Y-100166492D01*
X94285150Y-100217028D01*
X94131614Y-100299095D01*
X93997038Y-100409538D01*
X93886595Y-100544114D01*
X93804528Y-100697650D01*
X93753992Y-100864246D01*
X93736928Y-101037500D01*
X93736928Y-101787500D01*
X93753992Y-101960754D01*
X93804528Y-102127350D01*
X93886595Y-102280886D01*
X93997038Y-102415462D01*
X94131614Y-102525905D01*
X94285150Y-102607972D01*
X94451746Y-102658508D01*
X94625000Y-102675572D01*
X95875000Y-102675572D01*
X96048254Y-102658508D01*
X96214850Y-102607972D01*
X96368386Y-102525905D01*
X96502962Y-102415462D01*
X96613405Y-102280886D01*
X96636328Y-102238000D01*
X99339318Y-102238000D01*
X104162387Y-107061070D01*
X104188239Y-107092571D01*
X104247555Y-107141250D01*
X104313937Y-107195729D01*
X104363891Y-107222429D01*
X104457346Y-107272383D01*
X104612954Y-107319586D01*
X104734227Y-107331530D01*
X104734229Y-107331530D01*
X104774779Y-107335524D01*
X104815330Y-107331530D01*
X105240240Y-107331530D01*
X105240240Y-107756439D01*
X105236246Y-107796990D01*
X105240240Y-107837540D01*
X105240240Y-107837542D01*
X105252184Y-107958815D01*
X105277390Y-108041907D01*
X105299387Y-108114423D01*
X105376041Y-108257832D01*
X105404068Y-108291983D01*
X105479199Y-108383531D01*
X105510706Y-108409388D01*
X105818178Y-108716860D01*
X105818178Y-109131250D01*
X105835122Y-109303285D01*
X105885303Y-109468709D01*
X105966792Y-109621164D01*
X106076458Y-109754792D01*
X106210086Y-109864458D01*
X106362541Y-109945947D01*
X106527965Y-109996128D01*
X106700000Y-110013072D01*
X107612500Y-110013072D01*
X107784535Y-109996128D01*
X107949959Y-109945947D01*
X108102414Y-109864458D01*
X108236042Y-109754792D01*
X108270340Y-109713000D01*
X112639450Y-109713000D01*
X112680000Y-109716994D01*
X112720550Y-109713000D01*
X112720553Y-109713000D01*
X112841826Y-109701056D01*
X112997434Y-109653853D01*
X113140842Y-109577199D01*
X113266541Y-109474041D01*
X113292398Y-109442534D01*
X114205611Y-108529322D01*
X114226250Y-108529322D01*
X114350732Y-108517062D01*
X114351913Y-108516704D01*
X114465500Y-108526250D01*
X114557583Y-108434167D01*
X114580744Y-108421787D01*
X114677435Y-108342435D01*
X114751250Y-108252491D01*
X114825065Y-108342435D01*
X114921756Y-108421787D01*
X114944917Y-108434167D01*
X115037000Y-108526250D01*
X115150587Y-108516704D01*
X115151768Y-108517062D01*
X115276250Y-108529322D01*
X115826250Y-108529322D01*
X115950732Y-108517062D01*
X115951250Y-108516905D01*
X115951768Y-108517062D01*
X116076250Y-108529322D01*
X116626250Y-108529322D01*
X116750732Y-108517062D01*
X116751250Y-108516905D01*
X116751768Y-108517062D01*
X116876250Y-108529322D01*
X117426250Y-108529322D01*
X117550732Y-108517062D01*
X117551250Y-108516905D01*
X117551768Y-108517062D01*
X117676250Y-108529322D01*
X118226250Y-108529322D01*
X118350732Y-108517062D01*
X118351250Y-108516905D01*
X118351768Y-108517062D01*
X118476250Y-108529322D01*
X119026250Y-108529322D01*
X119150732Y-108517062D01*
X119151250Y-108516905D01*
X119151768Y-108517062D01*
X119276250Y-108529322D01*
X119826250Y-108529322D01*
X119950732Y-108517062D01*
X119951250Y-108516905D01*
X119951768Y-108517062D01*
X120076250Y-108529322D01*
X120626250Y-108529322D01*
X120750732Y-108517062D01*
X120751913Y-108516704D01*
X120865500Y-108526250D01*
X120957583Y-108434167D01*
X120980744Y-108421787D01*
X121077435Y-108342435D01*
X121151250Y-108252491D01*
X121225065Y-108342435D01*
X121321756Y-108421787D01*
X121344917Y-108434167D01*
X121437000Y-108526250D01*
X121550587Y-108516704D01*
X121551768Y-108517062D01*
X121676250Y-108529322D01*
X122226250Y-108529322D01*
X122350732Y-108517062D01*
X122470430Y-108480752D01*
X122580744Y-108421787D01*
X122657424Y-108358857D01*
X123143251Y-108844684D01*
X123143250Y-110487160D01*
X123101458Y-110521458D01*
X123096242Y-110527814D01*
X123032435Y-110450065D01*
X122935744Y-110370713D01*
X122825430Y-110311748D01*
X122705732Y-110275438D01*
X122581250Y-110263178D01*
X122379500Y-110266250D01*
X122220750Y-110425000D01*
X122220750Y-111474250D01*
X122240750Y-111474250D01*
X122240750Y-111728250D01*
X122220750Y-111728250D01*
X122220750Y-112777500D01*
X122379500Y-112936250D01*
X122581250Y-112939322D01*
X122705732Y-112927062D01*
X122825430Y-112890752D01*
X122935744Y-112831787D01*
X123032435Y-112752435D01*
X123096242Y-112674686D01*
X123101458Y-112681042D01*
X123235086Y-112790708D01*
X123387541Y-112872197D01*
X123552965Y-112922378D01*
X123725000Y-112939322D01*
X124212500Y-112939322D01*
X124384535Y-112922378D01*
X124549959Y-112872197D01*
X124702414Y-112790708D01*
X124770680Y-112734683D01*
X124922244Y-112835955D01*
X125110602Y-112913976D01*
X125310561Y-112953750D01*
X125514439Y-112953750D01*
X125714398Y-112913976D01*
X125902756Y-112835955D01*
X126072274Y-112722687D01*
X126216437Y-112578524D01*
X126329705Y-112409006D01*
X126407726Y-112220648D01*
X126447500Y-112020689D01*
X126447500Y-111816811D01*
X126407726Y-111616852D01*
X126329705Y-111428494D01*
X126216437Y-111258976D01*
X126072274Y-111114813D01*
X125902756Y-111001545D01*
X125714398Y-110923524D01*
X125514439Y-110883750D01*
X125503831Y-110883750D01*
X125412434Y-110834897D01*
X125256826Y-110787694D01*
X125135553Y-110775750D01*
X125135550Y-110775750D01*
X125095000Y-110771756D01*
X125054450Y-110775750D01*
X125010204Y-110775750D01*
X124945708Y-110655086D01*
X124836042Y-110521458D01*
X124794250Y-110487160D01*
X124794250Y-108543300D01*
X124798244Y-108502750D01*
X124794250Y-108462197D01*
X124782306Y-108340924D01*
X124735103Y-108185316D01*
X124721361Y-108159607D01*
X124658449Y-108041907D01*
X124581142Y-107947708D01*
X124581139Y-107947705D01*
X124555291Y-107916209D01*
X124523795Y-107890361D01*
X124420934Y-107787500D01*
X126455678Y-107787500D01*
X126467938Y-107911982D01*
X126504248Y-108031680D01*
X126563213Y-108141994D01*
X126642565Y-108238685D01*
X126739256Y-108318037D01*
X126849570Y-108377002D01*
X126969268Y-108413312D01*
X127093750Y-108425572D01*
X127508000Y-108422500D01*
X127666750Y-108263750D01*
X127666750Y-107427000D01*
X127920750Y-107427000D01*
X127920750Y-108263750D01*
X128079500Y-108422500D01*
X128493750Y-108425572D01*
X128618232Y-108413312D01*
X128737930Y-108377002D01*
X128848244Y-108318037D01*
X128944935Y-108238685D01*
X129024287Y-108141994D01*
X129083252Y-108031680D01*
X129119562Y-107911982D01*
X129131822Y-107787500D01*
X129128750Y-107585750D01*
X128970000Y-107427000D01*
X127920750Y-107427000D01*
X127666750Y-107427000D01*
X126617500Y-107427000D01*
X126458750Y-107585750D01*
X126455678Y-107787500D01*
X124420934Y-107787500D01*
X123219648Y-106586216D01*
X123193791Y-106554709D01*
X123068092Y-106451551D01*
X122924684Y-106374897D01*
X122860803Y-106355519D01*
X122860288Y-106350288D01*
X122901250Y-106354322D01*
X124401250Y-106354322D01*
X124525732Y-106342062D01*
X124645430Y-106305752D01*
X124755744Y-106246787D01*
X124828595Y-106187000D01*
X126627547Y-106187000D01*
X126713958Y-106292292D01*
X126720314Y-106297508D01*
X126642565Y-106361315D01*
X126563213Y-106458006D01*
X126504248Y-106568320D01*
X126467938Y-106688018D01*
X126455678Y-106812500D01*
X126458750Y-107014250D01*
X126617500Y-107173000D01*
X127666750Y-107173000D01*
X127666750Y-107153000D01*
X127920750Y-107153000D01*
X127920750Y-107173000D01*
X128970000Y-107173000D01*
X129128750Y-107014250D01*
X129131822Y-106812500D01*
X129119562Y-106688018D01*
X129083252Y-106568320D01*
X129024287Y-106458006D01*
X128944935Y-106361315D01*
X128867186Y-106297508D01*
X128873542Y-106292292D01*
X128971377Y-106173080D01*
X130048000Y-107249703D01*
X130048000Y-119729250D01*
X92921356Y-119729250D01*
X91408250Y-118216144D01*
X91408250Y-117493750D01*
X95374428Y-117493750D01*
X95386688Y-117618232D01*
X95422998Y-117737930D01*
X95481963Y-117848244D01*
X95561315Y-117944935D01*
X95658006Y-118024287D01*
X95768320Y-118083252D01*
X95888018Y-118119562D01*
X96012500Y-118131822D01*
X96626750Y-118128750D01*
X96785500Y-117970000D01*
X96785500Y-117070750D01*
X97039500Y-117070750D01*
X97039500Y-117970000D01*
X97198250Y-118128750D01*
X97812500Y-118131822D01*
X97936982Y-118119562D01*
X98056680Y-118083252D01*
X98166994Y-118024287D01*
X98263685Y-117944935D01*
X98343037Y-117848244D01*
X98402002Y-117737930D01*
X98438312Y-117618232D01*
X98450572Y-117493750D01*
X98447500Y-117229500D01*
X98288750Y-117070750D01*
X97039500Y-117070750D01*
X96785500Y-117070750D01*
X95536250Y-117070750D01*
X95377500Y-117229500D01*
X95374428Y-117493750D01*
X91408250Y-117493750D01*
X91408250Y-116393750D01*
X95374428Y-116393750D01*
X95377500Y-116658000D01*
X95536250Y-116816750D01*
X96785500Y-116816750D01*
X96785500Y-115917500D01*
X97039500Y-115917500D01*
X97039500Y-116816750D01*
X98288750Y-116816750D01*
X98447500Y-116658000D01*
X98450572Y-116393750D01*
X101574428Y-116393750D01*
X101574428Y-117493750D01*
X101586688Y-117618232D01*
X101622998Y-117737930D01*
X101681963Y-117848244D01*
X101761315Y-117944935D01*
X101858006Y-118024287D01*
X101968320Y-118083252D01*
X102088018Y-118119562D01*
X102212500Y-118131822D01*
X104012500Y-118131822D01*
X104136982Y-118119562D01*
X104256680Y-118083252D01*
X104366994Y-118024287D01*
X104463685Y-117944935D01*
X104543037Y-117848244D01*
X104602002Y-117737930D01*
X104638312Y-117618232D01*
X104650572Y-117493750D01*
X104650572Y-116393750D01*
X104638312Y-116269268D01*
X104602002Y-116149570D01*
X104543037Y-116039256D01*
X104463685Y-115942565D01*
X104366994Y-115863213D01*
X104256680Y-115804248D01*
X104136982Y-115767938D01*
X104012500Y-115755678D01*
X102212500Y-115755678D01*
X102088018Y-115767938D01*
X101968320Y-115804248D01*
X101858006Y-115863213D01*
X101761315Y-115942565D01*
X101681963Y-116039256D01*
X101622998Y-116149570D01*
X101586688Y-116269268D01*
X101574428Y-116393750D01*
X98450572Y-116393750D01*
X98438312Y-116269268D01*
X98402002Y-116149570D01*
X98343037Y-116039256D01*
X98263685Y-115942565D01*
X98166994Y-115863213D01*
X98056680Y-115804248D01*
X97936982Y-115767938D01*
X97812500Y-115755678D01*
X97198250Y-115758750D01*
X97039500Y-115917500D01*
X96785500Y-115917500D01*
X96626750Y-115758750D01*
X96012500Y-115755678D01*
X95888018Y-115767938D01*
X95768320Y-115804248D01*
X95658006Y-115863213D01*
X95561315Y-115942565D01*
X95481963Y-116039256D01*
X95422998Y-116149570D01*
X95386688Y-116269268D01*
X95374428Y-116393750D01*
X91408250Y-116393750D01*
X91408250Y-112693750D01*
X95374428Y-112693750D01*
X95374428Y-113793750D01*
X95386688Y-113918232D01*
X95422998Y-114037930D01*
X95481963Y-114148244D01*
X95561315Y-114244935D01*
X95658006Y-114324287D01*
X95768320Y-114383252D01*
X95888018Y-114419562D01*
X96012500Y-114431822D01*
X97812500Y-114431822D01*
X97936982Y-114419562D01*
X98056680Y-114383252D01*
X98166994Y-114324287D01*
X98263685Y-114244935D01*
X98343037Y-114148244D01*
X98402002Y-114037930D01*
X98438312Y-113918232D01*
X98450572Y-113793750D01*
X98450572Y-112693750D01*
X101574428Y-112693750D01*
X101574428Y-113793750D01*
X101586688Y-113918232D01*
X101622998Y-114037930D01*
X101681963Y-114148244D01*
X101761315Y-114244935D01*
X101858006Y-114324287D01*
X101968320Y-114383252D01*
X102088018Y-114419562D01*
X102212500Y-114431822D01*
X104012500Y-114431822D01*
X104136982Y-114419562D01*
X104256680Y-114383252D01*
X104366994Y-114324287D01*
X104463685Y-114244935D01*
X104543037Y-114148244D01*
X104602002Y-114037930D01*
X104638312Y-113918232D01*
X104650572Y-113793750D01*
X104650572Y-112693750D01*
X104638312Y-112569268D01*
X104602002Y-112449570D01*
X104543037Y-112339256D01*
X104511847Y-112301250D01*
X120968178Y-112301250D01*
X120980438Y-112425732D01*
X121016748Y-112545430D01*
X121075713Y-112655744D01*
X121155065Y-112752435D01*
X121251756Y-112831787D01*
X121362070Y-112890752D01*
X121481768Y-112927062D01*
X121606250Y-112939322D01*
X121808000Y-112936250D01*
X121966750Y-112777500D01*
X121966750Y-111728250D01*
X121130000Y-111728250D01*
X120971250Y-111887000D01*
X120968178Y-112301250D01*
X104511847Y-112301250D01*
X104463685Y-112242565D01*
X104366994Y-112163213D01*
X104256680Y-112104248D01*
X104208770Y-112089715D01*
X104222500Y-112020689D01*
X104222500Y-111816811D01*
X104182726Y-111616852D01*
X104104705Y-111428494D01*
X103991437Y-111258976D01*
X103847274Y-111114813D01*
X103677756Y-111001545D01*
X103489398Y-110923524D01*
X103377419Y-110901250D01*
X120968178Y-110901250D01*
X120971250Y-111315500D01*
X121130000Y-111474250D01*
X121966750Y-111474250D01*
X121966750Y-110425000D01*
X121808000Y-110266250D01*
X121606250Y-110263178D01*
X121481768Y-110275438D01*
X121362070Y-110311748D01*
X121251756Y-110370713D01*
X121155065Y-110450065D01*
X121075713Y-110546756D01*
X121016748Y-110657070D01*
X120980438Y-110776768D01*
X120968178Y-110901250D01*
X103377419Y-110901250D01*
X103289439Y-110883750D01*
X103085561Y-110883750D01*
X102885602Y-110923524D01*
X102697244Y-111001545D01*
X102527726Y-111114813D01*
X102383563Y-111258976D01*
X102270295Y-111428494D01*
X102192274Y-111616852D01*
X102152500Y-111816811D01*
X102152500Y-112020689D01*
X102160479Y-112060801D01*
X102088018Y-112067938D01*
X101968320Y-112104248D01*
X101858006Y-112163213D01*
X101761315Y-112242565D01*
X101681963Y-112339256D01*
X101622998Y-112449570D01*
X101586688Y-112569268D01*
X101574428Y-112693750D01*
X98450572Y-112693750D01*
X98438312Y-112569268D01*
X98402002Y-112449570D01*
X98343037Y-112339256D01*
X98263685Y-112242565D01*
X98166994Y-112163213D01*
X98056680Y-112104248D01*
X97936982Y-112067938D01*
X97812500Y-112055678D01*
X96012500Y-112055678D01*
X95888018Y-112067938D01*
X95768320Y-112104248D01*
X95658006Y-112163213D01*
X95561315Y-112242565D01*
X95481963Y-112339256D01*
X95422998Y-112449570D01*
X95386688Y-112569268D01*
X95374428Y-112693750D01*
X91408250Y-112693750D01*
X91408250Y-84983856D01*
X92921356Y-83470750D01*
X93299239Y-83470750D01*
X93290000Y-83564550D01*
X93290000Y-83564550D01*
G37*
X93290000Y-83564550D02*
X93290000Y-84710449D01*
X93311487Y-84928610D01*
X93396401Y-85208533D01*
X93534294Y-85466513D01*
X93719866Y-85692634D01*
X93945986Y-85878206D01*
X94013001Y-85914026D01*
X94013000Y-86860975D01*
X93945987Y-86896794D01*
X93719867Y-87082366D01*
X93534294Y-87308486D01*
X93396401Y-87566466D01*
X93311487Y-87846389D01*
X93290000Y-88064550D01*
X93290000Y-89210449D01*
X93311487Y-89428610D01*
X93396401Y-89708533D01*
X93534294Y-89966513D01*
X93719866Y-90192634D01*
X93945986Y-90378206D01*
X94203966Y-90516099D01*
X94483889Y-90601013D01*
X94775000Y-90629685D01*
X95066110Y-90601013D01*
X95190010Y-90563428D01*
X95190011Y-92401826D01*
X93999256Y-93592582D01*
X93967749Y-93618439D01*
X93900566Y-93700303D01*
X93864591Y-93744138D01*
X93816347Y-93834396D01*
X93787937Y-93887547D01*
X93740734Y-94043155D01*
X93730269Y-94149409D01*
X93724796Y-94204980D01*
X93728790Y-94245531D01*
X93728790Y-96039425D01*
X93724796Y-96079980D01*
X93728791Y-96120540D01*
X93728790Y-97876239D01*
X93724796Y-97916790D01*
X93728790Y-97957340D01*
X93728790Y-97957342D01*
X93740734Y-98078615D01*
X93749674Y-98108087D01*
X93736928Y-98237500D01*
X93736928Y-98987500D01*
X93753992Y-99160754D01*
X93804528Y-99327350D01*
X93886595Y-99480886D01*
X93997038Y-99615462D01*
X94131614Y-99725905D01*
X94285150Y-99807972D01*
X94451746Y-99858508D01*
X94625000Y-99875572D01*
X95875000Y-99875572D01*
X96048254Y-99858508D01*
X96214850Y-99807972D01*
X96368386Y-99725905D01*
X96502962Y-99615462D01*
X96613405Y-99480886D01*
X96695472Y-99327350D01*
X96746008Y-99160754D01*
X96763072Y-98987500D01*
X96763072Y-98237500D01*
X96746008Y-98064246D01*
X96695472Y-97897650D01*
X96613405Y-97744114D01*
X96502962Y-97609538D01*
X96368386Y-97499095D01*
X96214850Y-97417028D01*
X96048254Y-97366492D01*
X95875000Y-97349428D01*
X95379790Y-97349428D01*
X95379790Y-97285306D01*
X95415465Y-97296128D01*
X95587500Y-97313072D01*
X96500000Y-97313072D01*
X96672035Y-97296128D01*
X96827567Y-97248948D01*
X103932221Y-104353602D01*
X103956078Y-104382672D01*
X104072108Y-104477895D01*
X104204485Y-104548652D01*
X104348122Y-104592224D01*
X104460074Y-104603250D01*
X104460076Y-104603250D01*
X104497499Y-104606936D01*
X104534922Y-104603250D01*
X106801087Y-104603250D01*
X105723808Y-105680530D01*
X105116713Y-105680530D01*
X100293648Y-100857466D01*
X100267791Y-100825959D01*
X100142092Y-100722801D01*
X99998684Y-100646147D01*
X99843076Y-100598944D01*
X99721803Y-100587000D01*
X99721800Y-100587000D01*
X99681250Y-100583006D01*
X99640700Y-100587000D01*
X96636328Y-100587000D01*
X96613405Y-100544114D01*
X96502962Y-100409538D01*
X96368386Y-100299095D01*
X96214850Y-100217028D01*
X96048254Y-100166492D01*
X95875000Y-100149428D01*
X94625000Y-100149428D01*
X94451746Y-100166492D01*
X94285150Y-100217028D01*
X94131614Y-100299095D01*
X93997038Y-100409538D01*
X93886595Y-100544114D01*
X93804528Y-100697650D01*
X93753992Y-100864246D01*
X93736928Y-101037500D01*
X93736928Y-101787500D01*
X93753992Y-101960754D01*
X93804528Y-102127350D01*
X93886595Y-102280886D01*
X93997038Y-102415462D01*
X94131614Y-102525905D01*
X94285150Y-102607972D01*
X94451746Y-102658508D01*
X94625000Y-102675572D01*
X95875000Y-102675572D01*
X96048254Y-102658508D01*
X96214850Y-102607972D01*
X96368386Y-102525905D01*
X96502962Y-102415462D01*
X96613405Y-102280886D01*
X96636328Y-102238000D01*
X99339318Y-102238000D01*
X104162387Y-107061070D01*
X104188239Y-107092571D01*
X104247555Y-107141250D01*
X104313937Y-107195729D01*
X104363891Y-107222429D01*
X104457346Y-107272383D01*
X104612954Y-107319586D01*
X104734227Y-107331530D01*
X104734229Y-107331530D01*
X104774779Y-107335524D01*
X104815330Y-107331530D01*
X105240240Y-107331530D01*
X105240240Y-107756439D01*
X105236246Y-107796990D01*
X105240240Y-107837540D01*
X105240240Y-107837542D01*
X105252184Y-107958815D01*
X105277390Y-108041907D01*
X105299387Y-108114423D01*
X105376041Y-108257832D01*
X105404068Y-108291983D01*
X105479199Y-108383531D01*
X105510706Y-108409388D01*
X105818178Y-108716860D01*
X105818178Y-109131250D01*
X105835122Y-109303285D01*
X105885303Y-109468709D01*
X105966792Y-109621164D01*
X106076458Y-109754792D01*
X106210086Y-109864458D01*
X106362541Y-109945947D01*
X106527965Y-109996128D01*
X106700000Y-110013072D01*
X107612500Y-110013072D01*
X107784535Y-109996128D01*
X107949959Y-109945947D01*
X108102414Y-109864458D01*
X108236042Y-109754792D01*
X108270340Y-109713000D01*
X112639450Y-109713000D01*
X112680000Y-109716994D01*
X112720550Y-109713000D01*
X112720553Y-109713000D01*
X112841826Y-109701056D01*
X112997434Y-109653853D01*
X113140842Y-109577199D01*
X113266541Y-109474041D01*
X113292398Y-109442534D01*
X114205611Y-108529322D01*
X114226250Y-108529322D01*
X114350732Y-108517062D01*
X114351913Y-108516704D01*
X114465500Y-108526250D01*
X114557583Y-108434167D01*
X114580744Y-108421787D01*
X114677435Y-108342435D01*
X114751250Y-108252491D01*
X114825065Y-108342435D01*
X114921756Y-108421787D01*
X114944917Y-108434167D01*
X115037000Y-108526250D01*
X115150587Y-108516704D01*
X115151768Y-108517062D01*
X115276250Y-108529322D01*
X115826250Y-108529322D01*
X115950732Y-108517062D01*
X115951250Y-108516905D01*
X115951768Y-108517062D01*
X116076250Y-108529322D01*
X116626250Y-108529322D01*
X116750732Y-108517062D01*
X116751250Y-108516905D01*
X116751768Y-108517062D01*
X116876250Y-108529322D01*
X117426250Y-108529322D01*
X117550732Y-108517062D01*
X117551250Y-108516905D01*
X117551768Y-108517062D01*
X117676250Y-108529322D01*
X118226250Y-108529322D01*
X118350732Y-108517062D01*
X118351250Y-108516905D01*
X118351768Y-108517062D01*
X118476250Y-108529322D01*
X119026250Y-108529322D01*
X119150732Y-108517062D01*
X119151250Y-108516905D01*
X119151768Y-108517062D01*
X119276250Y-108529322D01*
X119826250Y-108529322D01*
X119950732Y-108517062D01*
X119951250Y-108516905D01*
X119951768Y-108517062D01*
X120076250Y-108529322D01*
X120626250Y-108529322D01*
X120750732Y-108517062D01*
X120751913Y-108516704D01*
X120865500Y-108526250D01*
X120957583Y-108434167D01*
X120980744Y-108421787D01*
X121077435Y-108342435D01*
X121151250Y-108252491D01*
X121225065Y-108342435D01*
X121321756Y-108421787D01*
X121344917Y-108434167D01*
X121437000Y-108526250D01*
X121550587Y-108516704D01*
X121551768Y-108517062D01*
X121676250Y-108529322D01*
X122226250Y-108529322D01*
X122350732Y-108517062D01*
X122470430Y-108480752D01*
X122580744Y-108421787D01*
X122657424Y-108358857D01*
X123143251Y-108844684D01*
X123143250Y-110487160D01*
X123101458Y-110521458D01*
X123096242Y-110527814D01*
X123032435Y-110450065D01*
X122935744Y-110370713D01*
X122825430Y-110311748D01*
X122705732Y-110275438D01*
X122581250Y-110263178D01*
X122379500Y-110266250D01*
X122220750Y-110425000D01*
X122220750Y-111474250D01*
X122240750Y-111474250D01*
X122240750Y-111728250D01*
X122220750Y-111728250D01*
X122220750Y-112777500D01*
X122379500Y-112936250D01*
X122581250Y-112939322D01*
X122705732Y-112927062D01*
X122825430Y-112890752D01*
X122935744Y-112831787D01*
X123032435Y-112752435D01*
X123096242Y-112674686D01*
X123101458Y-112681042D01*
X123235086Y-112790708D01*
X123387541Y-112872197D01*
X123552965Y-112922378D01*
X123725000Y-112939322D01*
X124212500Y-112939322D01*
X124384535Y-112922378D01*
X124549959Y-112872197D01*
X124702414Y-112790708D01*
X124770680Y-112734683D01*
X124922244Y-112835955D01*
X125110602Y-112913976D01*
X125310561Y-112953750D01*
X125514439Y-112953750D01*
X125714398Y-112913976D01*
X125902756Y-112835955D01*
X126072274Y-112722687D01*
X126216437Y-112578524D01*
X126329705Y-112409006D01*
X126407726Y-112220648D01*
X126447500Y-112020689D01*
X126447500Y-111816811D01*
X126407726Y-111616852D01*
X126329705Y-111428494D01*
X126216437Y-111258976D01*
X126072274Y-111114813D01*
X125902756Y-111001545D01*
X125714398Y-110923524D01*
X125514439Y-110883750D01*
X125503831Y-110883750D01*
X125412434Y-110834897D01*
X125256826Y-110787694D01*
X125135553Y-110775750D01*
X125135550Y-110775750D01*
X125095000Y-110771756D01*
X125054450Y-110775750D01*
X125010204Y-110775750D01*
X124945708Y-110655086D01*
X124836042Y-110521458D01*
X124794250Y-110487160D01*
X124794250Y-108543300D01*
X124798244Y-108502750D01*
X124794250Y-108462197D01*
X124782306Y-108340924D01*
X124735103Y-108185316D01*
X124721361Y-108159607D01*
X124658449Y-108041907D01*
X124581142Y-107947708D01*
X124581139Y-107947705D01*
X124555291Y-107916209D01*
X124523795Y-107890361D01*
X124420934Y-107787500D01*
X126455678Y-107787500D01*
X126467938Y-107911982D01*
X126504248Y-108031680D01*
X126563213Y-108141994D01*
X126642565Y-108238685D01*
X126739256Y-108318037D01*
X126849570Y-108377002D01*
X126969268Y-108413312D01*
X127093750Y-108425572D01*
X127508000Y-108422500D01*
X127666750Y-108263750D01*
X127666750Y-107427000D01*
X127920750Y-107427000D01*
X127920750Y-108263750D01*
X128079500Y-108422500D01*
X128493750Y-108425572D01*
X128618232Y-108413312D01*
X128737930Y-108377002D01*
X128848244Y-108318037D01*
X128944935Y-108238685D01*
X129024287Y-108141994D01*
X129083252Y-108031680D01*
X129119562Y-107911982D01*
X129131822Y-107787500D01*
X129128750Y-107585750D01*
X128970000Y-107427000D01*
X127920750Y-107427000D01*
X127666750Y-107427000D01*
X126617500Y-107427000D01*
X126458750Y-107585750D01*
X126455678Y-107787500D01*
X124420934Y-107787500D01*
X123219648Y-106586216D01*
X123193791Y-106554709D01*
X123068092Y-106451551D01*
X122924684Y-106374897D01*
X122860803Y-106355519D01*
X122860288Y-106350288D01*
X122901250Y-106354322D01*
X124401250Y-106354322D01*
X124525732Y-106342062D01*
X124645430Y-106305752D01*
X124755744Y-106246787D01*
X124828595Y-106187000D01*
X126627547Y-106187000D01*
X126713958Y-106292292D01*
X126720314Y-106297508D01*
X126642565Y-106361315D01*
X126563213Y-106458006D01*
X126504248Y-106568320D01*
X126467938Y-106688018D01*
X126455678Y-106812500D01*
X126458750Y-107014250D01*
X126617500Y-107173000D01*
X127666750Y-107173000D01*
X127666750Y-107153000D01*
X127920750Y-107153000D01*
X127920750Y-107173000D01*
X128970000Y-107173000D01*
X129128750Y-107014250D01*
X129131822Y-106812500D01*
X129119562Y-106688018D01*
X129083252Y-106568320D01*
X129024287Y-106458006D01*
X128944935Y-106361315D01*
X128867186Y-106297508D01*
X128873542Y-106292292D01*
X128971377Y-106173080D01*
X130048000Y-107249703D01*
X130048000Y-119729250D01*
X92921356Y-119729250D01*
X91408250Y-118216144D01*
X91408250Y-117493750D01*
X95374428Y-117493750D01*
X95386688Y-117618232D01*
X95422998Y-117737930D01*
X95481963Y-117848244D01*
X95561315Y-117944935D01*
X95658006Y-118024287D01*
X95768320Y-118083252D01*
X95888018Y-118119562D01*
X96012500Y-118131822D01*
X96626750Y-118128750D01*
X96785500Y-117970000D01*
X96785500Y-117070750D01*
X97039500Y-117070750D01*
X97039500Y-117970000D01*
X97198250Y-118128750D01*
X97812500Y-118131822D01*
X97936982Y-118119562D01*
X98056680Y-118083252D01*
X98166994Y-118024287D01*
X98263685Y-117944935D01*
X98343037Y-117848244D01*
X98402002Y-117737930D01*
X98438312Y-117618232D01*
X98450572Y-117493750D01*
X98447500Y-117229500D01*
X98288750Y-117070750D01*
X97039500Y-117070750D01*
X96785500Y-117070750D01*
X95536250Y-117070750D01*
X95377500Y-117229500D01*
X95374428Y-117493750D01*
X91408250Y-117493750D01*
X91408250Y-116393750D01*
X95374428Y-116393750D01*
X95377500Y-116658000D01*
X95536250Y-116816750D01*
X96785500Y-116816750D01*
X96785500Y-115917500D01*
X97039500Y-115917500D01*
X97039500Y-116816750D01*
X98288750Y-116816750D01*
X98447500Y-116658000D01*
X98450572Y-116393750D01*
X101574428Y-116393750D01*
X101574428Y-117493750D01*
X101586688Y-117618232D01*
X101622998Y-117737930D01*
X101681963Y-117848244D01*
X101761315Y-117944935D01*
X101858006Y-118024287D01*
X101968320Y-118083252D01*
X102088018Y-118119562D01*
X102212500Y-118131822D01*
X104012500Y-118131822D01*
X104136982Y-118119562D01*
X104256680Y-118083252D01*
X104366994Y-118024287D01*
X104463685Y-117944935D01*
X104543037Y-117848244D01*
X104602002Y-117737930D01*
X104638312Y-117618232D01*
X104650572Y-117493750D01*
X104650572Y-116393750D01*
X104638312Y-116269268D01*
X104602002Y-116149570D01*
X104543037Y-116039256D01*
X104463685Y-115942565D01*
X104366994Y-115863213D01*
X104256680Y-115804248D01*
X104136982Y-115767938D01*
X104012500Y-115755678D01*
X102212500Y-115755678D01*
X102088018Y-115767938D01*
X101968320Y-115804248D01*
X101858006Y-115863213D01*
X101761315Y-115942565D01*
X101681963Y-116039256D01*
X101622998Y-116149570D01*
X101586688Y-116269268D01*
X101574428Y-116393750D01*
X98450572Y-116393750D01*
X98438312Y-116269268D01*
X98402002Y-116149570D01*
X98343037Y-116039256D01*
X98263685Y-115942565D01*
X98166994Y-115863213D01*
X98056680Y-115804248D01*
X97936982Y-115767938D01*
X97812500Y-115755678D01*
X97198250Y-115758750D01*
X97039500Y-115917500D01*
X96785500Y-115917500D01*
X96626750Y-115758750D01*
X96012500Y-115755678D01*
X95888018Y-115767938D01*
X95768320Y-115804248D01*
X95658006Y-115863213D01*
X95561315Y-115942565D01*
X95481963Y-116039256D01*
X95422998Y-116149570D01*
X95386688Y-116269268D01*
X95374428Y-116393750D01*
X91408250Y-116393750D01*
X91408250Y-112693750D01*
X95374428Y-112693750D01*
X95374428Y-113793750D01*
X95386688Y-113918232D01*
X95422998Y-114037930D01*
X95481963Y-114148244D01*
X95561315Y-114244935D01*
X95658006Y-114324287D01*
X95768320Y-114383252D01*
X95888018Y-114419562D01*
X96012500Y-114431822D01*
X97812500Y-114431822D01*
X97936982Y-114419562D01*
X98056680Y-114383252D01*
X98166994Y-114324287D01*
X98263685Y-114244935D01*
X98343037Y-114148244D01*
X98402002Y-114037930D01*
X98438312Y-113918232D01*
X98450572Y-113793750D01*
X98450572Y-112693750D01*
X101574428Y-112693750D01*
X101574428Y-113793750D01*
X101586688Y-113918232D01*
X101622998Y-114037930D01*
X101681963Y-114148244D01*
X101761315Y-114244935D01*
X101858006Y-114324287D01*
X101968320Y-114383252D01*
X102088018Y-114419562D01*
X102212500Y-114431822D01*
X104012500Y-114431822D01*
X104136982Y-114419562D01*
X104256680Y-114383252D01*
X104366994Y-114324287D01*
X104463685Y-114244935D01*
X104543037Y-114148244D01*
X104602002Y-114037930D01*
X104638312Y-113918232D01*
X104650572Y-113793750D01*
X104650572Y-112693750D01*
X104638312Y-112569268D01*
X104602002Y-112449570D01*
X104543037Y-112339256D01*
X104511847Y-112301250D01*
X120968178Y-112301250D01*
X120980438Y-112425732D01*
X121016748Y-112545430D01*
X121075713Y-112655744D01*
X121155065Y-112752435D01*
X121251756Y-112831787D01*
X121362070Y-112890752D01*
X121481768Y-112927062D01*
X121606250Y-112939322D01*
X121808000Y-112936250D01*
X121966750Y-112777500D01*
X121966750Y-111728250D01*
X121130000Y-111728250D01*
X120971250Y-111887000D01*
X120968178Y-112301250D01*
X104511847Y-112301250D01*
X104463685Y-112242565D01*
X104366994Y-112163213D01*
X104256680Y-112104248D01*
X104208770Y-112089715D01*
X104222500Y-112020689D01*
X104222500Y-111816811D01*
X104182726Y-111616852D01*
X104104705Y-111428494D01*
X103991437Y-111258976D01*
X103847274Y-111114813D01*
X103677756Y-111001545D01*
X103489398Y-110923524D01*
X103377419Y-110901250D01*
X120968178Y-110901250D01*
X120971250Y-111315500D01*
X121130000Y-111474250D01*
X121966750Y-111474250D01*
X121966750Y-110425000D01*
X121808000Y-110266250D01*
X121606250Y-110263178D01*
X121481768Y-110275438D01*
X121362070Y-110311748D01*
X121251756Y-110370713D01*
X121155065Y-110450065D01*
X121075713Y-110546756D01*
X121016748Y-110657070D01*
X120980438Y-110776768D01*
X120968178Y-110901250D01*
X103377419Y-110901250D01*
X103289439Y-110883750D01*
X103085561Y-110883750D01*
X102885602Y-110923524D01*
X102697244Y-111001545D01*
X102527726Y-111114813D01*
X102383563Y-111258976D01*
X102270295Y-111428494D01*
X102192274Y-111616852D01*
X102152500Y-111816811D01*
X102152500Y-112020689D01*
X102160479Y-112060801D01*
X102088018Y-112067938D01*
X101968320Y-112104248D01*
X101858006Y-112163213D01*
X101761315Y-112242565D01*
X101681963Y-112339256D01*
X101622998Y-112449570D01*
X101586688Y-112569268D01*
X101574428Y-112693750D01*
X98450572Y-112693750D01*
X98438312Y-112569268D01*
X98402002Y-112449570D01*
X98343037Y-112339256D01*
X98263685Y-112242565D01*
X98166994Y-112163213D01*
X98056680Y-112104248D01*
X97936982Y-112067938D01*
X97812500Y-112055678D01*
X96012500Y-112055678D01*
X95888018Y-112067938D01*
X95768320Y-112104248D01*
X95658006Y-112163213D01*
X95561315Y-112242565D01*
X95481963Y-112339256D01*
X95422998Y-112449570D01*
X95386688Y-112569268D01*
X95374428Y-112693750D01*
X91408250Y-112693750D01*
X91408250Y-84983856D01*
X92921356Y-83470750D01*
X93299239Y-83470750D01*
X93290000Y-83564550D01*
G36*
X109840994Y-105692205D02*
G01*
X110029352Y-105770226D01*
X110229311Y-105810000D01*
X110433189Y-105810000D01*
X110633148Y-105770226D01*
X110821506Y-105692205D01*
X110863178Y-105664361D01*
X110863178Y-105716250D01*
X110875438Y-105840732D01*
X110911748Y-105960430D01*
X110970713Y-106070744D01*
X111050065Y-106167435D01*
X111146756Y-106246787D01*
X111257070Y-106305752D01*
X111376768Y-106342062D01*
X111501250Y-106354322D01*
X113001250Y-106354322D01*
X113042212Y-106350288D01*
X113038178Y-106391250D01*
X113038178Y-107361889D01*
X112338068Y-108062000D01*
X108270340Y-108062000D01*
X108236042Y-108020208D01*
X108229686Y-108014992D01*
X108307435Y-107951185D01*
X108386787Y-107854494D01*
X108445752Y-107744180D01*
X108482062Y-107624482D01*
X108494322Y-107500000D01*
X108491250Y-107298250D01*
X108332500Y-107139500D01*
X107283250Y-107139500D01*
X107283250Y-107159500D01*
X107029250Y-107159500D01*
X107029250Y-107139500D01*
X107009250Y-107139500D01*
X107009250Y-106885500D01*
X107029250Y-106885500D01*
X107029250Y-106865500D01*
X107283250Y-106865500D01*
X107283250Y-106885500D01*
X108332500Y-106885500D01*
X108491250Y-106726750D01*
X108494322Y-106525000D01*
X108482062Y-106400518D01*
X108445752Y-106280820D01*
X108386787Y-106170506D01*
X108307435Y-106073815D01*
X108210744Y-105994463D01*
X108100430Y-105935498D01*
X107980732Y-105899188D01*
X107856250Y-105886928D01*
X107852245Y-105886958D01*
X108138703Y-105600500D01*
X109703747Y-105600500D01*
X109840994Y-105692205D01*
X109840994Y-105692205D01*
G37*
X109840994Y-105692205D02*
X110029352Y-105770226D01*
X110229311Y-105810000D01*
X110433189Y-105810000D01*
X110633148Y-105770226D01*
X110821506Y-105692205D01*
X110863178Y-105664361D01*
X110863178Y-105716250D01*
X110875438Y-105840732D01*
X110911748Y-105960430D01*
X110970713Y-106070744D01*
X111050065Y-106167435D01*
X111146756Y-106246787D01*
X111257070Y-106305752D01*
X111376768Y-106342062D01*
X111501250Y-106354322D01*
X113001250Y-106354322D01*
X113042212Y-106350288D01*
X113038178Y-106391250D01*
X113038178Y-107361889D01*
X112338068Y-108062000D01*
X108270340Y-108062000D01*
X108236042Y-108020208D01*
X108229686Y-108014992D01*
X108307435Y-107951185D01*
X108386787Y-107854494D01*
X108445752Y-107744180D01*
X108482062Y-107624482D01*
X108494322Y-107500000D01*
X108491250Y-107298250D01*
X108332500Y-107139500D01*
X107283250Y-107139500D01*
X107283250Y-107159500D01*
X107029250Y-107159500D01*
X107029250Y-107139500D01*
X107009250Y-107139500D01*
X107009250Y-106885500D01*
X107029250Y-106885500D01*
X107029250Y-106865500D01*
X107283250Y-106865500D01*
X107283250Y-106885500D01*
X108332500Y-106885500D01*
X108491250Y-106726750D01*
X108494322Y-106525000D01*
X108482062Y-106400518D01*
X108445752Y-106280820D01*
X108386787Y-106170506D01*
X108307435Y-106073815D01*
X108210744Y-105994463D01*
X108100430Y-105935498D01*
X107980732Y-105899188D01*
X107856250Y-105886928D01*
X107852245Y-105886958D01*
X108138703Y-105600500D01*
X109703747Y-105600500D01*
X109840994Y-105692205D01*
G36*
X130048000Y-96601235D02*
G01*
X129873102Y-96636024D01*
X129684744Y-96714045D01*
X129547497Y-96805750D01*
X129408955Y-96805750D01*
X129382197Y-96717541D01*
X129300708Y-96565086D01*
X129191042Y-96431458D01*
X129184686Y-96426242D01*
X129262435Y-96362435D01*
X129341787Y-96265744D01*
X129400752Y-96155430D01*
X129437062Y-96035732D01*
X129449322Y-95911250D01*
X129446250Y-95709500D01*
X129287500Y-95550750D01*
X128238250Y-95550750D01*
X128238250Y-95570750D01*
X127984250Y-95570750D01*
X127984250Y-95550750D01*
X126935000Y-95550750D01*
X126776250Y-95709500D01*
X126773178Y-95911250D01*
X126785438Y-96035732D01*
X126821748Y-96155430D01*
X126880713Y-96265744D01*
X126960065Y-96362435D01*
X127037814Y-96426242D01*
X127031458Y-96431458D01*
X126921792Y-96565086D01*
X126917445Y-96573219D01*
X126850407Y-96609051D01*
X126817920Y-96635713D01*
X126724709Y-96712209D01*
X126698856Y-96743711D01*
X126026818Y-97415750D01*
X125036250Y-97415750D01*
X125036250Y-97314248D01*
X124877502Y-97314248D01*
X125036250Y-97155500D01*
X125026427Y-97038619D01*
X124989515Y-96919105D01*
X124929996Y-96809089D01*
X124850158Y-96712799D01*
X124753068Y-96633934D01*
X124642458Y-96575526D01*
X124522579Y-96539820D01*
X124398037Y-96528186D01*
X123937000Y-96531250D01*
X123778250Y-96690000D01*
X123778250Y-97314250D01*
X123798250Y-97314250D01*
X123798250Y-97328178D01*
X122901250Y-97328178D01*
X122776768Y-97340438D01*
X122657070Y-97376748D01*
X122546756Y-97435713D01*
X122450065Y-97515065D01*
X122370713Y-97611756D01*
X122358333Y-97634917D01*
X122266250Y-97727000D01*
X122275796Y-97840587D01*
X122275438Y-97841768D01*
X122263178Y-97966250D01*
X122263178Y-98516250D01*
X122275438Y-98640732D01*
X122275595Y-98641250D01*
X122275438Y-98641768D01*
X122263178Y-98766250D01*
X122263178Y-99316250D01*
X122275438Y-99440732D01*
X122275595Y-99441250D01*
X122275438Y-99441768D01*
X122263178Y-99566250D01*
X122263178Y-100116250D01*
X122275438Y-100240732D01*
X122275595Y-100241250D01*
X122275438Y-100241768D01*
X122263178Y-100366250D01*
X122263178Y-100916250D01*
X122275438Y-101040732D01*
X122275595Y-101041250D01*
X122275438Y-101041768D01*
X122263178Y-101166250D01*
X122263178Y-101716250D01*
X122275438Y-101840732D01*
X122275595Y-101841250D01*
X122275438Y-101841768D01*
X122263178Y-101966250D01*
X122263178Y-102516250D01*
X122275438Y-102640732D01*
X122275595Y-102641250D01*
X122275438Y-102641768D01*
X122263178Y-102766250D01*
X122263178Y-103316250D01*
X122275438Y-103440732D01*
X122275595Y-103441250D01*
X122275438Y-103441768D01*
X122263178Y-103566250D01*
X122263178Y-104116250D01*
X122275438Y-104240732D01*
X122275595Y-104241250D01*
X122275438Y-104241768D01*
X122263178Y-104366250D01*
X122263178Y-104916250D01*
X122275438Y-105040732D01*
X122275595Y-105041250D01*
X122275438Y-105041768D01*
X122263178Y-105166250D01*
X122263178Y-105716250D01*
X122267212Y-105757212D01*
X122226250Y-105753178D01*
X121676250Y-105753178D01*
X121551768Y-105765438D01*
X121550587Y-105765796D01*
X121437000Y-105756250D01*
X121344917Y-105848333D01*
X121321756Y-105860713D01*
X121225065Y-105940065D01*
X121151250Y-106030009D01*
X121077435Y-105940065D01*
X120980744Y-105860713D01*
X120957583Y-105848333D01*
X120865500Y-105756250D01*
X120751913Y-105765796D01*
X120750732Y-105765438D01*
X120626250Y-105753178D01*
X120076250Y-105753178D01*
X119951768Y-105765438D01*
X119951250Y-105765595D01*
X119950732Y-105765438D01*
X119826250Y-105753178D01*
X119276250Y-105753178D01*
X119151768Y-105765438D01*
X119151250Y-105765595D01*
X119150732Y-105765438D01*
X119026250Y-105753178D01*
X118476250Y-105753178D01*
X118351768Y-105765438D01*
X118351250Y-105765595D01*
X118350732Y-105765438D01*
X118226250Y-105753178D01*
X117676250Y-105753178D01*
X117551768Y-105765438D01*
X117551250Y-105765595D01*
X117550732Y-105765438D01*
X117426250Y-105753178D01*
X116876250Y-105753178D01*
X116751768Y-105765438D01*
X116751250Y-105765595D01*
X116750732Y-105765438D01*
X116626250Y-105753178D01*
X116076250Y-105753178D01*
X115951768Y-105765438D01*
X115951250Y-105765595D01*
X115950732Y-105765438D01*
X115826250Y-105753178D01*
X115276250Y-105753178D01*
X115151768Y-105765438D01*
X115150587Y-105765796D01*
X115037000Y-105756250D01*
X114944917Y-105848333D01*
X114921756Y-105860713D01*
X114825065Y-105940065D01*
X114751250Y-106030009D01*
X114677435Y-105940065D01*
X114580744Y-105860713D01*
X114557583Y-105848333D01*
X114465500Y-105756250D01*
X114351913Y-105765796D01*
X114350732Y-105765438D01*
X114226250Y-105753178D01*
X113676250Y-105753178D01*
X113635288Y-105757212D01*
X113639322Y-105716250D01*
X113639322Y-105166250D01*
X113627062Y-105041768D01*
X113626905Y-105041250D01*
X113627062Y-105040732D01*
X113639322Y-104916250D01*
X113639322Y-104366250D01*
X113627062Y-104241768D01*
X113626905Y-104241250D01*
X113627062Y-104240732D01*
X113639322Y-104116250D01*
X113639322Y-103566250D01*
X113627062Y-103441768D01*
X113626905Y-103441250D01*
X113627062Y-103440732D01*
X113639322Y-103316250D01*
X113639322Y-102766250D01*
X113627062Y-102641768D01*
X113626704Y-102640587D01*
X113636250Y-102527000D01*
X113544167Y-102434917D01*
X113531787Y-102411756D01*
X113452435Y-102315065D01*
X113362491Y-102241250D01*
X113452435Y-102167435D01*
X113531787Y-102070744D01*
X113544167Y-102047583D01*
X113636250Y-101955500D01*
X113626704Y-101841913D01*
X113627062Y-101840732D01*
X113639322Y-101716250D01*
X113639322Y-101166250D01*
X113627062Y-101041768D01*
X113626905Y-101041250D01*
X113627062Y-101040732D01*
X113639322Y-100916250D01*
X113639322Y-100366250D01*
X113627062Y-100241768D01*
X113626905Y-100241250D01*
X113627062Y-100240732D01*
X113639322Y-100116250D01*
X113639322Y-99566250D01*
X113627062Y-99441768D01*
X113626905Y-99441250D01*
X113627062Y-99440732D01*
X113639322Y-99316250D01*
X113639322Y-98766250D01*
X113627062Y-98641768D01*
X113626905Y-98641250D01*
X113627062Y-98640732D01*
X113639322Y-98516250D01*
X113639322Y-97966250D01*
X113627062Y-97841768D01*
X113626905Y-97841250D01*
X113627062Y-97840732D01*
X113639322Y-97716250D01*
X113639322Y-97580251D01*
X114450428Y-97580251D01*
X114487851Y-97583937D01*
X114525274Y-97580251D01*
X114525277Y-97580251D01*
X114637229Y-97569225D01*
X114780866Y-97525653D01*
X114913243Y-97454896D01*
X115029273Y-97359673D01*
X115053135Y-97330597D01*
X115256368Y-97127364D01*
X115276250Y-97129322D01*
X115826250Y-97129322D01*
X115950732Y-97117062D01*
X115951913Y-97116704D01*
X116065500Y-97126250D01*
X116157583Y-97034167D01*
X116180744Y-97021787D01*
X116277435Y-96942435D01*
X116351250Y-96852491D01*
X116425065Y-96942435D01*
X116521756Y-97021787D01*
X116544917Y-97034167D01*
X116637000Y-97126250D01*
X116750587Y-97116704D01*
X116751768Y-97117062D01*
X116876250Y-97129322D01*
X117426250Y-97129322D01*
X117550732Y-97117062D01*
X117551250Y-97116905D01*
X117551768Y-97117062D01*
X117676250Y-97129322D01*
X118226250Y-97129322D01*
X118350732Y-97117062D01*
X118351250Y-97116905D01*
X118351768Y-97117062D01*
X118476250Y-97129322D01*
X119026250Y-97129322D01*
X119150732Y-97117062D01*
X119151250Y-97116905D01*
X119151768Y-97117062D01*
X119276250Y-97129322D01*
X119826250Y-97129322D01*
X119950732Y-97117062D01*
X119951250Y-97116905D01*
X119951768Y-97117062D01*
X120076250Y-97129322D01*
X120626250Y-97129322D01*
X120750732Y-97117062D01*
X120751250Y-97116905D01*
X120751768Y-97117062D01*
X120876250Y-97129322D01*
X121426250Y-97129322D01*
X121550732Y-97117062D01*
X121551250Y-97116905D01*
X121551768Y-97117062D01*
X121676250Y-97129322D01*
X122226250Y-97129322D01*
X122268802Y-97125131D01*
X122266250Y-97155500D01*
X122425000Y-97314250D01*
X123524250Y-97314250D01*
X123524250Y-96690000D01*
X123365500Y-96531250D01*
X122904463Y-96528186D01*
X122860278Y-96532314D01*
X122864322Y-96491250D01*
X122864322Y-94991250D01*
X122858906Y-94936250D01*
X126773178Y-94936250D01*
X126776250Y-95138000D01*
X126935000Y-95296750D01*
X127984250Y-95296750D01*
X127984250Y-94460000D01*
X128238250Y-94460000D01*
X128238250Y-95296750D01*
X129287500Y-95296750D01*
X129446250Y-95138000D01*
X129449322Y-94936250D01*
X129437062Y-94811768D01*
X129400752Y-94692070D01*
X129341787Y-94581756D01*
X129262435Y-94485065D01*
X129165744Y-94405713D01*
X129055430Y-94346748D01*
X128935732Y-94310438D01*
X128811250Y-94298178D01*
X128397000Y-94301250D01*
X128238250Y-94460000D01*
X127984250Y-94460000D01*
X127825500Y-94301250D01*
X127411250Y-94298178D01*
X127286768Y-94310438D01*
X127167070Y-94346748D01*
X127056756Y-94405713D01*
X126960065Y-94485065D01*
X126880713Y-94581756D01*
X126821748Y-94692070D01*
X126785438Y-94811768D01*
X126773178Y-94936250D01*
X122858906Y-94936250D01*
X122852062Y-94866768D01*
X122815752Y-94747070D01*
X122756787Y-94636756D01*
X122677435Y-94540065D01*
X122580744Y-94460713D01*
X122470430Y-94401748D01*
X122350732Y-94365438D01*
X122226250Y-94353178D01*
X121676250Y-94353178D01*
X121551768Y-94365438D01*
X121551250Y-94365595D01*
X121550732Y-94365438D01*
X121426250Y-94353178D01*
X120876250Y-94353178D01*
X120751768Y-94365438D01*
X120751250Y-94365595D01*
X120750732Y-94365438D01*
X120626250Y-94353178D01*
X120076250Y-94353178D01*
X119951768Y-94365438D01*
X119951250Y-94365595D01*
X119950732Y-94365438D01*
X119826250Y-94353178D01*
X119276250Y-94353178D01*
X119151768Y-94365438D01*
X119151250Y-94365595D01*
X119150732Y-94365438D01*
X119026250Y-94353178D01*
X118713250Y-94353178D01*
X118713250Y-91860880D01*
X119563602Y-91010529D01*
X119592672Y-90986672D01*
X119656740Y-90908605D01*
X119687895Y-90870643D01*
X119709981Y-90829322D01*
X119751250Y-90829322D01*
X119875732Y-90817062D01*
X119995430Y-90780752D01*
X120105744Y-90721787D01*
X120202435Y-90642435D01*
X120281787Y-90545744D01*
X120340752Y-90435430D01*
X120365681Y-90353250D01*
X121810168Y-90353250D01*
X121841792Y-90412414D01*
X121951458Y-90546042D01*
X122085086Y-90655708D01*
X122237541Y-90737197D01*
X122402965Y-90787378D01*
X122575000Y-90804322D01*
X123487500Y-90804322D01*
X123659535Y-90787378D01*
X123824959Y-90737197D01*
X123977414Y-90655708D01*
X124111042Y-90546042D01*
X124220708Y-90412414D01*
X124302197Y-90259959D01*
X124352378Y-90094535D01*
X124369322Y-89922500D01*
X124369322Y-89435000D01*
X124352378Y-89262965D01*
X124302197Y-89097541D01*
X124220708Y-88945086D01*
X124111042Y-88811458D01*
X124104686Y-88806242D01*
X124182435Y-88742435D01*
X124261787Y-88645744D01*
X124320752Y-88535430D01*
X124357062Y-88415732D01*
X124369322Y-88291250D01*
X124366250Y-88089500D01*
X124207500Y-87930750D01*
X123158250Y-87930750D01*
X123158250Y-87950750D01*
X122904250Y-87950750D01*
X122904250Y-87930750D01*
X121855000Y-87930750D01*
X121696250Y-88089500D01*
X121693178Y-88291250D01*
X121705438Y-88415732D01*
X121741748Y-88535430D01*
X121800713Y-88645744D01*
X121880065Y-88742435D01*
X121957814Y-88806242D01*
X121951458Y-88811458D01*
X121936856Y-88829250D01*
X120365681Y-88829250D01*
X120340752Y-88747070D01*
X120337641Y-88741250D01*
X120340752Y-88735430D01*
X120377062Y-88615732D01*
X120389322Y-88491250D01*
X120386250Y-88177000D01*
X120227500Y-88018250D01*
X119178250Y-88018250D01*
X119178250Y-88038250D01*
X118924250Y-88038250D01*
X118924250Y-88018250D01*
X118904250Y-88018250D01*
X118904250Y-87764250D01*
X118924250Y-87764250D01*
X118924250Y-86815000D01*
X119178250Y-86815000D01*
X119178250Y-87764250D01*
X120227500Y-87764250D01*
X120386250Y-87605500D01*
X120389077Y-87316250D01*
X121693178Y-87316250D01*
X121696250Y-87518000D01*
X121855000Y-87676750D01*
X122904250Y-87676750D01*
X122904250Y-86840000D01*
X123158250Y-86840000D01*
X123158250Y-87676750D01*
X124207500Y-87676750D01*
X124366250Y-87518000D01*
X124369322Y-87316250D01*
X124357062Y-87191768D01*
X124320752Y-87072070D01*
X124261787Y-86961756D01*
X124182435Y-86865065D01*
X124085744Y-86785713D01*
X123975430Y-86726748D01*
X123855732Y-86690438D01*
X123731250Y-86678178D01*
X123317000Y-86681250D01*
X123158250Y-86840000D01*
X122904250Y-86840000D01*
X122745500Y-86681250D01*
X122331250Y-86678178D01*
X122206768Y-86690438D01*
X122087070Y-86726748D01*
X121976756Y-86785713D01*
X121880065Y-86865065D01*
X121800713Y-86961756D01*
X121741748Y-87072070D01*
X121705438Y-87191768D01*
X121693178Y-87316250D01*
X120389077Y-87316250D01*
X120389322Y-87291250D01*
X120377062Y-87166768D01*
X120340752Y-87047070D01*
X120281787Y-86936756D01*
X120202435Y-86840065D01*
X120105744Y-86760713D01*
X119995430Y-86701748D01*
X119875732Y-86665438D01*
X119751250Y-86653178D01*
X119337000Y-86656250D01*
X119178250Y-86815000D01*
X118924250Y-86815000D01*
X118765500Y-86656250D01*
X118351250Y-86653178D01*
X118226768Y-86665438D01*
X118107070Y-86701748D01*
X117996756Y-86760713D01*
X117951250Y-86798059D01*
X117905744Y-86760713D01*
X117795430Y-86701748D01*
X117675732Y-86665438D01*
X117551250Y-86653178D01*
X116151250Y-86653178D01*
X116026768Y-86665438D01*
X115907070Y-86701748D01*
X115796756Y-86760713D01*
X115700065Y-86840065D01*
X115620713Y-86936756D01*
X115561748Y-87047070D01*
X115536819Y-87129250D01*
X114092332Y-87129250D01*
X114060708Y-87070086D01*
X113951042Y-86936458D01*
X113817414Y-86826792D01*
X113664959Y-86745303D01*
X113499535Y-86695122D01*
X113327500Y-86678178D01*
X112415000Y-86678178D01*
X112242965Y-86695122D01*
X112077541Y-86745303D01*
X111925086Y-86826792D01*
X111791458Y-86936458D01*
X111681792Y-87070086D01*
X111600303Y-87222541D01*
X111550122Y-87387965D01*
X111533178Y-87560000D01*
X111533178Y-88047500D01*
X111550122Y-88219535D01*
X111600303Y-88384959D01*
X111681792Y-88537414D01*
X111791458Y-88671042D01*
X111797814Y-88676258D01*
X111720065Y-88740065D01*
X111640713Y-88836756D01*
X111581748Y-88947070D01*
X111545438Y-89066768D01*
X111533178Y-89191250D01*
X111536250Y-89393000D01*
X111695000Y-89551750D01*
X112744250Y-89551750D01*
X112744250Y-89531750D01*
X112998250Y-89531750D01*
X112998250Y-89551750D01*
X114047500Y-89551750D01*
X114206250Y-89393000D01*
X114209322Y-89191250D01*
X114197062Y-89066768D01*
X114160752Y-88947070D01*
X114101787Y-88836756D01*
X114022435Y-88740065D01*
X113944686Y-88676258D01*
X113951042Y-88671042D01*
X113965644Y-88653250D01*
X115062249Y-88653250D01*
X115062250Y-91862448D01*
X115058563Y-91899881D01*
X115073276Y-92049259D01*
X115116848Y-92192896D01*
X115187604Y-92325273D01*
X115258970Y-92412232D01*
X115282828Y-92441303D01*
X115311898Y-92465160D01*
X116191251Y-93344514D01*
X116191251Y-94088851D01*
X116137791Y-94023709D01*
X116132573Y-94019426D01*
X116128290Y-94014208D01*
X116002591Y-93911050D01*
X115859183Y-93834396D01*
X115703575Y-93787193D01*
X115582302Y-93775249D01*
X115582299Y-93775249D01*
X115541749Y-93771255D01*
X115501199Y-93775249D01*
X112521010Y-93775249D01*
X111996976Y-93251216D01*
X111971119Y-93219709D01*
X111845420Y-93116551D01*
X111702012Y-93039897D01*
X111546404Y-92992694D01*
X111447117Y-92982915D01*
X111411042Y-92938958D01*
X111404686Y-92933742D01*
X111482435Y-92869935D01*
X111561787Y-92773244D01*
X111620752Y-92662930D01*
X111657062Y-92543232D01*
X111669322Y-92418750D01*
X111666250Y-92217000D01*
X111507500Y-92058250D01*
X110458250Y-92058250D01*
X110458250Y-92078250D01*
X110204250Y-92078250D01*
X110204250Y-92058250D01*
X109155000Y-92058250D01*
X108996250Y-92217000D01*
X108993178Y-92418750D01*
X109005438Y-92543232D01*
X109041748Y-92662930D01*
X109100713Y-92773244D01*
X109180065Y-92869935D01*
X109257814Y-92933742D01*
X109251458Y-92938958D01*
X109141792Y-93072586D01*
X109060303Y-93225041D01*
X109010122Y-93390465D01*
X108993178Y-93562500D01*
X108993178Y-94050000D01*
X109010122Y-94222035D01*
X109060303Y-94387459D01*
X109141792Y-94539914D01*
X109251458Y-94673542D01*
X109302067Y-94715076D01*
X109296250Y-94744321D01*
X109296250Y-94811260D01*
X108256390Y-94811260D01*
X106587825Y-93142695D01*
X106589322Y-93127500D01*
X106589322Y-92640000D01*
X106572378Y-92467965D01*
X106522197Y-92302541D01*
X106440708Y-92150086D01*
X106331042Y-92016458D01*
X106197414Y-91906792D01*
X106044959Y-91825303D01*
X105879535Y-91775122D01*
X105707500Y-91758178D01*
X104795000Y-91758178D01*
X104622965Y-91775122D01*
X104457541Y-91825303D01*
X104305086Y-91906792D01*
X104171458Y-92016458D01*
X104097357Y-92106750D01*
X103889211Y-92106750D01*
X103847274Y-92064813D01*
X103677756Y-91951545D01*
X103489398Y-91873524D01*
X103289439Y-91833750D01*
X103085561Y-91833750D01*
X102885602Y-91873524D01*
X102697244Y-91951545D01*
X102527726Y-92064813D01*
X102383563Y-92208976D01*
X102270295Y-92378494D01*
X102192274Y-92566852D01*
X102152500Y-92766811D01*
X102152500Y-92970689D01*
X102192274Y-93170648D01*
X102270295Y-93359006D01*
X102383563Y-93528524D01*
X102527726Y-93672687D01*
X102697244Y-93785955D01*
X102885602Y-93863976D01*
X103085561Y-93903750D01*
X103289439Y-93903750D01*
X103489398Y-93863976D01*
X103677756Y-93785955D01*
X103847274Y-93672687D01*
X103889211Y-93630750D01*
X104072737Y-93630750D01*
X104171458Y-93751042D01*
X104257006Y-93821250D01*
X104171458Y-93891458D01*
X104061792Y-94025086D01*
X103980303Y-94177541D01*
X103930122Y-94342965D01*
X103913178Y-94515000D01*
X103913178Y-95002500D01*
X103930122Y-95174535D01*
X103980303Y-95339959D01*
X104061792Y-95492414D01*
X104171458Y-95626042D01*
X104305086Y-95735708D01*
X104425751Y-95800205D01*
X104425751Y-96479440D01*
X104421756Y-96520000D01*
X104437695Y-96681826D01*
X104484897Y-96837433D01*
X104533750Y-96928830D01*
X104533750Y-96939439D01*
X104573524Y-97139398D01*
X104651545Y-97327756D01*
X104764813Y-97497274D01*
X104908976Y-97641437D01*
X105078494Y-97754705D01*
X105266852Y-97832726D01*
X105428746Y-97864928D01*
X105539180Y-97975363D01*
X105436595Y-98100364D01*
X105354528Y-98253900D01*
X105303992Y-98420496D01*
X105286928Y-98593750D01*
X105286928Y-98694064D01*
X101347318Y-94754456D01*
X101321461Y-94722949D01*
X101195762Y-94619791D01*
X101052354Y-94543137D01*
X100896746Y-94495934D01*
X100775473Y-94483990D01*
X100775470Y-94483990D01*
X100734920Y-94479996D01*
X100694370Y-94483990D01*
X100556822Y-94483990D01*
X100556822Y-94068750D01*
X100539878Y-93896715D01*
X100489697Y-93731291D01*
X100408208Y-93578836D01*
X100298542Y-93445208D01*
X100164914Y-93335542D01*
X100012459Y-93254053D01*
X99847035Y-93203872D01*
X99675000Y-93186928D01*
X99187000Y-93186928D01*
X99187000Y-91443750D01*
X108993178Y-91443750D01*
X108996250Y-91645500D01*
X109155000Y-91804250D01*
X110204250Y-91804250D01*
X110204250Y-90967500D01*
X110458250Y-90967500D01*
X110458250Y-91804250D01*
X111507500Y-91804250D01*
X111666250Y-91645500D01*
X111669322Y-91443750D01*
X111657062Y-91319268D01*
X111620752Y-91199570D01*
X111561787Y-91089256D01*
X111482435Y-90992565D01*
X111385744Y-90913213D01*
X111275430Y-90854248D01*
X111155732Y-90817938D01*
X111031250Y-90805678D01*
X110617000Y-90808750D01*
X110458250Y-90967500D01*
X110204250Y-90967500D01*
X110045500Y-90808750D01*
X109631250Y-90805678D01*
X109506768Y-90817938D01*
X109387070Y-90854248D01*
X109276756Y-90913213D01*
X109180065Y-90992565D01*
X109100713Y-91089256D01*
X109041748Y-91199570D01*
X109005438Y-91319268D01*
X108993178Y-91443750D01*
X99187000Y-91443750D01*
X99187000Y-90400572D01*
X99475000Y-90400572D01*
X99599482Y-90388312D01*
X99624266Y-90380794D01*
X99643639Y-90386904D01*
X99743250Y-90397500D01*
X99902000Y-90238750D01*
X99902000Y-90233533D01*
X99926185Y-90213685D01*
X100005537Y-90116994D01*
X100064502Y-90006680D01*
X100100812Y-89886982D01*
X100113072Y-89762500D01*
X100113072Y-87512500D01*
X100100812Y-87388018D01*
X100064502Y-87268320D01*
X100005537Y-87158006D01*
X99926185Y-87061315D01*
X99902000Y-87041467D01*
X99902000Y-87036250D01*
X99743250Y-86877500D01*
X99643639Y-86888096D01*
X99624266Y-86894206D01*
X99599482Y-86886688D01*
X99475000Y-86874428D01*
X98975000Y-86874428D01*
X98850518Y-86886688D01*
X98825000Y-86894429D01*
X98799482Y-86886688D01*
X98675000Y-86874428D01*
X98175000Y-86874428D01*
X98050518Y-86886688D01*
X98025000Y-86894429D01*
X97999482Y-86886688D01*
X97875000Y-86874428D01*
X97375000Y-86874428D01*
X97250518Y-86886688D01*
X97225000Y-86894429D01*
X97199482Y-86886688D01*
X97075000Y-86874428D01*
X96575000Y-86874428D01*
X96450518Y-86886688D01*
X96330820Y-86922998D01*
X96220506Y-86981963D01*
X96123815Y-87061315D01*
X96044463Y-87158006D01*
X95985498Y-87268320D01*
X95984754Y-87270771D01*
X95830134Y-87082366D01*
X95604014Y-86896794D01*
X95537000Y-86860974D01*
X95537000Y-85914025D01*
X95604013Y-85878206D01*
X95830134Y-85692634D01*
X96015706Y-85466514D01*
X96153599Y-85208534D01*
X96238513Y-84928611D01*
X96241380Y-84899500D01*
X100608620Y-84899500D01*
X100611487Y-84928610D01*
X100696401Y-85208533D01*
X100834294Y-85466513D01*
X101019866Y-85692634D01*
X101245986Y-85878206D01*
X101313000Y-85914026D01*
X101313001Y-86860975D01*
X101245987Y-86896794D01*
X101019867Y-87082366D01*
X100865123Y-87270921D01*
X100809406Y-87163866D01*
X100731123Y-87066307D01*
X100635311Y-86985896D01*
X100525652Y-86925721D01*
X100406361Y-86888096D01*
X100306750Y-86877500D01*
X100148000Y-87036250D01*
X100148000Y-88510500D01*
X100172000Y-88510500D01*
X100172000Y-88764500D01*
X100148000Y-88764500D01*
X100148000Y-90238750D01*
X100306750Y-90397500D01*
X100406361Y-90386904D01*
X100525652Y-90349279D01*
X100635311Y-90289104D01*
X100731123Y-90208693D01*
X100809406Y-90111134D01*
X100865123Y-90004078D01*
X101019866Y-90192634D01*
X101245986Y-90378206D01*
X101503966Y-90516099D01*
X101783889Y-90601013D01*
X102075000Y-90629685D01*
X102366110Y-90601013D01*
X102646033Y-90516099D01*
X102904013Y-90378206D01*
X103130134Y-90192634D01*
X103151786Y-90166250D01*
X111533178Y-90166250D01*
X111545438Y-90290732D01*
X111581748Y-90410430D01*
X111640713Y-90520744D01*
X111720065Y-90617435D01*
X111816756Y-90696787D01*
X111927070Y-90755752D01*
X112046768Y-90792062D01*
X112171250Y-90804322D01*
X112585500Y-90801250D01*
X112744250Y-90642500D01*
X112744250Y-89805750D01*
X112998250Y-89805750D01*
X112998250Y-90642500D01*
X113157000Y-90801250D01*
X113571250Y-90804322D01*
X113695732Y-90792062D01*
X113815430Y-90755752D01*
X113925744Y-90696787D01*
X114022435Y-90617435D01*
X114101787Y-90520744D01*
X114160752Y-90410430D01*
X114197062Y-90290732D01*
X114209322Y-90166250D01*
X114206250Y-89964500D01*
X114047500Y-89805750D01*
X112998250Y-89805750D01*
X112744250Y-89805750D01*
X111695000Y-89805750D01*
X111536250Y-89964500D01*
X111533178Y-90166250D01*
X103151786Y-90166250D01*
X103315706Y-89966514D01*
X103453599Y-89708534D01*
X103538513Y-89428611D01*
X103560000Y-89210450D01*
X103560000Y-88064550D01*
X103538513Y-87846389D01*
X103453599Y-87566466D01*
X103315706Y-87308486D01*
X103130134Y-87082366D01*
X102904014Y-86896794D01*
X102837000Y-86860974D01*
X102837000Y-85914025D01*
X102904013Y-85878206D01*
X103130134Y-85692634D01*
X103315706Y-85466514D01*
X103453599Y-85208534D01*
X103538513Y-84928611D01*
X103560000Y-84710450D01*
X103560000Y-83564550D01*
X103550761Y-83470750D01*
X130048000Y-83470750D01*
X130048000Y-96601235D01*
X130048000Y-96601235D01*
G37*
X130048000Y-96601235D02*
X129873102Y-96636024D01*
X129684744Y-96714045D01*
X129547497Y-96805750D01*
X129408955Y-96805750D01*
X129382197Y-96717541D01*
X129300708Y-96565086D01*
X129191042Y-96431458D01*
X129184686Y-96426242D01*
X129262435Y-96362435D01*
X129341787Y-96265744D01*
X129400752Y-96155430D01*
X129437062Y-96035732D01*
X129449322Y-95911250D01*
X129446250Y-95709500D01*
X129287500Y-95550750D01*
X128238250Y-95550750D01*
X128238250Y-95570750D01*
X127984250Y-95570750D01*
X127984250Y-95550750D01*
X126935000Y-95550750D01*
X126776250Y-95709500D01*
X126773178Y-95911250D01*
X126785438Y-96035732D01*
X126821748Y-96155430D01*
X126880713Y-96265744D01*
X126960065Y-96362435D01*
X127037814Y-96426242D01*
X127031458Y-96431458D01*
X126921792Y-96565086D01*
X126917445Y-96573219D01*
X126850407Y-96609051D01*
X126817920Y-96635713D01*
X126724709Y-96712209D01*
X126698856Y-96743711D01*
X126026818Y-97415750D01*
X125036250Y-97415750D01*
X125036250Y-97314248D01*
X124877502Y-97314248D01*
X125036250Y-97155500D01*
X125026427Y-97038619D01*
X124989515Y-96919105D01*
X124929996Y-96809089D01*
X124850158Y-96712799D01*
X124753068Y-96633934D01*
X124642458Y-96575526D01*
X124522579Y-96539820D01*
X124398037Y-96528186D01*
X123937000Y-96531250D01*
X123778250Y-96690000D01*
X123778250Y-97314250D01*
X123798250Y-97314250D01*
X123798250Y-97328178D01*
X122901250Y-97328178D01*
X122776768Y-97340438D01*
X122657070Y-97376748D01*
X122546756Y-97435713D01*
X122450065Y-97515065D01*
X122370713Y-97611756D01*
X122358333Y-97634917D01*
X122266250Y-97727000D01*
X122275796Y-97840587D01*
X122275438Y-97841768D01*
X122263178Y-97966250D01*
X122263178Y-98516250D01*
X122275438Y-98640732D01*
X122275595Y-98641250D01*
X122275438Y-98641768D01*
X122263178Y-98766250D01*
X122263178Y-99316250D01*
X122275438Y-99440732D01*
X122275595Y-99441250D01*
X122275438Y-99441768D01*
X122263178Y-99566250D01*
X122263178Y-100116250D01*
X122275438Y-100240732D01*
X122275595Y-100241250D01*
X122275438Y-100241768D01*
X122263178Y-100366250D01*
X122263178Y-100916250D01*
X122275438Y-101040732D01*
X122275595Y-101041250D01*
X122275438Y-101041768D01*
X122263178Y-101166250D01*
X122263178Y-101716250D01*
X122275438Y-101840732D01*
X122275595Y-101841250D01*
X122275438Y-101841768D01*
X122263178Y-101966250D01*
X122263178Y-102516250D01*
X122275438Y-102640732D01*
X122275595Y-102641250D01*
X122275438Y-102641768D01*
X122263178Y-102766250D01*
X122263178Y-103316250D01*
X122275438Y-103440732D01*
X122275595Y-103441250D01*
X122275438Y-103441768D01*
X122263178Y-103566250D01*
X122263178Y-104116250D01*
X122275438Y-104240732D01*
X122275595Y-104241250D01*
X122275438Y-104241768D01*
X122263178Y-104366250D01*
X122263178Y-104916250D01*
X122275438Y-105040732D01*
X122275595Y-105041250D01*
X122275438Y-105041768D01*
X122263178Y-105166250D01*
X122263178Y-105716250D01*
X122267212Y-105757212D01*
X122226250Y-105753178D01*
X121676250Y-105753178D01*
X121551768Y-105765438D01*
X121550587Y-105765796D01*
X121437000Y-105756250D01*
X121344917Y-105848333D01*
X121321756Y-105860713D01*
X121225065Y-105940065D01*
X121151250Y-106030009D01*
X121077435Y-105940065D01*
X120980744Y-105860713D01*
X120957583Y-105848333D01*
X120865500Y-105756250D01*
X120751913Y-105765796D01*
X120750732Y-105765438D01*
X120626250Y-105753178D01*
X120076250Y-105753178D01*
X119951768Y-105765438D01*
X119951250Y-105765595D01*
X119950732Y-105765438D01*
X119826250Y-105753178D01*
X119276250Y-105753178D01*
X119151768Y-105765438D01*
X119151250Y-105765595D01*
X119150732Y-105765438D01*
X119026250Y-105753178D01*
X118476250Y-105753178D01*
X118351768Y-105765438D01*
X118351250Y-105765595D01*
X118350732Y-105765438D01*
X118226250Y-105753178D01*
X117676250Y-105753178D01*
X117551768Y-105765438D01*
X117551250Y-105765595D01*
X117550732Y-105765438D01*
X117426250Y-105753178D01*
X116876250Y-105753178D01*
X116751768Y-105765438D01*
X116751250Y-105765595D01*
X116750732Y-105765438D01*
X116626250Y-105753178D01*
X116076250Y-105753178D01*
X115951768Y-105765438D01*
X115951250Y-105765595D01*
X115950732Y-105765438D01*
X115826250Y-105753178D01*
X115276250Y-105753178D01*
X115151768Y-105765438D01*
X115150587Y-105765796D01*
X115037000Y-105756250D01*
X114944917Y-105848333D01*
X114921756Y-105860713D01*
X114825065Y-105940065D01*
X114751250Y-106030009D01*
X114677435Y-105940065D01*
X114580744Y-105860713D01*
X114557583Y-105848333D01*
X114465500Y-105756250D01*
X114351913Y-105765796D01*
X114350732Y-105765438D01*
X114226250Y-105753178D01*
X113676250Y-105753178D01*
X113635288Y-105757212D01*
X113639322Y-105716250D01*
X113639322Y-105166250D01*
X113627062Y-105041768D01*
X113626905Y-105041250D01*
X113627062Y-105040732D01*
X113639322Y-104916250D01*
X113639322Y-104366250D01*
X113627062Y-104241768D01*
X113626905Y-104241250D01*
X113627062Y-104240732D01*
X113639322Y-104116250D01*
X113639322Y-103566250D01*
X113627062Y-103441768D01*
X113626905Y-103441250D01*
X113627062Y-103440732D01*
X113639322Y-103316250D01*
X113639322Y-102766250D01*
X113627062Y-102641768D01*
X113626704Y-102640587D01*
X113636250Y-102527000D01*
X113544167Y-102434917D01*
X113531787Y-102411756D01*
X113452435Y-102315065D01*
X113362491Y-102241250D01*
X113452435Y-102167435D01*
X113531787Y-102070744D01*
X113544167Y-102047583D01*
X113636250Y-101955500D01*
X113626704Y-101841913D01*
X113627062Y-101840732D01*
X113639322Y-101716250D01*
X113639322Y-101166250D01*
X113627062Y-101041768D01*
X113626905Y-101041250D01*
X113627062Y-101040732D01*
X113639322Y-100916250D01*
X113639322Y-100366250D01*
X113627062Y-100241768D01*
X113626905Y-100241250D01*
X113627062Y-100240732D01*
X113639322Y-100116250D01*
X113639322Y-99566250D01*
X113627062Y-99441768D01*
X113626905Y-99441250D01*
X113627062Y-99440732D01*
X113639322Y-99316250D01*
X113639322Y-98766250D01*
X113627062Y-98641768D01*
X113626905Y-98641250D01*
X113627062Y-98640732D01*
X113639322Y-98516250D01*
X113639322Y-97966250D01*
X113627062Y-97841768D01*
X113626905Y-97841250D01*
X113627062Y-97840732D01*
X113639322Y-97716250D01*
X113639322Y-97580251D01*
X114450428Y-97580251D01*
X114487851Y-97583937D01*
X114525274Y-97580251D01*
X114525277Y-97580251D01*
X114637229Y-97569225D01*
X114780866Y-97525653D01*
X114913243Y-97454896D01*
X115029273Y-97359673D01*
X115053135Y-97330597D01*
X115256368Y-97127364D01*
X115276250Y-97129322D01*
X115826250Y-97129322D01*
X115950732Y-97117062D01*
X115951913Y-97116704D01*
X116065500Y-97126250D01*
X116157583Y-97034167D01*
X116180744Y-97021787D01*
X116277435Y-96942435D01*
X116351250Y-96852491D01*
X116425065Y-96942435D01*
X116521756Y-97021787D01*
X116544917Y-97034167D01*
X116637000Y-97126250D01*
X116750587Y-97116704D01*
X116751768Y-97117062D01*
X116876250Y-97129322D01*
X117426250Y-97129322D01*
X117550732Y-97117062D01*
X117551250Y-97116905D01*
X117551768Y-97117062D01*
X117676250Y-97129322D01*
X118226250Y-97129322D01*
X118350732Y-97117062D01*
X118351250Y-97116905D01*
X118351768Y-97117062D01*
X118476250Y-97129322D01*
X119026250Y-97129322D01*
X119150732Y-97117062D01*
X119151250Y-97116905D01*
X119151768Y-97117062D01*
X119276250Y-97129322D01*
X119826250Y-97129322D01*
X119950732Y-97117062D01*
X119951250Y-97116905D01*
X119951768Y-97117062D01*
X120076250Y-97129322D01*
X120626250Y-97129322D01*
X120750732Y-97117062D01*
X120751250Y-97116905D01*
X120751768Y-97117062D01*
X120876250Y-97129322D01*
X121426250Y-97129322D01*
X121550732Y-97117062D01*
X121551250Y-97116905D01*
X121551768Y-97117062D01*
X121676250Y-97129322D01*
X122226250Y-97129322D01*
X122268802Y-97125131D01*
X122266250Y-97155500D01*
X122425000Y-97314250D01*
X123524250Y-97314250D01*
X123524250Y-96690000D01*
X123365500Y-96531250D01*
X122904463Y-96528186D01*
X122860278Y-96532314D01*
X122864322Y-96491250D01*
X122864322Y-94991250D01*
X122858906Y-94936250D01*
X126773178Y-94936250D01*
X126776250Y-95138000D01*
X126935000Y-95296750D01*
X127984250Y-95296750D01*
X127984250Y-94460000D01*
X128238250Y-94460000D01*
X128238250Y-95296750D01*
X129287500Y-95296750D01*
X129446250Y-95138000D01*
X129449322Y-94936250D01*
X129437062Y-94811768D01*
X129400752Y-94692070D01*
X129341787Y-94581756D01*
X129262435Y-94485065D01*
X129165744Y-94405713D01*
X129055430Y-94346748D01*
X128935732Y-94310438D01*
X128811250Y-94298178D01*
X128397000Y-94301250D01*
X128238250Y-94460000D01*
X127984250Y-94460000D01*
X127825500Y-94301250D01*
X127411250Y-94298178D01*
X127286768Y-94310438D01*
X127167070Y-94346748D01*
X127056756Y-94405713D01*
X126960065Y-94485065D01*
X126880713Y-94581756D01*
X126821748Y-94692070D01*
X126785438Y-94811768D01*
X126773178Y-94936250D01*
X122858906Y-94936250D01*
X122852062Y-94866768D01*
X122815752Y-94747070D01*
X122756787Y-94636756D01*
X122677435Y-94540065D01*
X122580744Y-94460713D01*
X122470430Y-94401748D01*
X122350732Y-94365438D01*
X122226250Y-94353178D01*
X121676250Y-94353178D01*
X121551768Y-94365438D01*
X121551250Y-94365595D01*
X121550732Y-94365438D01*
X121426250Y-94353178D01*
X120876250Y-94353178D01*
X120751768Y-94365438D01*
X120751250Y-94365595D01*
X120750732Y-94365438D01*
X120626250Y-94353178D01*
X120076250Y-94353178D01*
X119951768Y-94365438D01*
X119951250Y-94365595D01*
X119950732Y-94365438D01*
X119826250Y-94353178D01*
X119276250Y-94353178D01*
X119151768Y-94365438D01*
X119151250Y-94365595D01*
X119150732Y-94365438D01*
X119026250Y-94353178D01*
X118713250Y-94353178D01*
X118713250Y-91860880D01*
X119563602Y-91010529D01*
X119592672Y-90986672D01*
X119656740Y-90908605D01*
X119687895Y-90870643D01*
X119709981Y-90829322D01*
X119751250Y-90829322D01*
X119875732Y-90817062D01*
X119995430Y-90780752D01*
X120105744Y-90721787D01*
X120202435Y-90642435D01*
X120281787Y-90545744D01*
X120340752Y-90435430D01*
X120365681Y-90353250D01*
X121810168Y-90353250D01*
X121841792Y-90412414D01*
X121951458Y-90546042D01*
X122085086Y-90655708D01*
X122237541Y-90737197D01*
X122402965Y-90787378D01*
X122575000Y-90804322D01*
X123487500Y-90804322D01*
X123659535Y-90787378D01*
X123824959Y-90737197D01*
X123977414Y-90655708D01*
X124111042Y-90546042D01*
X124220708Y-90412414D01*
X124302197Y-90259959D01*
X124352378Y-90094535D01*
X124369322Y-89922500D01*
X124369322Y-89435000D01*
X124352378Y-89262965D01*
X124302197Y-89097541D01*
X124220708Y-88945086D01*
X124111042Y-88811458D01*
X124104686Y-88806242D01*
X124182435Y-88742435D01*
X124261787Y-88645744D01*
X124320752Y-88535430D01*
X124357062Y-88415732D01*
X124369322Y-88291250D01*
X124366250Y-88089500D01*
X124207500Y-87930750D01*
X123158250Y-87930750D01*
X123158250Y-87950750D01*
X122904250Y-87950750D01*
X122904250Y-87930750D01*
X121855000Y-87930750D01*
X121696250Y-88089500D01*
X121693178Y-88291250D01*
X121705438Y-88415732D01*
X121741748Y-88535430D01*
X121800713Y-88645744D01*
X121880065Y-88742435D01*
X121957814Y-88806242D01*
X121951458Y-88811458D01*
X121936856Y-88829250D01*
X120365681Y-88829250D01*
X120340752Y-88747070D01*
X120337641Y-88741250D01*
X120340752Y-88735430D01*
X120377062Y-88615732D01*
X120389322Y-88491250D01*
X120386250Y-88177000D01*
X120227500Y-88018250D01*
X119178250Y-88018250D01*
X119178250Y-88038250D01*
X118924250Y-88038250D01*
X118924250Y-88018250D01*
X118904250Y-88018250D01*
X118904250Y-87764250D01*
X118924250Y-87764250D01*
X118924250Y-86815000D01*
X119178250Y-86815000D01*
X119178250Y-87764250D01*
X120227500Y-87764250D01*
X120386250Y-87605500D01*
X120389077Y-87316250D01*
X121693178Y-87316250D01*
X121696250Y-87518000D01*
X121855000Y-87676750D01*
X122904250Y-87676750D01*
X122904250Y-86840000D01*
X123158250Y-86840000D01*
X123158250Y-87676750D01*
X124207500Y-87676750D01*
X124366250Y-87518000D01*
X124369322Y-87316250D01*
X124357062Y-87191768D01*
X124320752Y-87072070D01*
X124261787Y-86961756D01*
X124182435Y-86865065D01*
X124085744Y-86785713D01*
X123975430Y-86726748D01*
X123855732Y-86690438D01*
X123731250Y-86678178D01*
X123317000Y-86681250D01*
X123158250Y-86840000D01*
X122904250Y-86840000D01*
X122745500Y-86681250D01*
X122331250Y-86678178D01*
X122206768Y-86690438D01*
X122087070Y-86726748D01*
X121976756Y-86785713D01*
X121880065Y-86865065D01*
X121800713Y-86961756D01*
X121741748Y-87072070D01*
X121705438Y-87191768D01*
X121693178Y-87316250D01*
X120389077Y-87316250D01*
X120389322Y-87291250D01*
X120377062Y-87166768D01*
X120340752Y-87047070D01*
X120281787Y-86936756D01*
X120202435Y-86840065D01*
X120105744Y-86760713D01*
X119995430Y-86701748D01*
X119875732Y-86665438D01*
X119751250Y-86653178D01*
X119337000Y-86656250D01*
X119178250Y-86815000D01*
X118924250Y-86815000D01*
X118765500Y-86656250D01*
X118351250Y-86653178D01*
X118226768Y-86665438D01*
X118107070Y-86701748D01*
X117996756Y-86760713D01*
X117951250Y-86798059D01*
X117905744Y-86760713D01*
X117795430Y-86701748D01*
X117675732Y-86665438D01*
X117551250Y-86653178D01*
X116151250Y-86653178D01*
X116026768Y-86665438D01*
X115907070Y-86701748D01*
X115796756Y-86760713D01*
X115700065Y-86840065D01*
X115620713Y-86936756D01*
X115561748Y-87047070D01*
X115536819Y-87129250D01*
X114092332Y-87129250D01*
X114060708Y-87070086D01*
X113951042Y-86936458D01*
X113817414Y-86826792D01*
X113664959Y-86745303D01*
X113499535Y-86695122D01*
X113327500Y-86678178D01*
X112415000Y-86678178D01*
X112242965Y-86695122D01*
X112077541Y-86745303D01*
X111925086Y-86826792D01*
X111791458Y-86936458D01*
X111681792Y-87070086D01*
X111600303Y-87222541D01*
X111550122Y-87387965D01*
X111533178Y-87560000D01*
X111533178Y-88047500D01*
X111550122Y-88219535D01*
X111600303Y-88384959D01*
X111681792Y-88537414D01*
X111791458Y-88671042D01*
X111797814Y-88676258D01*
X111720065Y-88740065D01*
X111640713Y-88836756D01*
X111581748Y-88947070D01*
X111545438Y-89066768D01*
X111533178Y-89191250D01*
X111536250Y-89393000D01*
X111695000Y-89551750D01*
X112744250Y-89551750D01*
X112744250Y-89531750D01*
X112998250Y-89531750D01*
X112998250Y-89551750D01*
X114047500Y-89551750D01*
X114206250Y-89393000D01*
X114209322Y-89191250D01*
X114197062Y-89066768D01*
X114160752Y-88947070D01*
X114101787Y-88836756D01*
X114022435Y-88740065D01*
X113944686Y-88676258D01*
X113951042Y-88671042D01*
X113965644Y-88653250D01*
X115062249Y-88653250D01*
X115062250Y-91862448D01*
X115058563Y-91899881D01*
X115073276Y-92049259D01*
X115116848Y-92192896D01*
X115187604Y-92325273D01*
X115258970Y-92412232D01*
X115282828Y-92441303D01*
X115311898Y-92465160D01*
X116191251Y-93344514D01*
X116191251Y-94088851D01*
X116137791Y-94023709D01*
X116132573Y-94019426D01*
X116128290Y-94014208D01*
X116002591Y-93911050D01*
X115859183Y-93834396D01*
X115703575Y-93787193D01*
X115582302Y-93775249D01*
X115582299Y-93775249D01*
X115541749Y-93771255D01*
X115501199Y-93775249D01*
X112521010Y-93775249D01*
X111996976Y-93251216D01*
X111971119Y-93219709D01*
X111845420Y-93116551D01*
X111702012Y-93039897D01*
X111546404Y-92992694D01*
X111447117Y-92982915D01*
X111411042Y-92938958D01*
X111404686Y-92933742D01*
X111482435Y-92869935D01*
X111561787Y-92773244D01*
X111620752Y-92662930D01*
X111657062Y-92543232D01*
X111669322Y-92418750D01*
X111666250Y-92217000D01*
X111507500Y-92058250D01*
X110458250Y-92058250D01*
X110458250Y-92078250D01*
X110204250Y-92078250D01*
X110204250Y-92058250D01*
X109155000Y-92058250D01*
X108996250Y-92217000D01*
X108993178Y-92418750D01*
X109005438Y-92543232D01*
X109041748Y-92662930D01*
X109100713Y-92773244D01*
X109180065Y-92869935D01*
X109257814Y-92933742D01*
X109251458Y-92938958D01*
X109141792Y-93072586D01*
X109060303Y-93225041D01*
X109010122Y-93390465D01*
X108993178Y-93562500D01*
X108993178Y-94050000D01*
X109010122Y-94222035D01*
X109060303Y-94387459D01*
X109141792Y-94539914D01*
X109251458Y-94673542D01*
X109302067Y-94715076D01*
X109296250Y-94744321D01*
X109296250Y-94811260D01*
X108256390Y-94811260D01*
X106587825Y-93142695D01*
X106589322Y-93127500D01*
X106589322Y-92640000D01*
X106572378Y-92467965D01*
X106522197Y-92302541D01*
X106440708Y-92150086D01*
X106331042Y-92016458D01*
X106197414Y-91906792D01*
X106044959Y-91825303D01*
X105879535Y-91775122D01*
X105707500Y-91758178D01*
X104795000Y-91758178D01*
X104622965Y-91775122D01*
X104457541Y-91825303D01*
X104305086Y-91906792D01*
X104171458Y-92016458D01*
X104097357Y-92106750D01*
X103889211Y-92106750D01*
X103847274Y-92064813D01*
X103677756Y-91951545D01*
X103489398Y-91873524D01*
X103289439Y-91833750D01*
X103085561Y-91833750D01*
X102885602Y-91873524D01*
X102697244Y-91951545D01*
X102527726Y-92064813D01*
X102383563Y-92208976D01*
X102270295Y-92378494D01*
X102192274Y-92566852D01*
X102152500Y-92766811D01*
X102152500Y-92970689D01*
X102192274Y-93170648D01*
X102270295Y-93359006D01*
X102383563Y-93528524D01*
X102527726Y-93672687D01*
X102697244Y-93785955D01*
X102885602Y-93863976D01*
X103085561Y-93903750D01*
X103289439Y-93903750D01*
X103489398Y-93863976D01*
X103677756Y-93785955D01*
X103847274Y-93672687D01*
X103889211Y-93630750D01*
X104072737Y-93630750D01*
X104171458Y-93751042D01*
X104257006Y-93821250D01*
X104171458Y-93891458D01*
X104061792Y-94025086D01*
X103980303Y-94177541D01*
X103930122Y-94342965D01*
X103913178Y-94515000D01*
X103913178Y-95002500D01*
X103930122Y-95174535D01*
X103980303Y-95339959D01*
X104061792Y-95492414D01*
X104171458Y-95626042D01*
X104305086Y-95735708D01*
X104425751Y-95800205D01*
X104425751Y-96479440D01*
X104421756Y-96520000D01*
X104437695Y-96681826D01*
X104484897Y-96837433D01*
X104533750Y-96928830D01*
X104533750Y-96939439D01*
X104573524Y-97139398D01*
X104651545Y-97327756D01*
X104764813Y-97497274D01*
X104908976Y-97641437D01*
X105078494Y-97754705D01*
X105266852Y-97832726D01*
X105428746Y-97864928D01*
X105539180Y-97975363D01*
X105436595Y-98100364D01*
X105354528Y-98253900D01*
X105303992Y-98420496D01*
X105286928Y-98593750D01*
X105286928Y-98694064D01*
X101347318Y-94754456D01*
X101321461Y-94722949D01*
X101195762Y-94619791D01*
X101052354Y-94543137D01*
X100896746Y-94495934D01*
X100775473Y-94483990D01*
X100775470Y-94483990D01*
X100734920Y-94479996D01*
X100694370Y-94483990D01*
X100556822Y-94483990D01*
X100556822Y-94068750D01*
X100539878Y-93896715D01*
X100489697Y-93731291D01*
X100408208Y-93578836D01*
X100298542Y-93445208D01*
X100164914Y-93335542D01*
X100012459Y-93254053D01*
X99847035Y-93203872D01*
X99675000Y-93186928D01*
X99187000Y-93186928D01*
X99187000Y-91443750D01*
X108993178Y-91443750D01*
X108996250Y-91645500D01*
X109155000Y-91804250D01*
X110204250Y-91804250D01*
X110204250Y-90967500D01*
X110458250Y-90967500D01*
X110458250Y-91804250D01*
X111507500Y-91804250D01*
X111666250Y-91645500D01*
X111669322Y-91443750D01*
X111657062Y-91319268D01*
X111620752Y-91199570D01*
X111561787Y-91089256D01*
X111482435Y-90992565D01*
X111385744Y-90913213D01*
X111275430Y-90854248D01*
X111155732Y-90817938D01*
X111031250Y-90805678D01*
X110617000Y-90808750D01*
X110458250Y-90967500D01*
X110204250Y-90967500D01*
X110045500Y-90808750D01*
X109631250Y-90805678D01*
X109506768Y-90817938D01*
X109387070Y-90854248D01*
X109276756Y-90913213D01*
X109180065Y-90992565D01*
X109100713Y-91089256D01*
X109041748Y-91199570D01*
X109005438Y-91319268D01*
X108993178Y-91443750D01*
X99187000Y-91443750D01*
X99187000Y-90400572D01*
X99475000Y-90400572D01*
X99599482Y-90388312D01*
X99624266Y-90380794D01*
X99643639Y-90386904D01*
X99743250Y-90397500D01*
X99902000Y-90238750D01*
X99902000Y-90233533D01*
X99926185Y-90213685D01*
X100005537Y-90116994D01*
X100064502Y-90006680D01*
X100100812Y-89886982D01*
X100113072Y-89762500D01*
X100113072Y-87512500D01*
X100100812Y-87388018D01*
X100064502Y-87268320D01*
X100005537Y-87158006D01*
X99926185Y-87061315D01*
X99902000Y-87041467D01*
X99902000Y-87036250D01*
X99743250Y-86877500D01*
X99643639Y-86888096D01*
X99624266Y-86894206D01*
X99599482Y-86886688D01*
X99475000Y-86874428D01*
X98975000Y-86874428D01*
X98850518Y-86886688D01*
X98825000Y-86894429D01*
X98799482Y-86886688D01*
X98675000Y-86874428D01*
X98175000Y-86874428D01*
X98050518Y-86886688D01*
X98025000Y-86894429D01*
X97999482Y-86886688D01*
X97875000Y-86874428D01*
X97375000Y-86874428D01*
X97250518Y-86886688D01*
X97225000Y-86894429D01*
X97199482Y-86886688D01*
X97075000Y-86874428D01*
X96575000Y-86874428D01*
X96450518Y-86886688D01*
X96330820Y-86922998D01*
X96220506Y-86981963D01*
X96123815Y-87061315D01*
X96044463Y-87158006D01*
X95985498Y-87268320D01*
X95984754Y-87270771D01*
X95830134Y-87082366D01*
X95604014Y-86896794D01*
X95537000Y-86860974D01*
X95537000Y-85914025D01*
X95604013Y-85878206D01*
X95830134Y-85692634D01*
X96015706Y-85466514D01*
X96153599Y-85208534D01*
X96238513Y-84928611D01*
X96241380Y-84899500D01*
X100608620Y-84899500D01*
X100611487Y-84928610D01*
X100696401Y-85208533D01*
X100834294Y-85466513D01*
X101019866Y-85692634D01*
X101245986Y-85878206D01*
X101313000Y-85914026D01*
X101313001Y-86860975D01*
X101245987Y-86896794D01*
X101019867Y-87082366D01*
X100865123Y-87270921D01*
X100809406Y-87163866D01*
X100731123Y-87066307D01*
X100635311Y-86985896D01*
X100525652Y-86925721D01*
X100406361Y-86888096D01*
X100306750Y-86877500D01*
X100148000Y-87036250D01*
X100148000Y-88510500D01*
X100172000Y-88510500D01*
X100172000Y-88764500D01*
X100148000Y-88764500D01*
X100148000Y-90238750D01*
X100306750Y-90397500D01*
X100406361Y-90386904D01*
X100525652Y-90349279D01*
X100635311Y-90289104D01*
X100731123Y-90208693D01*
X100809406Y-90111134D01*
X100865123Y-90004078D01*
X101019866Y-90192634D01*
X101245986Y-90378206D01*
X101503966Y-90516099D01*
X101783889Y-90601013D01*
X102075000Y-90629685D01*
X102366110Y-90601013D01*
X102646033Y-90516099D01*
X102904013Y-90378206D01*
X103130134Y-90192634D01*
X103151786Y-90166250D01*
X111533178Y-90166250D01*
X111545438Y-90290732D01*
X111581748Y-90410430D01*
X111640713Y-90520744D01*
X111720065Y-90617435D01*
X111816756Y-90696787D01*
X111927070Y-90755752D01*
X112046768Y-90792062D01*
X112171250Y-90804322D01*
X112585500Y-90801250D01*
X112744250Y-90642500D01*
X112744250Y-89805750D01*
X112998250Y-89805750D01*
X112998250Y-90642500D01*
X113157000Y-90801250D01*
X113571250Y-90804322D01*
X113695732Y-90792062D01*
X113815430Y-90755752D01*
X113925744Y-90696787D01*
X114022435Y-90617435D01*
X114101787Y-90520744D01*
X114160752Y-90410430D01*
X114197062Y-90290732D01*
X114209322Y-90166250D01*
X114206250Y-89964500D01*
X114047500Y-89805750D01*
X112998250Y-89805750D01*
X112744250Y-89805750D01*
X111695000Y-89805750D01*
X111536250Y-89964500D01*
X111533178Y-90166250D01*
X103151786Y-90166250D01*
X103315706Y-89966514D01*
X103453599Y-89708534D01*
X103538513Y-89428611D01*
X103560000Y-89210450D01*
X103560000Y-88064550D01*
X103538513Y-87846389D01*
X103453599Y-87566466D01*
X103315706Y-87308486D01*
X103130134Y-87082366D01*
X102904014Y-86896794D01*
X102837000Y-86860974D01*
X102837000Y-85914025D01*
X102904013Y-85878206D01*
X103130134Y-85692634D01*
X103315706Y-85466514D01*
X103453599Y-85208534D01*
X103538513Y-84928611D01*
X103560000Y-84710450D01*
X103560000Y-83564550D01*
X103550761Y-83470750D01*
X130048000Y-83470750D01*
X130048000Y-96601235D01*
G36*
X105297301Y-101039305D02*
G01*
X105323149Y-101070801D01*
X105354645Y-101096649D01*
X105354648Y-101096652D01*
X105448847Y-101173959D01*
X105592256Y-101250613D01*
X105747864Y-101297816D01*
X105869137Y-101309760D01*
X105869139Y-101309760D01*
X105909690Y-101313754D01*
X105950240Y-101309760D01*
X106683717Y-101309760D01*
X106683750Y-101314250D01*
X106842500Y-101473000D01*
X107679250Y-101473000D01*
X107679250Y-101453000D01*
X107933250Y-101453000D01*
X107933250Y-101473000D01*
X107953250Y-101473000D01*
X107953250Y-101727000D01*
X107933250Y-101727000D01*
X107933250Y-101747000D01*
X107679250Y-101747000D01*
X107679250Y-101727000D01*
X106842500Y-101727000D01*
X106683750Y-101885750D01*
X106680678Y-102300000D01*
X106690602Y-102400766D01*
X105560445Y-102425500D01*
X105078772Y-102425500D01*
X99980750Y-97592813D01*
X99980750Y-97255566D01*
X100012459Y-97245947D01*
X100164914Y-97164458D01*
X100298542Y-97054792D01*
X100408208Y-96921164D01*
X100489697Y-96768709D01*
X100539878Y-96603285D01*
X100556822Y-96431250D01*
X100556822Y-96298824D01*
X105297301Y-101039305D01*
X105297301Y-101039305D01*
G37*
X105297301Y-101039305D02*
X105323149Y-101070801D01*
X105354645Y-101096649D01*
X105354648Y-101096652D01*
X105448847Y-101173959D01*
X105592256Y-101250613D01*
X105747864Y-101297816D01*
X105869137Y-101309760D01*
X105869139Y-101309760D01*
X105909690Y-101313754D01*
X105950240Y-101309760D01*
X106683717Y-101309760D01*
X106683750Y-101314250D01*
X106842500Y-101473000D01*
X107679250Y-101473000D01*
X107679250Y-101453000D01*
X107933250Y-101453000D01*
X107933250Y-101473000D01*
X107953250Y-101473000D01*
X107953250Y-101727000D01*
X107933250Y-101727000D01*
X107933250Y-101747000D01*
X107679250Y-101747000D01*
X107679250Y-101727000D01*
X106842500Y-101727000D01*
X106683750Y-101885750D01*
X106680678Y-102300000D01*
X106690602Y-102400766D01*
X105560445Y-102425500D01*
X105078772Y-102425500D01*
X99980750Y-97592813D01*
X99980750Y-97255566D01*
X100012459Y-97245947D01*
X100164914Y-97164458D01*
X100298542Y-97054792D01*
X100408208Y-96921164D01*
X100489697Y-96768709D01*
X100539878Y-96603285D01*
X100556822Y-96431250D01*
X100556822Y-96298824D01*
X105297301Y-101039305D01*
G36*
X116978250Y-89464250D02*
G01*
X116998250Y-89464250D01*
X116998250Y-89718250D01*
X116978250Y-89718250D01*
X116978250Y-90667500D01*
X117137000Y-90826250D01*
X117551250Y-90829322D01*
X117593732Y-90825138D01*
X117438904Y-90979966D01*
X117409828Y-91003828D01*
X117354233Y-91071572D01*
X117314605Y-91119858D01*
X117276785Y-91190615D01*
X117243848Y-91252236D01*
X117200276Y-91395873D01*
X117189250Y-91507824D01*
X117185564Y-91545250D01*
X117189250Y-91582673D01*
X117189250Y-92187251D01*
X116586249Y-91584251D01*
X116586249Y-90805501D01*
X116724250Y-90667500D01*
X116724250Y-89718250D01*
X116704250Y-89718250D01*
X116704250Y-89464250D01*
X116724250Y-89464250D01*
X116724250Y-89444250D01*
X116978250Y-89444250D01*
X116978250Y-89464250D01*
X116978250Y-89464250D01*
G37*
X116978250Y-89464250D02*
X116998250Y-89464250D01*
X116998250Y-89718250D01*
X116978250Y-89718250D01*
X116978250Y-90667500D01*
X117137000Y-90826250D01*
X117551250Y-90829322D01*
X117593732Y-90825138D01*
X117438904Y-90979966D01*
X117409828Y-91003828D01*
X117354233Y-91071572D01*
X117314605Y-91119858D01*
X117276785Y-91190615D01*
X117243848Y-91252236D01*
X117200276Y-91395873D01*
X117189250Y-91507824D01*
X117185564Y-91545250D01*
X117189250Y-91582673D01*
X117189250Y-92187251D01*
X116586249Y-91584251D01*
X116586249Y-90805501D01*
X116724250Y-90667500D01*
X116724250Y-89718250D01*
X116704250Y-89718250D01*
X116704250Y-89464250D01*
X116724250Y-89464250D01*
X116724250Y-89444250D01*
X116978250Y-89444250D01*
X116978250Y-89464250D01*
M02*
