M48
; DRILL file {KiCad (5.1.4)-1} date 22/05/2022 7:10:14 PM
; FORMAT={-:-/ absolute / inch / decimal}
; #@! TF.CreationDate,2022-05-22T19:10:14+08:00
; #@! TF.GenerationSoftware,Kicad,Pcbnew,(5.1.4)-1
; #@! TF.FileFunction,Plated,1,2,PTH
FMAT,2
INCH
T1C0.0157
T2C0.0276
T3C0.0579
%
G90
G05
T1
X4.0625Y-3.6562
X4.0625Y-4.4062
X4.1562Y-3.8125
X4.1875Y-4.0
X4.2812Y-4.1875
X4.3438Y-3.7341
X4.3438Y-4.125
X4.9375Y-4.4062
X5.125Y-3.8438
T3
X6.1Y-3.525
X6.1516Y-3.4675
X6.3484Y-3.4478
X6.35Y-3.425
X6.1Y-4.275
X6.1516Y-4.2175
X6.3484Y-4.1978
X6.35Y-4.175
X5.35Y-3.525
X5.4016Y-3.4675
X5.5984Y-3.4478
X5.6Y-3.425
X5.35Y-4.275
X5.4016Y-4.2175
X5.5984Y-4.1978
X5.6Y-4.175
T2
G00X3.7313Y-3.2889
M15
G01X3.7313Y-3.3361
M16
G05
G00X3.7313Y-3.466
M15
G01X3.7313Y-3.5133
M16
G05
G00X4.0187Y-3.2889
M15
G01X4.0187Y-3.3361
M16
G05
G00X4.0187Y-3.466
M15
G01X4.0187Y-3.5133
M16
G05
T0
M30
