G04 #@! TF.GenerationSoftware,KiCad,Pcbnew,(5.1.4)-1*
G04 #@! TF.CreationDate,2022-05-22T19:09:44+08:00*
G04 #@! TF.ProjectId,keyboard-pcb-tutorial,6b657962-6f61-4726-942d-7063622d7475,rev?*
G04 #@! TF.SameCoordinates,Original*
G04 #@! TF.FileFunction,Legend,Bot*
G04 #@! TF.FilePolarity,Positive*
%FSLAX46Y46*%
G04 Gerber Fmt 4.6, Leading zero omitted, Abs format (unit mm)*
G04 Created by KiCad (PCBNEW (5.1.4)-1) date 2022-05-22 19:09:44*
%MOMM*%
%LPD*%
G04 APERTURE LIST*
%ADD10C,0.120000*%
%ADD11C,0.150000*%
%ADD12C,0.100000*%
%ADD13C,1.077000*%
%ADD14C,1.852000*%
%ADD15C,2.352000*%
%ADD16C,4.089800*%
%ADD17C,2.352000*%
%ADD18C,1.352000*%
%ADD19R,1.502000X1.302000*%
%ADD20O,1.802000X2.802000*%
%ADD21R,0.602000X2.352000*%
%ADD22R,0.652000X1.602000*%
%ADD23R,1.602000X0.652000*%
%ADD24R,1.902000X1.202000*%
%ADD25R,1.302000X1.002000*%
G04 APERTURE END LIST*
D10*
X109621250Y-93127328D02*
X109621250Y-92610172D01*
X111041250Y-93127328D02*
X111041250Y-92610172D01*
X108552064Y-100128750D02*
X107347936Y-100128750D01*
X108552064Y-98308750D02*
X107347936Y-98308750D01*
X98508750Y-95508578D02*
X98508750Y-94991422D01*
X99928750Y-95508578D02*
X99928750Y-94991422D01*
X119951250Y-90391250D02*
X115951250Y-90391250D01*
X119951250Y-87091250D02*
X119951250Y-90391250D01*
D11*
X94575000Y-84137500D02*
X94575000Y-89587500D01*
X102275000Y-84137500D02*
X102275000Y-89587500D01*
X94575000Y-89587500D02*
X102275000Y-89587500D01*
X112776250Y-106041250D02*
X111501250Y-106041250D01*
X123126250Y-106616250D02*
X122451250Y-106616250D01*
X123126250Y-96266250D02*
X122451250Y-96266250D01*
X112776250Y-96266250D02*
X113451250Y-96266250D01*
X112776250Y-106616250D02*
X113451250Y-106616250D01*
X112776250Y-96266250D02*
X112776250Y-96941250D01*
X123126250Y-96266250D02*
X123126250Y-96941250D01*
X123126250Y-106616250D02*
X123126250Y-105941250D01*
X112776250Y-106616250D02*
X112776250Y-106041250D01*
X102612500Y-112493750D02*
X97412500Y-112493750D01*
X97412500Y-112493750D02*
X97412500Y-117693750D01*
X97412500Y-117693750D02*
X102612500Y-117693750D01*
X102612500Y-117693750D02*
X102612500Y-112493750D01*
X101012500Y-115093750D02*
G75*
G03X101012500Y-115093750I-1000000J0D01*
G01*
D10*
X127083750Y-106621078D02*
X127083750Y-106103922D01*
X128503750Y-106621078D02*
X128503750Y-106103922D01*
X95333750Y-95508578D02*
X95333750Y-94991422D01*
X96753750Y-95508578D02*
X96753750Y-94991422D01*
X104541250Y-94079828D02*
X104541250Y-93562672D01*
X105961250Y-94079828D02*
X105961250Y-93562672D01*
X94340000Y-100614564D02*
X94340000Y-99410436D01*
X96160000Y-100614564D02*
X96160000Y-99410436D01*
X167687500Y-113375000D02*
X167687500Y-109475000D01*
X165687500Y-113375000D02*
X165687500Y-109475000D01*
X167687500Y-113375000D02*
X165687500Y-113375000D01*
X148637500Y-113375000D02*
X148637500Y-109475000D01*
X146637500Y-113375000D02*
X146637500Y-109475000D01*
X148637500Y-113375000D02*
X146637500Y-113375000D01*
X167687500Y-94325000D02*
X167687500Y-90425000D01*
X165687500Y-94325000D02*
X165687500Y-90425000D01*
X167687500Y-94325000D02*
X165687500Y-94325000D01*
X148637500Y-94325000D02*
X148637500Y-90425000D01*
X146637500Y-94325000D02*
X146637500Y-90425000D01*
X148637500Y-94325000D02*
X146637500Y-94325000D01*
X106446250Y-108208578D02*
X106446250Y-107691422D01*
X107866250Y-108208578D02*
X107866250Y-107691422D01*
X123289828Y-112311250D02*
X122772672Y-112311250D01*
X123289828Y-110891250D02*
X122772672Y-110891250D01*
X127401250Y-96619828D02*
X127401250Y-96102672D01*
X128821250Y-96619828D02*
X128821250Y-96102672D01*
X109002328Y-102310000D02*
X108485172Y-102310000D01*
X109002328Y-100890000D02*
X108485172Y-100890000D01*
X113581250Y-88482672D02*
X113581250Y-88999828D01*
X112161250Y-88482672D02*
X112161250Y-88999828D01*
X122321250Y-88999828D02*
X122321250Y-88482672D01*
X123741250Y-88999828D02*
X123741250Y-88482672D01*
D11*
X112338392Y-92702083D02*
X112386011Y-92654464D01*
X112433630Y-92511607D01*
X112433630Y-92416369D01*
X112386011Y-92273511D01*
X112290773Y-92178273D01*
X112195535Y-92130654D01*
X112005059Y-92083035D01*
X111862202Y-92083035D01*
X111671726Y-92130654D01*
X111576488Y-92178273D01*
X111481250Y-92273511D01*
X111433630Y-92416369D01*
X111433630Y-92511607D01*
X111481250Y-92654464D01*
X111528869Y-92702083D01*
X111766964Y-93559226D02*
X112433630Y-93559226D01*
X111386011Y-93321130D02*
X112100297Y-93083035D01*
X112100297Y-93702083D01*
X108283333Y-97327321D02*
X108616666Y-97327321D01*
X108616666Y-97851130D02*
X108616666Y-96851130D01*
X108140476Y-96851130D01*
X107235714Y-97851130D02*
X107807142Y-97851130D01*
X107521428Y-97851130D02*
X107521428Y-96851130D01*
X107616666Y-96993988D01*
X107711904Y-97089226D01*
X107807142Y-97136845D01*
X101321130Y-95083333D02*
X100844940Y-94750000D01*
X101321130Y-94511904D02*
X100321130Y-94511904D01*
X100321130Y-94892857D01*
X100368750Y-94988095D01*
X100416369Y-95035714D01*
X100511607Y-95083333D01*
X100654464Y-95083333D01*
X100749702Y-95035714D01*
X100797321Y-94988095D01*
X100844940Y-94892857D01*
X100844940Y-94511904D01*
X100416369Y-95464285D02*
X100368750Y-95511904D01*
X100321130Y-95607142D01*
X100321130Y-95845238D01*
X100368750Y-95940476D01*
X100416369Y-95988095D01*
X100511607Y-96035714D01*
X100606845Y-96035714D01*
X100749702Y-95988095D01*
X101321130Y-95416666D01*
X101321130Y-96035714D01*
X118427440Y-86267440D02*
X118427440Y-86743630D01*
X118760773Y-85743630D02*
X118427440Y-86267440D01*
X118094107Y-85743630D01*
X117236964Y-86743630D02*
X117808392Y-86743630D01*
X117522678Y-86743630D02*
X117522678Y-85743630D01*
X117617916Y-85886488D01*
X117713154Y-85981726D01*
X117808392Y-86029345D01*
X100163095Y-85621880D02*
X100163095Y-86431404D01*
X100115476Y-86526642D01*
X100067857Y-86574261D01*
X99972619Y-86621880D01*
X99782142Y-86621880D01*
X99686904Y-86574261D01*
X99639285Y-86526642D01*
X99591666Y-86431404D01*
X99591666Y-85621880D01*
X99163095Y-86574261D02*
X99020238Y-86621880D01*
X98782142Y-86621880D01*
X98686904Y-86574261D01*
X98639285Y-86526642D01*
X98591666Y-86431404D01*
X98591666Y-86336166D01*
X98639285Y-86240928D01*
X98686904Y-86193309D01*
X98782142Y-86145690D01*
X98972619Y-86098071D01*
X99067857Y-86050452D01*
X99115476Y-86002833D01*
X99163095Y-85907595D01*
X99163095Y-85812357D01*
X99115476Y-85717119D01*
X99067857Y-85669500D01*
X98972619Y-85621880D01*
X98734523Y-85621880D01*
X98591666Y-85669500D01*
X97829761Y-86098071D02*
X97686904Y-86145690D01*
X97639285Y-86193309D01*
X97591666Y-86288547D01*
X97591666Y-86431404D01*
X97639285Y-86526642D01*
X97686904Y-86574261D01*
X97782142Y-86621880D01*
X98163095Y-86621880D01*
X98163095Y-85621880D01*
X97829761Y-85621880D01*
X97734523Y-85669500D01*
X97686904Y-85717119D01*
X97639285Y-85812357D01*
X97639285Y-85907595D01*
X97686904Y-86002833D01*
X97734523Y-86050452D01*
X97829761Y-86098071D01*
X98163095Y-86098071D01*
X96639285Y-86621880D02*
X97210714Y-86621880D01*
X96925000Y-86621880D02*
X96925000Y-85621880D01*
X97020238Y-85764738D01*
X97115476Y-85859976D01*
X97210714Y-85907595D01*
X118713154Y-108343630D02*
X118713154Y-109153154D01*
X118665535Y-109248392D01*
X118617916Y-109296011D01*
X118522678Y-109343630D01*
X118332202Y-109343630D01*
X118236964Y-109296011D01*
X118189345Y-109248392D01*
X118141726Y-109153154D01*
X118141726Y-108343630D01*
X117141726Y-109343630D02*
X117713154Y-109343630D01*
X117427440Y-109343630D02*
X117427440Y-108343630D01*
X117522678Y-108486488D01*
X117617916Y-108581726D01*
X117713154Y-108629345D01*
X101345833Y-119562511D02*
X101202976Y-119610130D01*
X100964880Y-119610130D01*
X100869642Y-119562511D01*
X100822023Y-119514892D01*
X100774404Y-119419654D01*
X100774404Y-119324416D01*
X100822023Y-119229178D01*
X100869642Y-119181559D01*
X100964880Y-119133940D01*
X101155357Y-119086321D01*
X101250595Y-119038702D01*
X101298214Y-118991083D01*
X101345833Y-118895845D01*
X101345833Y-118800607D01*
X101298214Y-118705369D01*
X101250595Y-118657750D01*
X101155357Y-118610130D01*
X100917261Y-118610130D01*
X100774404Y-118657750D01*
X100441071Y-118610130D02*
X100202976Y-119610130D01*
X100012500Y-118895845D01*
X99822023Y-119610130D01*
X99583928Y-118610130D01*
X98679166Y-119610130D02*
X99250595Y-119610130D01*
X98964880Y-119610130D02*
X98964880Y-118610130D01*
X99060119Y-118752988D01*
X99155357Y-118848226D01*
X99250595Y-118895845D01*
X129896130Y-106195833D02*
X129419940Y-105862500D01*
X129896130Y-105624404D02*
X128896130Y-105624404D01*
X128896130Y-106005357D01*
X128943750Y-106100595D01*
X128991369Y-106148214D01*
X129086607Y-106195833D01*
X129229464Y-106195833D01*
X129324702Y-106148214D01*
X129372321Y-106100595D01*
X129419940Y-106005357D01*
X129419940Y-105624404D01*
X129229464Y-107052976D02*
X129896130Y-107052976D01*
X128848511Y-106814880D02*
X129562797Y-106576785D01*
X129562797Y-107195833D01*
X98146130Y-95083333D02*
X97669940Y-94750000D01*
X98146130Y-94511904D02*
X97146130Y-94511904D01*
X97146130Y-94892857D01*
X97193750Y-94988095D01*
X97241369Y-95035714D01*
X97336607Y-95083333D01*
X97479464Y-95083333D01*
X97574702Y-95035714D01*
X97622321Y-94988095D01*
X97669940Y-94892857D01*
X97669940Y-94511904D01*
X97146130Y-95416666D02*
X97146130Y-96035714D01*
X97527083Y-95702380D01*
X97527083Y-95845238D01*
X97574702Y-95940476D01*
X97622321Y-95988095D01*
X97717559Y-96035714D01*
X97955654Y-96035714D01*
X98050892Y-95988095D01*
X98098511Y-95940476D01*
X98146130Y-95845238D01*
X98146130Y-95559523D01*
X98098511Y-95464285D01*
X98050892Y-95416666D01*
X107353630Y-93654583D02*
X106877440Y-93321250D01*
X107353630Y-93083154D02*
X106353630Y-93083154D01*
X106353630Y-93464107D01*
X106401250Y-93559345D01*
X106448869Y-93606964D01*
X106544107Y-93654583D01*
X106686964Y-93654583D01*
X106782202Y-93606964D01*
X106829821Y-93559345D01*
X106877440Y-93464107D01*
X106877440Y-93083154D01*
X107353630Y-94606964D02*
X107353630Y-94035535D01*
X107353630Y-94321250D02*
X106353630Y-94321250D01*
X106496488Y-94226011D01*
X106591726Y-94130773D01*
X106639345Y-94035535D01*
X96998571Y-99679166D02*
X96998571Y-99345833D01*
X97522380Y-99345833D02*
X96522380Y-99345833D01*
X96522380Y-99822023D01*
X96617619Y-100155357D02*
X96570000Y-100202976D01*
X96522380Y-100298214D01*
X96522380Y-100536309D01*
X96570000Y-100631547D01*
X96617619Y-100679166D01*
X96712857Y-100726785D01*
X96808095Y-100726785D01*
X96950952Y-100679166D01*
X97522380Y-100107738D01*
X97522380Y-100726785D01*
X168235119Y-111863095D02*
X169235119Y-111863095D01*
X169235119Y-111625000D01*
X169187500Y-111482142D01*
X169092261Y-111386904D01*
X168997023Y-111339285D01*
X168806547Y-111291666D01*
X168663690Y-111291666D01*
X168473214Y-111339285D01*
X168377976Y-111386904D01*
X168282738Y-111482142D01*
X168235119Y-111625000D01*
X168235119Y-111863095D01*
X168901785Y-110434523D02*
X168235119Y-110434523D01*
X169282738Y-110672619D02*
X168568452Y-110910714D01*
X168568452Y-110291666D01*
X149185119Y-111863095D02*
X150185119Y-111863095D01*
X150185119Y-111625000D01*
X150137500Y-111482142D01*
X150042261Y-111386904D01*
X149947023Y-111339285D01*
X149756547Y-111291666D01*
X149613690Y-111291666D01*
X149423214Y-111339285D01*
X149327976Y-111386904D01*
X149232738Y-111482142D01*
X149185119Y-111625000D01*
X149185119Y-111863095D01*
X150185119Y-110958333D02*
X150185119Y-110339285D01*
X149804166Y-110672619D01*
X149804166Y-110529761D01*
X149756547Y-110434523D01*
X149708928Y-110386904D01*
X149613690Y-110339285D01*
X149375595Y-110339285D01*
X149280357Y-110386904D01*
X149232738Y-110434523D01*
X149185119Y-110529761D01*
X149185119Y-110815476D01*
X149232738Y-110910714D01*
X149280357Y-110958333D01*
X168235119Y-92813095D02*
X169235119Y-92813095D01*
X169235119Y-92575000D01*
X169187500Y-92432142D01*
X169092261Y-92336904D01*
X168997023Y-92289285D01*
X168806547Y-92241666D01*
X168663690Y-92241666D01*
X168473214Y-92289285D01*
X168377976Y-92336904D01*
X168282738Y-92432142D01*
X168235119Y-92575000D01*
X168235119Y-92813095D01*
X169139880Y-91860714D02*
X169187500Y-91813095D01*
X169235119Y-91717857D01*
X169235119Y-91479761D01*
X169187500Y-91384523D01*
X169139880Y-91336904D01*
X169044642Y-91289285D01*
X168949404Y-91289285D01*
X168806547Y-91336904D01*
X168235119Y-91908333D01*
X168235119Y-91289285D01*
X150089880Y-91336904D02*
X149089880Y-91336904D01*
X149089880Y-91575000D01*
X149137500Y-91717857D01*
X149232738Y-91813095D01*
X149327976Y-91860714D01*
X149518452Y-91908333D01*
X149661309Y-91908333D01*
X149851785Y-91860714D01*
X149947023Y-91813095D01*
X150042261Y-91717857D01*
X150089880Y-91575000D01*
X150089880Y-91336904D01*
X150089880Y-92860714D02*
X150089880Y-92289285D01*
X150089880Y-92575000D02*
X149089880Y-92575000D01*
X149232738Y-92479761D01*
X149327976Y-92384523D01*
X149375595Y-92289285D01*
X109163392Y-107783333D02*
X109211011Y-107735714D01*
X109258630Y-107592857D01*
X109258630Y-107497619D01*
X109211011Y-107354761D01*
X109115773Y-107259523D01*
X109020535Y-107211904D01*
X108830059Y-107164285D01*
X108687202Y-107164285D01*
X108496726Y-107211904D01*
X108401488Y-107259523D01*
X108306250Y-107354761D01*
X108258630Y-107497619D01*
X108258630Y-107592857D01*
X108306250Y-107735714D01*
X108353869Y-107783333D01*
X108258630Y-108116666D02*
X108258630Y-108783333D01*
X109258630Y-108354761D01*
X123197916Y-110308392D02*
X123245535Y-110356011D01*
X123388392Y-110403630D01*
X123483630Y-110403630D01*
X123626488Y-110356011D01*
X123721726Y-110260773D01*
X123769345Y-110165535D01*
X123816964Y-109975059D01*
X123816964Y-109832202D01*
X123769345Y-109641726D01*
X123721726Y-109546488D01*
X123626488Y-109451250D01*
X123483630Y-109403630D01*
X123388392Y-109403630D01*
X123245535Y-109451250D01*
X123197916Y-109498869D01*
X122340773Y-109403630D02*
X122531250Y-109403630D01*
X122626488Y-109451250D01*
X122674107Y-109498869D01*
X122769345Y-109641726D01*
X122816964Y-109832202D01*
X122816964Y-110213154D01*
X122769345Y-110308392D01*
X122721726Y-110356011D01*
X122626488Y-110403630D01*
X122436011Y-110403630D01*
X122340773Y-110356011D01*
X122293154Y-110308392D01*
X122245535Y-110213154D01*
X122245535Y-109975059D01*
X122293154Y-109879821D01*
X122340773Y-109832202D01*
X122436011Y-109784583D01*
X122626488Y-109784583D01*
X122721726Y-109832202D01*
X122769345Y-109879821D01*
X122816964Y-109975059D01*
X130118392Y-96194583D02*
X130166011Y-96146964D01*
X130213630Y-96004107D01*
X130213630Y-95908869D01*
X130166011Y-95766011D01*
X130070773Y-95670773D01*
X129975535Y-95623154D01*
X129785059Y-95575535D01*
X129642202Y-95575535D01*
X129451726Y-95623154D01*
X129356488Y-95670773D01*
X129261250Y-95766011D01*
X129213630Y-95908869D01*
X129213630Y-96004107D01*
X129261250Y-96146964D01*
X129308869Y-96194583D01*
X129213630Y-97099345D02*
X129213630Y-96623154D01*
X129689821Y-96575535D01*
X129642202Y-96623154D01*
X129594583Y-96718392D01*
X129594583Y-96956488D01*
X129642202Y-97051726D01*
X129689821Y-97099345D01*
X129785059Y-97146964D01*
X130023154Y-97146964D01*
X130118392Y-97099345D01*
X130166011Y-97051726D01*
X130213630Y-96956488D01*
X130213630Y-96718392D01*
X130166011Y-96623154D01*
X130118392Y-96575535D01*
X108910416Y-100307142D02*
X108958035Y-100354761D01*
X109100892Y-100402380D01*
X109196130Y-100402380D01*
X109338988Y-100354761D01*
X109434226Y-100259523D01*
X109481845Y-100164285D01*
X109529464Y-99973809D01*
X109529464Y-99830952D01*
X109481845Y-99640476D01*
X109434226Y-99545238D01*
X109338988Y-99450000D01*
X109196130Y-99402380D01*
X109100892Y-99402380D01*
X108958035Y-99450000D01*
X108910416Y-99497619D01*
X108577083Y-99402380D02*
X107958035Y-99402380D01*
X108291369Y-99783333D01*
X108148511Y-99783333D01*
X108053273Y-99830952D01*
X108005654Y-99878571D01*
X107958035Y-99973809D01*
X107958035Y-100211904D01*
X108005654Y-100307142D01*
X108053273Y-100354761D01*
X108148511Y-100402380D01*
X108434226Y-100402380D01*
X108529464Y-100354761D01*
X108577083Y-100307142D01*
X111578392Y-88574583D02*
X111626011Y-88526964D01*
X111673630Y-88384107D01*
X111673630Y-88288869D01*
X111626011Y-88146011D01*
X111530773Y-88050773D01*
X111435535Y-88003154D01*
X111245059Y-87955535D01*
X111102202Y-87955535D01*
X110911726Y-88003154D01*
X110816488Y-88050773D01*
X110721250Y-88146011D01*
X110673630Y-88288869D01*
X110673630Y-88384107D01*
X110721250Y-88526964D01*
X110768869Y-88574583D01*
X110768869Y-88955535D02*
X110721250Y-89003154D01*
X110673630Y-89098392D01*
X110673630Y-89336488D01*
X110721250Y-89431726D01*
X110768869Y-89479345D01*
X110864107Y-89526964D01*
X110959345Y-89526964D01*
X111102202Y-89479345D01*
X111673630Y-88907916D01*
X111673630Y-89526964D01*
X125038392Y-88574583D02*
X125086011Y-88526964D01*
X125133630Y-88384107D01*
X125133630Y-88288869D01*
X125086011Y-88146011D01*
X124990773Y-88050773D01*
X124895535Y-88003154D01*
X124705059Y-87955535D01*
X124562202Y-87955535D01*
X124371726Y-88003154D01*
X124276488Y-88050773D01*
X124181250Y-88146011D01*
X124133630Y-88288869D01*
X124133630Y-88384107D01*
X124181250Y-88526964D01*
X124228869Y-88574583D01*
X125133630Y-89526964D02*
X125133630Y-88955535D01*
X125133630Y-89241250D02*
X124133630Y-89241250D01*
X124276488Y-89146011D01*
X124371726Y-89050773D01*
X124419345Y-88955535D01*
%LPC*%
D12*
G36*
X110839391Y-91394047D02*
G01*
X110865528Y-91397924D01*
X110891159Y-91404344D01*
X110916038Y-91413245D01*
X110939924Y-91424543D01*
X110962587Y-91438127D01*
X110983810Y-91453867D01*
X111003389Y-91471611D01*
X111021133Y-91491190D01*
X111036873Y-91512413D01*
X111050457Y-91535076D01*
X111061755Y-91558962D01*
X111070656Y-91583841D01*
X111077076Y-91609472D01*
X111080953Y-91635609D01*
X111082250Y-91662000D01*
X111082250Y-92200500D01*
X111080953Y-92226891D01*
X111077076Y-92253028D01*
X111070656Y-92278659D01*
X111061755Y-92303538D01*
X111050457Y-92327424D01*
X111036873Y-92350087D01*
X111021133Y-92371310D01*
X111003389Y-92390889D01*
X110983810Y-92408633D01*
X110962587Y-92424373D01*
X110939924Y-92437957D01*
X110916038Y-92449255D01*
X110891159Y-92458156D01*
X110865528Y-92464576D01*
X110839391Y-92468453D01*
X110813000Y-92469750D01*
X109849500Y-92469750D01*
X109823109Y-92468453D01*
X109796972Y-92464576D01*
X109771341Y-92458156D01*
X109746462Y-92449255D01*
X109722576Y-92437957D01*
X109699913Y-92424373D01*
X109678690Y-92408633D01*
X109659111Y-92390889D01*
X109641367Y-92371310D01*
X109625627Y-92350087D01*
X109612043Y-92327424D01*
X109600745Y-92303538D01*
X109591844Y-92278659D01*
X109585424Y-92253028D01*
X109581547Y-92226891D01*
X109580250Y-92200500D01*
X109580250Y-91662000D01*
X109581547Y-91635609D01*
X109585424Y-91609472D01*
X109591844Y-91583841D01*
X109600745Y-91558962D01*
X109612043Y-91535076D01*
X109625627Y-91512413D01*
X109641367Y-91491190D01*
X109659111Y-91471611D01*
X109678690Y-91453867D01*
X109699913Y-91438127D01*
X109722576Y-91424543D01*
X109746462Y-91413245D01*
X109771341Y-91404344D01*
X109796972Y-91397924D01*
X109823109Y-91394047D01*
X109849500Y-91392750D01*
X110813000Y-91392750D01*
X110839391Y-91394047D01*
X110839391Y-91394047D01*
G37*
D13*
X110331250Y-91931250D03*
D12*
G36*
X110839391Y-93269047D02*
G01*
X110865528Y-93272924D01*
X110891159Y-93279344D01*
X110916038Y-93288245D01*
X110939924Y-93299543D01*
X110962587Y-93313127D01*
X110983810Y-93328867D01*
X111003389Y-93346611D01*
X111021133Y-93366190D01*
X111036873Y-93387413D01*
X111050457Y-93410076D01*
X111061755Y-93433962D01*
X111070656Y-93458841D01*
X111077076Y-93484472D01*
X111080953Y-93510609D01*
X111082250Y-93537000D01*
X111082250Y-94075500D01*
X111080953Y-94101891D01*
X111077076Y-94128028D01*
X111070656Y-94153659D01*
X111061755Y-94178538D01*
X111050457Y-94202424D01*
X111036873Y-94225087D01*
X111021133Y-94246310D01*
X111003389Y-94265889D01*
X110983810Y-94283633D01*
X110962587Y-94299373D01*
X110939924Y-94312957D01*
X110916038Y-94324255D01*
X110891159Y-94333156D01*
X110865528Y-94339576D01*
X110839391Y-94343453D01*
X110813000Y-94344750D01*
X109849500Y-94344750D01*
X109823109Y-94343453D01*
X109796972Y-94339576D01*
X109771341Y-94333156D01*
X109746462Y-94324255D01*
X109722576Y-94312957D01*
X109699913Y-94299373D01*
X109678690Y-94283633D01*
X109659111Y-94265889D01*
X109641367Y-94246310D01*
X109625627Y-94225087D01*
X109612043Y-94202424D01*
X109600745Y-94178538D01*
X109591844Y-94153659D01*
X109585424Y-94128028D01*
X109581547Y-94101891D01*
X109580250Y-94075500D01*
X109580250Y-93537000D01*
X109581547Y-93510609D01*
X109585424Y-93484472D01*
X109591844Y-93458841D01*
X109600745Y-93433962D01*
X109612043Y-93410076D01*
X109625627Y-93387413D01*
X109641367Y-93366190D01*
X109659111Y-93346611D01*
X109678690Y-93328867D01*
X109699913Y-93313127D01*
X109722576Y-93299543D01*
X109746462Y-93288245D01*
X109771341Y-93279344D01*
X109796972Y-93272924D01*
X109823109Y-93269047D01*
X109849500Y-93267750D01*
X110813000Y-93267750D01*
X110839391Y-93269047D01*
X110839391Y-93269047D01*
G37*
D13*
X110331250Y-93806250D03*
D14*
X144780000Y-111125000D03*
X134620000Y-111125000D03*
D15*
X137200000Y-107125000D03*
D16*
X139700000Y-111125000D03*
D15*
X136545001Y-107855000D03*
D17*
X135890000Y-108585000D02*
X137200002Y-107125000D01*
D15*
X142240000Y-106045000D03*
X142220000Y-106335000D03*
D17*
X142200000Y-106625000D02*
X142240000Y-106045000D01*
D12*
G36*
X106982104Y-98294052D02*
G01*
X107008352Y-98297946D01*
X107034093Y-98304393D01*
X107059078Y-98313333D01*
X107083066Y-98324678D01*
X107105826Y-98338321D01*
X107127140Y-98354128D01*
X107146802Y-98371948D01*
X107164622Y-98391610D01*
X107180429Y-98412924D01*
X107194072Y-98435684D01*
X107205417Y-98459672D01*
X107214357Y-98484657D01*
X107220804Y-98510398D01*
X107224698Y-98536646D01*
X107226000Y-98563150D01*
X107226000Y-99874350D01*
X107224698Y-99900854D01*
X107220804Y-99927102D01*
X107214357Y-99952843D01*
X107205417Y-99977828D01*
X107194072Y-100001816D01*
X107180429Y-100024576D01*
X107164622Y-100045890D01*
X107146802Y-100065552D01*
X107127140Y-100083372D01*
X107105826Y-100099179D01*
X107083066Y-100112822D01*
X107059078Y-100124167D01*
X107034093Y-100133107D01*
X107008352Y-100139554D01*
X106982104Y-100143448D01*
X106955600Y-100144750D01*
X106144400Y-100144750D01*
X106117896Y-100143448D01*
X106091648Y-100139554D01*
X106065907Y-100133107D01*
X106040922Y-100124167D01*
X106016934Y-100112822D01*
X105994174Y-100099179D01*
X105972860Y-100083372D01*
X105953198Y-100065552D01*
X105935378Y-100045890D01*
X105919571Y-100024576D01*
X105905928Y-100001816D01*
X105894583Y-99977828D01*
X105885643Y-99952843D01*
X105879196Y-99927102D01*
X105875302Y-99900854D01*
X105874000Y-99874350D01*
X105874000Y-98563150D01*
X105875302Y-98536646D01*
X105879196Y-98510398D01*
X105885643Y-98484657D01*
X105894583Y-98459672D01*
X105905928Y-98435684D01*
X105919571Y-98412924D01*
X105935378Y-98391610D01*
X105953198Y-98371948D01*
X105972860Y-98354128D01*
X105994174Y-98338321D01*
X106016934Y-98324678D01*
X106040922Y-98313333D01*
X106065907Y-98304393D01*
X106091648Y-98297946D01*
X106117896Y-98294052D01*
X106144400Y-98292750D01*
X106955600Y-98292750D01*
X106982104Y-98294052D01*
X106982104Y-98294052D01*
G37*
D18*
X106550000Y-99218750D03*
D12*
G36*
X109782104Y-98294052D02*
G01*
X109808352Y-98297946D01*
X109834093Y-98304393D01*
X109859078Y-98313333D01*
X109883066Y-98324678D01*
X109905826Y-98338321D01*
X109927140Y-98354128D01*
X109946802Y-98371948D01*
X109964622Y-98391610D01*
X109980429Y-98412924D01*
X109994072Y-98435684D01*
X110005417Y-98459672D01*
X110014357Y-98484657D01*
X110020804Y-98510398D01*
X110024698Y-98536646D01*
X110026000Y-98563150D01*
X110026000Y-99874350D01*
X110024698Y-99900854D01*
X110020804Y-99927102D01*
X110014357Y-99952843D01*
X110005417Y-99977828D01*
X109994072Y-100001816D01*
X109980429Y-100024576D01*
X109964622Y-100045890D01*
X109946802Y-100065552D01*
X109927140Y-100083372D01*
X109905826Y-100099179D01*
X109883066Y-100112822D01*
X109859078Y-100124167D01*
X109834093Y-100133107D01*
X109808352Y-100139554D01*
X109782104Y-100143448D01*
X109755600Y-100144750D01*
X108944400Y-100144750D01*
X108917896Y-100143448D01*
X108891648Y-100139554D01*
X108865907Y-100133107D01*
X108840922Y-100124167D01*
X108816934Y-100112822D01*
X108794174Y-100099179D01*
X108772860Y-100083372D01*
X108753198Y-100065552D01*
X108735378Y-100045890D01*
X108719571Y-100024576D01*
X108705928Y-100001816D01*
X108694583Y-99977828D01*
X108685643Y-99952843D01*
X108679196Y-99927102D01*
X108675302Y-99900854D01*
X108674000Y-99874350D01*
X108674000Y-98563150D01*
X108675302Y-98536646D01*
X108679196Y-98510398D01*
X108685643Y-98484657D01*
X108694583Y-98459672D01*
X108705928Y-98435684D01*
X108719571Y-98412924D01*
X108735378Y-98391610D01*
X108753198Y-98371948D01*
X108772860Y-98354128D01*
X108794174Y-98338321D01*
X108816934Y-98324678D01*
X108840922Y-98313333D01*
X108865907Y-98304393D01*
X108891648Y-98297946D01*
X108917896Y-98294052D01*
X108944400Y-98292750D01*
X109755600Y-98292750D01*
X109782104Y-98294052D01*
X109782104Y-98294052D01*
G37*
D18*
X109350000Y-99218750D03*
D12*
G36*
X99726891Y-93775297D02*
G01*
X99753028Y-93779174D01*
X99778659Y-93785594D01*
X99803538Y-93794495D01*
X99827424Y-93805793D01*
X99850087Y-93819377D01*
X99871310Y-93835117D01*
X99890889Y-93852861D01*
X99908633Y-93872440D01*
X99924373Y-93893663D01*
X99937957Y-93916326D01*
X99949255Y-93940212D01*
X99958156Y-93965091D01*
X99964576Y-93990722D01*
X99968453Y-94016859D01*
X99969750Y-94043250D01*
X99969750Y-94581750D01*
X99968453Y-94608141D01*
X99964576Y-94634278D01*
X99958156Y-94659909D01*
X99949255Y-94684788D01*
X99937957Y-94708674D01*
X99924373Y-94731337D01*
X99908633Y-94752560D01*
X99890889Y-94772139D01*
X99871310Y-94789883D01*
X99850087Y-94805623D01*
X99827424Y-94819207D01*
X99803538Y-94830505D01*
X99778659Y-94839406D01*
X99753028Y-94845826D01*
X99726891Y-94849703D01*
X99700500Y-94851000D01*
X98737000Y-94851000D01*
X98710609Y-94849703D01*
X98684472Y-94845826D01*
X98658841Y-94839406D01*
X98633962Y-94830505D01*
X98610076Y-94819207D01*
X98587413Y-94805623D01*
X98566190Y-94789883D01*
X98546611Y-94772139D01*
X98528867Y-94752560D01*
X98513127Y-94731337D01*
X98499543Y-94708674D01*
X98488245Y-94684788D01*
X98479344Y-94659909D01*
X98472924Y-94634278D01*
X98469047Y-94608141D01*
X98467750Y-94581750D01*
X98467750Y-94043250D01*
X98469047Y-94016859D01*
X98472924Y-93990722D01*
X98479344Y-93965091D01*
X98488245Y-93940212D01*
X98499543Y-93916326D01*
X98513127Y-93893663D01*
X98528867Y-93872440D01*
X98546611Y-93852861D01*
X98566190Y-93835117D01*
X98587413Y-93819377D01*
X98610076Y-93805793D01*
X98633962Y-93794495D01*
X98658841Y-93785594D01*
X98684472Y-93779174D01*
X98710609Y-93775297D01*
X98737000Y-93774000D01*
X99700500Y-93774000D01*
X99726891Y-93775297D01*
X99726891Y-93775297D01*
G37*
D13*
X99218750Y-94312500D03*
D12*
G36*
X99726891Y-95650297D02*
G01*
X99753028Y-95654174D01*
X99778659Y-95660594D01*
X99803538Y-95669495D01*
X99827424Y-95680793D01*
X99850087Y-95694377D01*
X99871310Y-95710117D01*
X99890889Y-95727861D01*
X99908633Y-95747440D01*
X99924373Y-95768663D01*
X99937957Y-95791326D01*
X99949255Y-95815212D01*
X99958156Y-95840091D01*
X99964576Y-95865722D01*
X99968453Y-95891859D01*
X99969750Y-95918250D01*
X99969750Y-96456750D01*
X99968453Y-96483141D01*
X99964576Y-96509278D01*
X99958156Y-96534909D01*
X99949255Y-96559788D01*
X99937957Y-96583674D01*
X99924373Y-96606337D01*
X99908633Y-96627560D01*
X99890889Y-96647139D01*
X99871310Y-96664883D01*
X99850087Y-96680623D01*
X99827424Y-96694207D01*
X99803538Y-96705505D01*
X99778659Y-96714406D01*
X99753028Y-96720826D01*
X99726891Y-96724703D01*
X99700500Y-96726000D01*
X98737000Y-96726000D01*
X98710609Y-96724703D01*
X98684472Y-96720826D01*
X98658841Y-96714406D01*
X98633962Y-96705505D01*
X98610076Y-96694207D01*
X98587413Y-96680623D01*
X98566190Y-96664883D01*
X98546611Y-96647139D01*
X98528867Y-96627560D01*
X98513127Y-96606337D01*
X98499543Y-96583674D01*
X98488245Y-96559788D01*
X98479344Y-96534909D01*
X98472924Y-96509278D01*
X98469047Y-96483141D01*
X98467750Y-96456750D01*
X98467750Y-95918250D01*
X98469047Y-95891859D01*
X98472924Y-95865722D01*
X98479344Y-95840091D01*
X98488245Y-95815212D01*
X98499543Y-95791326D01*
X98513127Y-95768663D01*
X98528867Y-95747440D01*
X98546611Y-95727861D01*
X98566190Y-95710117D01*
X98587413Y-95694377D01*
X98610076Y-95680793D01*
X98633962Y-95669495D01*
X98658841Y-95660594D01*
X98684472Y-95654174D01*
X98710609Y-95650297D01*
X98737000Y-95649000D01*
X99700500Y-95649000D01*
X99726891Y-95650297D01*
X99726891Y-95650297D01*
G37*
D13*
X99218750Y-96187500D03*
D19*
X119051250Y-87891250D03*
X116851250Y-87891250D03*
X116851250Y-89591250D03*
X119051250Y-89591250D03*
D20*
X94775000Y-84137500D03*
X102075000Y-84137500D03*
X102075000Y-88637500D03*
X94775000Y-88637500D03*
D21*
X96825000Y-88637500D03*
X97625000Y-88637500D03*
X98425000Y-88637500D03*
X99225000Y-88637500D03*
X100025000Y-88637500D03*
D22*
X113951250Y-107141250D03*
X114751250Y-107141250D03*
X115551250Y-107141250D03*
X116351250Y-107141250D03*
X117151250Y-107141250D03*
X117951250Y-107141250D03*
X118751250Y-107141250D03*
X119551250Y-107141250D03*
X120351250Y-107141250D03*
X121151250Y-107141250D03*
X121951250Y-107141250D03*
D23*
X123651250Y-105441250D03*
X123651250Y-104641250D03*
X123651250Y-103841250D03*
X123651250Y-103041250D03*
X123651250Y-102241250D03*
X123651250Y-101441250D03*
X123651250Y-100641250D03*
X123651250Y-99841250D03*
X123651250Y-99041250D03*
X123651250Y-98241250D03*
X123651250Y-97441250D03*
D22*
X121951250Y-95741250D03*
X121151250Y-95741250D03*
X120351250Y-95741250D03*
X119551250Y-95741250D03*
X118751250Y-95741250D03*
X117951250Y-95741250D03*
X117151250Y-95741250D03*
X116351250Y-95741250D03*
X115551250Y-95741250D03*
X114751250Y-95741250D03*
X113951250Y-95741250D03*
D23*
X112251250Y-97441250D03*
X112251250Y-98241250D03*
X112251250Y-99041250D03*
X112251250Y-99841250D03*
X112251250Y-100641250D03*
X112251250Y-101441250D03*
X112251250Y-102241250D03*
X112251250Y-103041250D03*
X112251250Y-103841250D03*
X112251250Y-104641250D03*
X112251250Y-105441250D03*
D24*
X103112500Y-116943750D03*
X96912500Y-113243750D03*
X103112500Y-113243750D03*
X96912500Y-116943750D03*
D12*
G36*
X128301891Y-104887797D02*
G01*
X128328028Y-104891674D01*
X128353659Y-104898094D01*
X128378538Y-104906995D01*
X128402424Y-104918293D01*
X128425087Y-104931877D01*
X128446310Y-104947617D01*
X128465889Y-104965361D01*
X128483633Y-104984940D01*
X128499373Y-105006163D01*
X128512957Y-105028826D01*
X128524255Y-105052712D01*
X128533156Y-105077591D01*
X128539576Y-105103222D01*
X128543453Y-105129359D01*
X128544750Y-105155750D01*
X128544750Y-105694250D01*
X128543453Y-105720641D01*
X128539576Y-105746778D01*
X128533156Y-105772409D01*
X128524255Y-105797288D01*
X128512957Y-105821174D01*
X128499373Y-105843837D01*
X128483633Y-105865060D01*
X128465889Y-105884639D01*
X128446310Y-105902383D01*
X128425087Y-105918123D01*
X128402424Y-105931707D01*
X128378538Y-105943005D01*
X128353659Y-105951906D01*
X128328028Y-105958326D01*
X128301891Y-105962203D01*
X128275500Y-105963500D01*
X127312000Y-105963500D01*
X127285609Y-105962203D01*
X127259472Y-105958326D01*
X127233841Y-105951906D01*
X127208962Y-105943005D01*
X127185076Y-105931707D01*
X127162413Y-105918123D01*
X127141190Y-105902383D01*
X127121611Y-105884639D01*
X127103867Y-105865060D01*
X127088127Y-105843837D01*
X127074543Y-105821174D01*
X127063245Y-105797288D01*
X127054344Y-105772409D01*
X127047924Y-105746778D01*
X127044047Y-105720641D01*
X127042750Y-105694250D01*
X127042750Y-105155750D01*
X127044047Y-105129359D01*
X127047924Y-105103222D01*
X127054344Y-105077591D01*
X127063245Y-105052712D01*
X127074543Y-105028826D01*
X127088127Y-105006163D01*
X127103867Y-104984940D01*
X127121611Y-104965361D01*
X127141190Y-104947617D01*
X127162413Y-104931877D01*
X127185076Y-104918293D01*
X127208962Y-104906995D01*
X127233841Y-104898094D01*
X127259472Y-104891674D01*
X127285609Y-104887797D01*
X127312000Y-104886500D01*
X128275500Y-104886500D01*
X128301891Y-104887797D01*
X128301891Y-104887797D01*
G37*
D13*
X127793750Y-105425000D03*
D12*
G36*
X128301891Y-106762797D02*
G01*
X128328028Y-106766674D01*
X128353659Y-106773094D01*
X128378538Y-106781995D01*
X128402424Y-106793293D01*
X128425087Y-106806877D01*
X128446310Y-106822617D01*
X128465889Y-106840361D01*
X128483633Y-106859940D01*
X128499373Y-106881163D01*
X128512957Y-106903826D01*
X128524255Y-106927712D01*
X128533156Y-106952591D01*
X128539576Y-106978222D01*
X128543453Y-107004359D01*
X128544750Y-107030750D01*
X128544750Y-107569250D01*
X128543453Y-107595641D01*
X128539576Y-107621778D01*
X128533156Y-107647409D01*
X128524255Y-107672288D01*
X128512957Y-107696174D01*
X128499373Y-107718837D01*
X128483633Y-107740060D01*
X128465889Y-107759639D01*
X128446310Y-107777383D01*
X128425087Y-107793123D01*
X128402424Y-107806707D01*
X128378538Y-107818005D01*
X128353659Y-107826906D01*
X128328028Y-107833326D01*
X128301891Y-107837203D01*
X128275500Y-107838500D01*
X127312000Y-107838500D01*
X127285609Y-107837203D01*
X127259472Y-107833326D01*
X127233841Y-107826906D01*
X127208962Y-107818005D01*
X127185076Y-107806707D01*
X127162413Y-107793123D01*
X127141190Y-107777383D01*
X127121611Y-107759639D01*
X127103867Y-107740060D01*
X127088127Y-107718837D01*
X127074543Y-107696174D01*
X127063245Y-107672288D01*
X127054344Y-107647409D01*
X127047924Y-107621778D01*
X127044047Y-107595641D01*
X127042750Y-107569250D01*
X127042750Y-107030750D01*
X127044047Y-107004359D01*
X127047924Y-106978222D01*
X127054344Y-106952591D01*
X127063245Y-106927712D01*
X127074543Y-106903826D01*
X127088127Y-106881163D01*
X127103867Y-106859940D01*
X127121611Y-106840361D01*
X127141190Y-106822617D01*
X127162413Y-106806877D01*
X127185076Y-106793293D01*
X127208962Y-106781995D01*
X127233841Y-106773094D01*
X127259472Y-106766674D01*
X127285609Y-106762797D01*
X127312000Y-106761500D01*
X128275500Y-106761500D01*
X128301891Y-106762797D01*
X128301891Y-106762797D01*
G37*
D13*
X127793750Y-107300000D03*
D12*
G36*
X96551891Y-93775297D02*
G01*
X96578028Y-93779174D01*
X96603659Y-93785594D01*
X96628538Y-93794495D01*
X96652424Y-93805793D01*
X96675087Y-93819377D01*
X96696310Y-93835117D01*
X96715889Y-93852861D01*
X96733633Y-93872440D01*
X96749373Y-93893663D01*
X96762957Y-93916326D01*
X96774255Y-93940212D01*
X96783156Y-93965091D01*
X96789576Y-93990722D01*
X96793453Y-94016859D01*
X96794750Y-94043250D01*
X96794750Y-94581750D01*
X96793453Y-94608141D01*
X96789576Y-94634278D01*
X96783156Y-94659909D01*
X96774255Y-94684788D01*
X96762957Y-94708674D01*
X96749373Y-94731337D01*
X96733633Y-94752560D01*
X96715889Y-94772139D01*
X96696310Y-94789883D01*
X96675087Y-94805623D01*
X96652424Y-94819207D01*
X96628538Y-94830505D01*
X96603659Y-94839406D01*
X96578028Y-94845826D01*
X96551891Y-94849703D01*
X96525500Y-94851000D01*
X95562000Y-94851000D01*
X95535609Y-94849703D01*
X95509472Y-94845826D01*
X95483841Y-94839406D01*
X95458962Y-94830505D01*
X95435076Y-94819207D01*
X95412413Y-94805623D01*
X95391190Y-94789883D01*
X95371611Y-94772139D01*
X95353867Y-94752560D01*
X95338127Y-94731337D01*
X95324543Y-94708674D01*
X95313245Y-94684788D01*
X95304344Y-94659909D01*
X95297924Y-94634278D01*
X95294047Y-94608141D01*
X95292750Y-94581750D01*
X95292750Y-94043250D01*
X95294047Y-94016859D01*
X95297924Y-93990722D01*
X95304344Y-93965091D01*
X95313245Y-93940212D01*
X95324543Y-93916326D01*
X95338127Y-93893663D01*
X95353867Y-93872440D01*
X95371611Y-93852861D01*
X95391190Y-93835117D01*
X95412413Y-93819377D01*
X95435076Y-93805793D01*
X95458962Y-93794495D01*
X95483841Y-93785594D01*
X95509472Y-93779174D01*
X95535609Y-93775297D01*
X95562000Y-93774000D01*
X96525500Y-93774000D01*
X96551891Y-93775297D01*
X96551891Y-93775297D01*
G37*
D13*
X96043750Y-94312500D03*
D12*
G36*
X96551891Y-95650297D02*
G01*
X96578028Y-95654174D01*
X96603659Y-95660594D01*
X96628538Y-95669495D01*
X96652424Y-95680793D01*
X96675087Y-95694377D01*
X96696310Y-95710117D01*
X96715889Y-95727861D01*
X96733633Y-95747440D01*
X96749373Y-95768663D01*
X96762957Y-95791326D01*
X96774255Y-95815212D01*
X96783156Y-95840091D01*
X96789576Y-95865722D01*
X96793453Y-95891859D01*
X96794750Y-95918250D01*
X96794750Y-96456750D01*
X96793453Y-96483141D01*
X96789576Y-96509278D01*
X96783156Y-96534909D01*
X96774255Y-96559788D01*
X96762957Y-96583674D01*
X96749373Y-96606337D01*
X96733633Y-96627560D01*
X96715889Y-96647139D01*
X96696310Y-96664883D01*
X96675087Y-96680623D01*
X96652424Y-96694207D01*
X96628538Y-96705505D01*
X96603659Y-96714406D01*
X96578028Y-96720826D01*
X96551891Y-96724703D01*
X96525500Y-96726000D01*
X95562000Y-96726000D01*
X95535609Y-96724703D01*
X95509472Y-96720826D01*
X95483841Y-96714406D01*
X95458962Y-96705505D01*
X95435076Y-96694207D01*
X95412413Y-96680623D01*
X95391190Y-96664883D01*
X95371611Y-96647139D01*
X95353867Y-96627560D01*
X95338127Y-96606337D01*
X95324543Y-96583674D01*
X95313245Y-96559788D01*
X95304344Y-96534909D01*
X95297924Y-96509278D01*
X95294047Y-96483141D01*
X95292750Y-96456750D01*
X95292750Y-95918250D01*
X95294047Y-95891859D01*
X95297924Y-95865722D01*
X95304344Y-95840091D01*
X95313245Y-95815212D01*
X95324543Y-95791326D01*
X95338127Y-95768663D01*
X95353867Y-95747440D01*
X95371611Y-95727861D01*
X95391190Y-95710117D01*
X95412413Y-95694377D01*
X95435076Y-95680793D01*
X95458962Y-95669495D01*
X95483841Y-95660594D01*
X95509472Y-95654174D01*
X95535609Y-95650297D01*
X95562000Y-95649000D01*
X96525500Y-95649000D01*
X96551891Y-95650297D01*
X96551891Y-95650297D01*
G37*
D13*
X96043750Y-96187500D03*
D12*
G36*
X105759391Y-92346547D02*
G01*
X105785528Y-92350424D01*
X105811159Y-92356844D01*
X105836038Y-92365745D01*
X105859924Y-92377043D01*
X105882587Y-92390627D01*
X105903810Y-92406367D01*
X105923389Y-92424111D01*
X105941133Y-92443690D01*
X105956873Y-92464913D01*
X105970457Y-92487576D01*
X105981755Y-92511462D01*
X105990656Y-92536341D01*
X105997076Y-92561972D01*
X106000953Y-92588109D01*
X106002250Y-92614500D01*
X106002250Y-93153000D01*
X106000953Y-93179391D01*
X105997076Y-93205528D01*
X105990656Y-93231159D01*
X105981755Y-93256038D01*
X105970457Y-93279924D01*
X105956873Y-93302587D01*
X105941133Y-93323810D01*
X105923389Y-93343389D01*
X105903810Y-93361133D01*
X105882587Y-93376873D01*
X105859924Y-93390457D01*
X105836038Y-93401755D01*
X105811159Y-93410656D01*
X105785528Y-93417076D01*
X105759391Y-93420953D01*
X105733000Y-93422250D01*
X104769500Y-93422250D01*
X104743109Y-93420953D01*
X104716972Y-93417076D01*
X104691341Y-93410656D01*
X104666462Y-93401755D01*
X104642576Y-93390457D01*
X104619913Y-93376873D01*
X104598690Y-93361133D01*
X104579111Y-93343389D01*
X104561367Y-93323810D01*
X104545627Y-93302587D01*
X104532043Y-93279924D01*
X104520745Y-93256038D01*
X104511844Y-93231159D01*
X104505424Y-93205528D01*
X104501547Y-93179391D01*
X104500250Y-93153000D01*
X104500250Y-92614500D01*
X104501547Y-92588109D01*
X104505424Y-92561972D01*
X104511844Y-92536341D01*
X104520745Y-92511462D01*
X104532043Y-92487576D01*
X104545627Y-92464913D01*
X104561367Y-92443690D01*
X104579111Y-92424111D01*
X104598690Y-92406367D01*
X104619913Y-92390627D01*
X104642576Y-92377043D01*
X104666462Y-92365745D01*
X104691341Y-92356844D01*
X104716972Y-92350424D01*
X104743109Y-92346547D01*
X104769500Y-92345250D01*
X105733000Y-92345250D01*
X105759391Y-92346547D01*
X105759391Y-92346547D01*
G37*
D13*
X105251250Y-92883750D03*
D12*
G36*
X105759391Y-94221547D02*
G01*
X105785528Y-94225424D01*
X105811159Y-94231844D01*
X105836038Y-94240745D01*
X105859924Y-94252043D01*
X105882587Y-94265627D01*
X105903810Y-94281367D01*
X105923389Y-94299111D01*
X105941133Y-94318690D01*
X105956873Y-94339913D01*
X105970457Y-94362576D01*
X105981755Y-94386462D01*
X105990656Y-94411341D01*
X105997076Y-94436972D01*
X106000953Y-94463109D01*
X106002250Y-94489500D01*
X106002250Y-95028000D01*
X106000953Y-95054391D01*
X105997076Y-95080528D01*
X105990656Y-95106159D01*
X105981755Y-95131038D01*
X105970457Y-95154924D01*
X105956873Y-95177587D01*
X105941133Y-95198810D01*
X105923389Y-95218389D01*
X105903810Y-95236133D01*
X105882587Y-95251873D01*
X105859924Y-95265457D01*
X105836038Y-95276755D01*
X105811159Y-95285656D01*
X105785528Y-95292076D01*
X105759391Y-95295953D01*
X105733000Y-95297250D01*
X104769500Y-95297250D01*
X104743109Y-95295953D01*
X104716972Y-95292076D01*
X104691341Y-95285656D01*
X104666462Y-95276755D01*
X104642576Y-95265457D01*
X104619913Y-95251873D01*
X104598690Y-95236133D01*
X104579111Y-95218389D01*
X104561367Y-95198810D01*
X104545627Y-95177587D01*
X104532043Y-95154924D01*
X104520745Y-95131038D01*
X104511844Y-95106159D01*
X104505424Y-95080528D01*
X104501547Y-95054391D01*
X104500250Y-95028000D01*
X104500250Y-94489500D01*
X104501547Y-94463109D01*
X104505424Y-94436972D01*
X104511844Y-94411341D01*
X104520745Y-94386462D01*
X104532043Y-94362576D01*
X104545627Y-94339913D01*
X104561367Y-94318690D01*
X104579111Y-94299111D01*
X104598690Y-94281367D01*
X104619913Y-94265627D01*
X104642576Y-94252043D01*
X104666462Y-94240745D01*
X104691341Y-94231844D01*
X104716972Y-94225424D01*
X104743109Y-94221547D01*
X104769500Y-94220250D01*
X105733000Y-94220250D01*
X105759391Y-94221547D01*
X105759391Y-94221547D01*
G37*
D13*
X105251250Y-94758750D03*
D14*
X163830000Y-111125000D03*
X153670000Y-111125000D03*
D15*
X156250000Y-107125000D03*
D16*
X158750000Y-111125000D03*
D15*
X155595001Y-107855000D03*
D17*
X154940000Y-108585000D02*
X156250002Y-107125000D01*
D15*
X161290000Y-106045000D03*
X161270000Y-106335000D03*
D17*
X161250000Y-106625000D02*
X161290000Y-106045000D01*
D14*
X163830000Y-92075000D03*
X153670000Y-92075000D03*
D15*
X156250000Y-88075000D03*
D16*
X158750000Y-92075000D03*
D15*
X155595001Y-88805000D03*
D17*
X154940000Y-89535000D02*
X156250002Y-88075000D01*
D15*
X161290000Y-86995000D03*
X161270000Y-87285000D03*
D17*
X161250000Y-87575000D02*
X161290000Y-86995000D01*
D14*
X144780000Y-92075000D03*
X134620000Y-92075000D03*
D15*
X137200000Y-88075000D03*
D16*
X139700000Y-92075000D03*
D15*
X136545001Y-88805000D03*
D17*
X135890000Y-89535000D02*
X137200002Y-88075000D01*
D15*
X142240000Y-86995000D03*
X142220000Y-87285000D03*
D17*
X142200000Y-87575000D02*
X142240000Y-86995000D01*
D12*
G36*
X95932104Y-97937802D02*
G01*
X95958352Y-97941696D01*
X95984093Y-97948143D01*
X96009078Y-97957083D01*
X96033066Y-97968428D01*
X96055826Y-97982071D01*
X96077140Y-97997878D01*
X96096802Y-98015698D01*
X96114622Y-98035360D01*
X96130429Y-98056674D01*
X96144072Y-98079434D01*
X96155417Y-98103422D01*
X96164357Y-98128407D01*
X96170804Y-98154148D01*
X96174698Y-98180396D01*
X96176000Y-98206900D01*
X96176000Y-99018100D01*
X96174698Y-99044604D01*
X96170804Y-99070852D01*
X96164357Y-99096593D01*
X96155417Y-99121578D01*
X96144072Y-99145566D01*
X96130429Y-99168326D01*
X96114622Y-99189640D01*
X96096802Y-99209302D01*
X96077140Y-99227122D01*
X96055826Y-99242929D01*
X96033066Y-99256572D01*
X96009078Y-99267917D01*
X95984093Y-99276857D01*
X95958352Y-99283304D01*
X95932104Y-99287198D01*
X95905600Y-99288500D01*
X94594400Y-99288500D01*
X94567896Y-99287198D01*
X94541648Y-99283304D01*
X94515907Y-99276857D01*
X94490922Y-99267917D01*
X94466934Y-99256572D01*
X94444174Y-99242929D01*
X94422860Y-99227122D01*
X94403198Y-99209302D01*
X94385378Y-99189640D01*
X94369571Y-99168326D01*
X94355928Y-99145566D01*
X94344583Y-99121578D01*
X94335643Y-99096593D01*
X94329196Y-99070852D01*
X94325302Y-99044604D01*
X94324000Y-99018100D01*
X94324000Y-98206900D01*
X94325302Y-98180396D01*
X94329196Y-98154148D01*
X94335643Y-98128407D01*
X94344583Y-98103422D01*
X94355928Y-98079434D01*
X94369571Y-98056674D01*
X94385378Y-98035360D01*
X94403198Y-98015698D01*
X94422860Y-97997878D01*
X94444174Y-97982071D01*
X94466934Y-97968428D01*
X94490922Y-97957083D01*
X94515907Y-97948143D01*
X94541648Y-97941696D01*
X94567896Y-97937802D01*
X94594400Y-97936500D01*
X95905600Y-97936500D01*
X95932104Y-97937802D01*
X95932104Y-97937802D01*
G37*
D18*
X95250000Y-98612500D03*
D12*
G36*
X95932104Y-100737802D02*
G01*
X95958352Y-100741696D01*
X95984093Y-100748143D01*
X96009078Y-100757083D01*
X96033066Y-100768428D01*
X96055826Y-100782071D01*
X96077140Y-100797878D01*
X96096802Y-100815698D01*
X96114622Y-100835360D01*
X96130429Y-100856674D01*
X96144072Y-100879434D01*
X96155417Y-100903422D01*
X96164357Y-100928407D01*
X96170804Y-100954148D01*
X96174698Y-100980396D01*
X96176000Y-101006900D01*
X96176000Y-101818100D01*
X96174698Y-101844604D01*
X96170804Y-101870852D01*
X96164357Y-101896593D01*
X96155417Y-101921578D01*
X96144072Y-101945566D01*
X96130429Y-101968326D01*
X96114622Y-101989640D01*
X96096802Y-102009302D01*
X96077140Y-102027122D01*
X96055826Y-102042929D01*
X96033066Y-102056572D01*
X96009078Y-102067917D01*
X95984093Y-102076857D01*
X95958352Y-102083304D01*
X95932104Y-102087198D01*
X95905600Y-102088500D01*
X94594400Y-102088500D01*
X94567896Y-102087198D01*
X94541648Y-102083304D01*
X94515907Y-102076857D01*
X94490922Y-102067917D01*
X94466934Y-102056572D01*
X94444174Y-102042929D01*
X94422860Y-102027122D01*
X94403198Y-102009302D01*
X94385378Y-101989640D01*
X94369571Y-101968326D01*
X94355928Y-101945566D01*
X94344583Y-101921578D01*
X94335643Y-101896593D01*
X94329196Y-101870852D01*
X94325302Y-101844604D01*
X94324000Y-101818100D01*
X94324000Y-101006900D01*
X94325302Y-100980396D01*
X94329196Y-100954148D01*
X94335643Y-100928407D01*
X94344583Y-100903422D01*
X94355928Y-100879434D01*
X94369571Y-100856674D01*
X94385378Y-100835360D01*
X94403198Y-100815698D01*
X94422860Y-100797878D01*
X94444174Y-100782071D01*
X94466934Y-100768428D01*
X94490922Y-100757083D01*
X94515907Y-100748143D01*
X94541648Y-100741696D01*
X94567896Y-100737802D01*
X94594400Y-100736500D01*
X95905600Y-100736500D01*
X95932104Y-100737802D01*
X95932104Y-100737802D01*
G37*
D18*
X95250000Y-101412500D03*
D25*
X166687500Y-109475000D03*
X166687500Y-112775000D03*
X147637500Y-109475000D03*
X147637500Y-112775000D03*
X166687500Y-90425000D03*
X166687500Y-93725000D03*
X147637500Y-90425000D03*
X147637500Y-93725000D03*
D12*
G36*
X107664391Y-106475297D02*
G01*
X107690528Y-106479174D01*
X107716159Y-106485594D01*
X107741038Y-106494495D01*
X107764924Y-106505793D01*
X107787587Y-106519377D01*
X107808810Y-106535117D01*
X107828389Y-106552861D01*
X107846133Y-106572440D01*
X107861873Y-106593663D01*
X107875457Y-106616326D01*
X107886755Y-106640212D01*
X107895656Y-106665091D01*
X107902076Y-106690722D01*
X107905953Y-106716859D01*
X107907250Y-106743250D01*
X107907250Y-107281750D01*
X107905953Y-107308141D01*
X107902076Y-107334278D01*
X107895656Y-107359909D01*
X107886755Y-107384788D01*
X107875457Y-107408674D01*
X107861873Y-107431337D01*
X107846133Y-107452560D01*
X107828389Y-107472139D01*
X107808810Y-107489883D01*
X107787587Y-107505623D01*
X107764924Y-107519207D01*
X107741038Y-107530505D01*
X107716159Y-107539406D01*
X107690528Y-107545826D01*
X107664391Y-107549703D01*
X107638000Y-107551000D01*
X106674500Y-107551000D01*
X106648109Y-107549703D01*
X106621972Y-107545826D01*
X106596341Y-107539406D01*
X106571462Y-107530505D01*
X106547576Y-107519207D01*
X106524913Y-107505623D01*
X106503690Y-107489883D01*
X106484111Y-107472139D01*
X106466367Y-107452560D01*
X106450627Y-107431337D01*
X106437043Y-107408674D01*
X106425745Y-107384788D01*
X106416844Y-107359909D01*
X106410424Y-107334278D01*
X106406547Y-107308141D01*
X106405250Y-107281750D01*
X106405250Y-106743250D01*
X106406547Y-106716859D01*
X106410424Y-106690722D01*
X106416844Y-106665091D01*
X106425745Y-106640212D01*
X106437043Y-106616326D01*
X106450627Y-106593663D01*
X106466367Y-106572440D01*
X106484111Y-106552861D01*
X106503690Y-106535117D01*
X106524913Y-106519377D01*
X106547576Y-106505793D01*
X106571462Y-106494495D01*
X106596341Y-106485594D01*
X106621972Y-106479174D01*
X106648109Y-106475297D01*
X106674500Y-106474000D01*
X107638000Y-106474000D01*
X107664391Y-106475297D01*
X107664391Y-106475297D01*
G37*
D13*
X107156250Y-107012500D03*
D12*
G36*
X107664391Y-108350297D02*
G01*
X107690528Y-108354174D01*
X107716159Y-108360594D01*
X107741038Y-108369495D01*
X107764924Y-108380793D01*
X107787587Y-108394377D01*
X107808810Y-108410117D01*
X107828389Y-108427861D01*
X107846133Y-108447440D01*
X107861873Y-108468663D01*
X107875457Y-108491326D01*
X107886755Y-108515212D01*
X107895656Y-108540091D01*
X107902076Y-108565722D01*
X107905953Y-108591859D01*
X107907250Y-108618250D01*
X107907250Y-109156750D01*
X107905953Y-109183141D01*
X107902076Y-109209278D01*
X107895656Y-109234909D01*
X107886755Y-109259788D01*
X107875457Y-109283674D01*
X107861873Y-109306337D01*
X107846133Y-109327560D01*
X107828389Y-109347139D01*
X107808810Y-109364883D01*
X107787587Y-109380623D01*
X107764924Y-109394207D01*
X107741038Y-109405505D01*
X107716159Y-109414406D01*
X107690528Y-109420826D01*
X107664391Y-109424703D01*
X107638000Y-109426000D01*
X106674500Y-109426000D01*
X106648109Y-109424703D01*
X106621972Y-109420826D01*
X106596341Y-109414406D01*
X106571462Y-109405505D01*
X106547576Y-109394207D01*
X106524913Y-109380623D01*
X106503690Y-109364883D01*
X106484111Y-109347139D01*
X106466367Y-109327560D01*
X106450627Y-109306337D01*
X106437043Y-109283674D01*
X106425745Y-109259788D01*
X106416844Y-109234909D01*
X106410424Y-109209278D01*
X106406547Y-109183141D01*
X106405250Y-109156750D01*
X106405250Y-108618250D01*
X106406547Y-108591859D01*
X106410424Y-108565722D01*
X106416844Y-108540091D01*
X106425745Y-108515212D01*
X106437043Y-108491326D01*
X106450627Y-108468663D01*
X106466367Y-108447440D01*
X106484111Y-108427861D01*
X106503690Y-108410117D01*
X106524913Y-108394377D01*
X106547576Y-108380793D01*
X106571462Y-108369495D01*
X106596341Y-108360594D01*
X106621972Y-108354174D01*
X106648109Y-108350297D01*
X106674500Y-108349000D01*
X107638000Y-108349000D01*
X107664391Y-108350297D01*
X107664391Y-108350297D01*
G37*
D13*
X107156250Y-108887500D03*
D12*
G36*
X122389391Y-110851547D02*
G01*
X122415528Y-110855424D01*
X122441159Y-110861844D01*
X122466038Y-110870745D01*
X122489924Y-110882043D01*
X122512587Y-110895627D01*
X122533810Y-110911367D01*
X122553389Y-110929111D01*
X122571133Y-110948690D01*
X122586873Y-110969913D01*
X122600457Y-110992576D01*
X122611755Y-111016462D01*
X122620656Y-111041341D01*
X122627076Y-111066972D01*
X122630953Y-111093109D01*
X122632250Y-111119500D01*
X122632250Y-112083000D01*
X122630953Y-112109391D01*
X122627076Y-112135528D01*
X122620656Y-112161159D01*
X122611755Y-112186038D01*
X122600457Y-112209924D01*
X122586873Y-112232587D01*
X122571133Y-112253810D01*
X122553389Y-112273389D01*
X122533810Y-112291133D01*
X122512587Y-112306873D01*
X122489924Y-112320457D01*
X122466038Y-112331755D01*
X122441159Y-112340656D01*
X122415528Y-112347076D01*
X122389391Y-112350953D01*
X122363000Y-112352250D01*
X121824500Y-112352250D01*
X121798109Y-112350953D01*
X121771972Y-112347076D01*
X121746341Y-112340656D01*
X121721462Y-112331755D01*
X121697576Y-112320457D01*
X121674913Y-112306873D01*
X121653690Y-112291133D01*
X121634111Y-112273389D01*
X121616367Y-112253810D01*
X121600627Y-112232587D01*
X121587043Y-112209924D01*
X121575745Y-112186038D01*
X121566844Y-112161159D01*
X121560424Y-112135528D01*
X121556547Y-112109391D01*
X121555250Y-112083000D01*
X121555250Y-111119500D01*
X121556547Y-111093109D01*
X121560424Y-111066972D01*
X121566844Y-111041341D01*
X121575745Y-111016462D01*
X121587043Y-110992576D01*
X121600627Y-110969913D01*
X121616367Y-110948690D01*
X121634111Y-110929111D01*
X121653690Y-110911367D01*
X121674913Y-110895627D01*
X121697576Y-110882043D01*
X121721462Y-110870745D01*
X121746341Y-110861844D01*
X121771972Y-110855424D01*
X121798109Y-110851547D01*
X121824500Y-110850250D01*
X122363000Y-110850250D01*
X122389391Y-110851547D01*
X122389391Y-110851547D01*
G37*
D13*
X122093750Y-111601250D03*
D12*
G36*
X124264391Y-110851547D02*
G01*
X124290528Y-110855424D01*
X124316159Y-110861844D01*
X124341038Y-110870745D01*
X124364924Y-110882043D01*
X124387587Y-110895627D01*
X124408810Y-110911367D01*
X124428389Y-110929111D01*
X124446133Y-110948690D01*
X124461873Y-110969913D01*
X124475457Y-110992576D01*
X124486755Y-111016462D01*
X124495656Y-111041341D01*
X124502076Y-111066972D01*
X124505953Y-111093109D01*
X124507250Y-111119500D01*
X124507250Y-112083000D01*
X124505953Y-112109391D01*
X124502076Y-112135528D01*
X124495656Y-112161159D01*
X124486755Y-112186038D01*
X124475457Y-112209924D01*
X124461873Y-112232587D01*
X124446133Y-112253810D01*
X124428389Y-112273389D01*
X124408810Y-112291133D01*
X124387587Y-112306873D01*
X124364924Y-112320457D01*
X124341038Y-112331755D01*
X124316159Y-112340656D01*
X124290528Y-112347076D01*
X124264391Y-112350953D01*
X124238000Y-112352250D01*
X123699500Y-112352250D01*
X123673109Y-112350953D01*
X123646972Y-112347076D01*
X123621341Y-112340656D01*
X123596462Y-112331755D01*
X123572576Y-112320457D01*
X123549913Y-112306873D01*
X123528690Y-112291133D01*
X123509111Y-112273389D01*
X123491367Y-112253810D01*
X123475627Y-112232587D01*
X123462043Y-112209924D01*
X123450745Y-112186038D01*
X123441844Y-112161159D01*
X123435424Y-112135528D01*
X123431547Y-112109391D01*
X123430250Y-112083000D01*
X123430250Y-111119500D01*
X123431547Y-111093109D01*
X123435424Y-111066972D01*
X123441844Y-111041341D01*
X123450745Y-111016462D01*
X123462043Y-110992576D01*
X123475627Y-110969913D01*
X123491367Y-110948690D01*
X123509111Y-110929111D01*
X123528690Y-110911367D01*
X123549913Y-110895627D01*
X123572576Y-110882043D01*
X123596462Y-110870745D01*
X123621341Y-110861844D01*
X123646972Y-110855424D01*
X123673109Y-110851547D01*
X123699500Y-110850250D01*
X124238000Y-110850250D01*
X124264391Y-110851547D01*
X124264391Y-110851547D01*
G37*
D13*
X123968750Y-111601250D03*
D12*
G36*
X128619391Y-94886547D02*
G01*
X128645528Y-94890424D01*
X128671159Y-94896844D01*
X128696038Y-94905745D01*
X128719924Y-94917043D01*
X128742587Y-94930627D01*
X128763810Y-94946367D01*
X128783389Y-94964111D01*
X128801133Y-94983690D01*
X128816873Y-95004913D01*
X128830457Y-95027576D01*
X128841755Y-95051462D01*
X128850656Y-95076341D01*
X128857076Y-95101972D01*
X128860953Y-95128109D01*
X128862250Y-95154500D01*
X128862250Y-95693000D01*
X128860953Y-95719391D01*
X128857076Y-95745528D01*
X128850656Y-95771159D01*
X128841755Y-95796038D01*
X128830457Y-95819924D01*
X128816873Y-95842587D01*
X128801133Y-95863810D01*
X128783389Y-95883389D01*
X128763810Y-95901133D01*
X128742587Y-95916873D01*
X128719924Y-95930457D01*
X128696038Y-95941755D01*
X128671159Y-95950656D01*
X128645528Y-95957076D01*
X128619391Y-95960953D01*
X128593000Y-95962250D01*
X127629500Y-95962250D01*
X127603109Y-95960953D01*
X127576972Y-95957076D01*
X127551341Y-95950656D01*
X127526462Y-95941755D01*
X127502576Y-95930457D01*
X127479913Y-95916873D01*
X127458690Y-95901133D01*
X127439111Y-95883389D01*
X127421367Y-95863810D01*
X127405627Y-95842587D01*
X127392043Y-95819924D01*
X127380745Y-95796038D01*
X127371844Y-95771159D01*
X127365424Y-95745528D01*
X127361547Y-95719391D01*
X127360250Y-95693000D01*
X127360250Y-95154500D01*
X127361547Y-95128109D01*
X127365424Y-95101972D01*
X127371844Y-95076341D01*
X127380745Y-95051462D01*
X127392043Y-95027576D01*
X127405627Y-95004913D01*
X127421367Y-94983690D01*
X127439111Y-94964111D01*
X127458690Y-94946367D01*
X127479913Y-94930627D01*
X127502576Y-94917043D01*
X127526462Y-94905745D01*
X127551341Y-94896844D01*
X127576972Y-94890424D01*
X127603109Y-94886547D01*
X127629500Y-94885250D01*
X128593000Y-94885250D01*
X128619391Y-94886547D01*
X128619391Y-94886547D01*
G37*
D13*
X128111250Y-95423750D03*
D12*
G36*
X128619391Y-96761547D02*
G01*
X128645528Y-96765424D01*
X128671159Y-96771844D01*
X128696038Y-96780745D01*
X128719924Y-96792043D01*
X128742587Y-96805627D01*
X128763810Y-96821367D01*
X128783389Y-96839111D01*
X128801133Y-96858690D01*
X128816873Y-96879913D01*
X128830457Y-96902576D01*
X128841755Y-96926462D01*
X128850656Y-96951341D01*
X128857076Y-96976972D01*
X128860953Y-97003109D01*
X128862250Y-97029500D01*
X128862250Y-97568000D01*
X128860953Y-97594391D01*
X128857076Y-97620528D01*
X128850656Y-97646159D01*
X128841755Y-97671038D01*
X128830457Y-97694924D01*
X128816873Y-97717587D01*
X128801133Y-97738810D01*
X128783389Y-97758389D01*
X128763810Y-97776133D01*
X128742587Y-97791873D01*
X128719924Y-97805457D01*
X128696038Y-97816755D01*
X128671159Y-97825656D01*
X128645528Y-97832076D01*
X128619391Y-97835953D01*
X128593000Y-97837250D01*
X127629500Y-97837250D01*
X127603109Y-97835953D01*
X127576972Y-97832076D01*
X127551341Y-97825656D01*
X127526462Y-97816755D01*
X127502576Y-97805457D01*
X127479913Y-97791873D01*
X127458690Y-97776133D01*
X127439111Y-97758389D01*
X127421367Y-97738810D01*
X127405627Y-97717587D01*
X127392043Y-97694924D01*
X127380745Y-97671038D01*
X127371844Y-97646159D01*
X127365424Y-97620528D01*
X127361547Y-97594391D01*
X127360250Y-97568000D01*
X127360250Y-97029500D01*
X127361547Y-97003109D01*
X127365424Y-96976972D01*
X127371844Y-96951341D01*
X127380745Y-96926462D01*
X127392043Y-96902576D01*
X127405627Y-96879913D01*
X127421367Y-96858690D01*
X127439111Y-96839111D01*
X127458690Y-96821367D01*
X127479913Y-96805627D01*
X127502576Y-96792043D01*
X127526462Y-96780745D01*
X127551341Y-96771844D01*
X127576972Y-96765424D01*
X127603109Y-96761547D01*
X127629500Y-96760250D01*
X128593000Y-96760250D01*
X128619391Y-96761547D01*
X128619391Y-96761547D01*
G37*
D13*
X128111250Y-97298750D03*
D12*
G36*
X108101891Y-100850297D02*
G01*
X108128028Y-100854174D01*
X108153659Y-100860594D01*
X108178538Y-100869495D01*
X108202424Y-100880793D01*
X108225087Y-100894377D01*
X108246310Y-100910117D01*
X108265889Y-100927861D01*
X108283633Y-100947440D01*
X108299373Y-100968663D01*
X108312957Y-100991326D01*
X108324255Y-101015212D01*
X108333156Y-101040091D01*
X108339576Y-101065722D01*
X108343453Y-101091859D01*
X108344750Y-101118250D01*
X108344750Y-102081750D01*
X108343453Y-102108141D01*
X108339576Y-102134278D01*
X108333156Y-102159909D01*
X108324255Y-102184788D01*
X108312957Y-102208674D01*
X108299373Y-102231337D01*
X108283633Y-102252560D01*
X108265889Y-102272139D01*
X108246310Y-102289883D01*
X108225087Y-102305623D01*
X108202424Y-102319207D01*
X108178538Y-102330505D01*
X108153659Y-102339406D01*
X108128028Y-102345826D01*
X108101891Y-102349703D01*
X108075500Y-102351000D01*
X107537000Y-102351000D01*
X107510609Y-102349703D01*
X107484472Y-102345826D01*
X107458841Y-102339406D01*
X107433962Y-102330505D01*
X107410076Y-102319207D01*
X107387413Y-102305623D01*
X107366190Y-102289883D01*
X107346611Y-102272139D01*
X107328867Y-102252560D01*
X107313127Y-102231337D01*
X107299543Y-102208674D01*
X107288245Y-102184788D01*
X107279344Y-102159909D01*
X107272924Y-102134278D01*
X107269047Y-102108141D01*
X107267750Y-102081750D01*
X107267750Y-101118250D01*
X107269047Y-101091859D01*
X107272924Y-101065722D01*
X107279344Y-101040091D01*
X107288245Y-101015212D01*
X107299543Y-100991326D01*
X107313127Y-100968663D01*
X107328867Y-100947440D01*
X107346611Y-100927861D01*
X107366190Y-100910117D01*
X107387413Y-100894377D01*
X107410076Y-100880793D01*
X107433962Y-100869495D01*
X107458841Y-100860594D01*
X107484472Y-100854174D01*
X107510609Y-100850297D01*
X107537000Y-100849000D01*
X108075500Y-100849000D01*
X108101891Y-100850297D01*
X108101891Y-100850297D01*
G37*
D13*
X107806250Y-101600000D03*
D12*
G36*
X109976891Y-100850297D02*
G01*
X110003028Y-100854174D01*
X110028659Y-100860594D01*
X110053538Y-100869495D01*
X110077424Y-100880793D01*
X110100087Y-100894377D01*
X110121310Y-100910117D01*
X110140889Y-100927861D01*
X110158633Y-100947440D01*
X110174373Y-100968663D01*
X110187957Y-100991326D01*
X110199255Y-101015212D01*
X110208156Y-101040091D01*
X110214576Y-101065722D01*
X110218453Y-101091859D01*
X110219750Y-101118250D01*
X110219750Y-102081750D01*
X110218453Y-102108141D01*
X110214576Y-102134278D01*
X110208156Y-102159909D01*
X110199255Y-102184788D01*
X110187957Y-102208674D01*
X110174373Y-102231337D01*
X110158633Y-102252560D01*
X110140889Y-102272139D01*
X110121310Y-102289883D01*
X110100087Y-102305623D01*
X110077424Y-102319207D01*
X110053538Y-102330505D01*
X110028659Y-102339406D01*
X110003028Y-102345826D01*
X109976891Y-102349703D01*
X109950500Y-102351000D01*
X109412000Y-102351000D01*
X109385609Y-102349703D01*
X109359472Y-102345826D01*
X109333841Y-102339406D01*
X109308962Y-102330505D01*
X109285076Y-102319207D01*
X109262413Y-102305623D01*
X109241190Y-102289883D01*
X109221611Y-102272139D01*
X109203867Y-102252560D01*
X109188127Y-102231337D01*
X109174543Y-102208674D01*
X109163245Y-102184788D01*
X109154344Y-102159909D01*
X109147924Y-102134278D01*
X109144047Y-102108141D01*
X109142750Y-102081750D01*
X109142750Y-101118250D01*
X109144047Y-101091859D01*
X109147924Y-101065722D01*
X109154344Y-101040091D01*
X109163245Y-101015212D01*
X109174543Y-100991326D01*
X109188127Y-100968663D01*
X109203867Y-100947440D01*
X109221611Y-100927861D01*
X109241190Y-100910117D01*
X109262413Y-100894377D01*
X109285076Y-100880793D01*
X109308962Y-100869495D01*
X109333841Y-100860594D01*
X109359472Y-100854174D01*
X109385609Y-100850297D01*
X109412000Y-100849000D01*
X109950500Y-100849000D01*
X109976891Y-100850297D01*
X109976891Y-100850297D01*
G37*
D13*
X109681250Y-101600000D03*
D12*
G36*
X113379391Y-89141547D02*
G01*
X113405528Y-89145424D01*
X113431159Y-89151844D01*
X113456038Y-89160745D01*
X113479924Y-89172043D01*
X113502587Y-89185627D01*
X113523810Y-89201367D01*
X113543389Y-89219111D01*
X113561133Y-89238690D01*
X113576873Y-89259913D01*
X113590457Y-89282576D01*
X113601755Y-89306462D01*
X113610656Y-89331341D01*
X113617076Y-89356972D01*
X113620953Y-89383109D01*
X113622250Y-89409500D01*
X113622250Y-89948000D01*
X113620953Y-89974391D01*
X113617076Y-90000528D01*
X113610656Y-90026159D01*
X113601755Y-90051038D01*
X113590457Y-90074924D01*
X113576873Y-90097587D01*
X113561133Y-90118810D01*
X113543389Y-90138389D01*
X113523810Y-90156133D01*
X113502587Y-90171873D01*
X113479924Y-90185457D01*
X113456038Y-90196755D01*
X113431159Y-90205656D01*
X113405528Y-90212076D01*
X113379391Y-90215953D01*
X113353000Y-90217250D01*
X112389500Y-90217250D01*
X112363109Y-90215953D01*
X112336972Y-90212076D01*
X112311341Y-90205656D01*
X112286462Y-90196755D01*
X112262576Y-90185457D01*
X112239913Y-90171873D01*
X112218690Y-90156133D01*
X112199111Y-90138389D01*
X112181367Y-90118810D01*
X112165627Y-90097587D01*
X112152043Y-90074924D01*
X112140745Y-90051038D01*
X112131844Y-90026159D01*
X112125424Y-90000528D01*
X112121547Y-89974391D01*
X112120250Y-89948000D01*
X112120250Y-89409500D01*
X112121547Y-89383109D01*
X112125424Y-89356972D01*
X112131844Y-89331341D01*
X112140745Y-89306462D01*
X112152043Y-89282576D01*
X112165627Y-89259913D01*
X112181367Y-89238690D01*
X112199111Y-89219111D01*
X112218690Y-89201367D01*
X112239913Y-89185627D01*
X112262576Y-89172043D01*
X112286462Y-89160745D01*
X112311341Y-89151844D01*
X112336972Y-89145424D01*
X112363109Y-89141547D01*
X112389500Y-89140250D01*
X113353000Y-89140250D01*
X113379391Y-89141547D01*
X113379391Y-89141547D01*
G37*
D13*
X112871250Y-89678750D03*
D12*
G36*
X113379391Y-87266547D02*
G01*
X113405528Y-87270424D01*
X113431159Y-87276844D01*
X113456038Y-87285745D01*
X113479924Y-87297043D01*
X113502587Y-87310627D01*
X113523810Y-87326367D01*
X113543389Y-87344111D01*
X113561133Y-87363690D01*
X113576873Y-87384913D01*
X113590457Y-87407576D01*
X113601755Y-87431462D01*
X113610656Y-87456341D01*
X113617076Y-87481972D01*
X113620953Y-87508109D01*
X113622250Y-87534500D01*
X113622250Y-88073000D01*
X113620953Y-88099391D01*
X113617076Y-88125528D01*
X113610656Y-88151159D01*
X113601755Y-88176038D01*
X113590457Y-88199924D01*
X113576873Y-88222587D01*
X113561133Y-88243810D01*
X113543389Y-88263389D01*
X113523810Y-88281133D01*
X113502587Y-88296873D01*
X113479924Y-88310457D01*
X113456038Y-88321755D01*
X113431159Y-88330656D01*
X113405528Y-88337076D01*
X113379391Y-88340953D01*
X113353000Y-88342250D01*
X112389500Y-88342250D01*
X112363109Y-88340953D01*
X112336972Y-88337076D01*
X112311341Y-88330656D01*
X112286462Y-88321755D01*
X112262576Y-88310457D01*
X112239913Y-88296873D01*
X112218690Y-88281133D01*
X112199111Y-88263389D01*
X112181367Y-88243810D01*
X112165627Y-88222587D01*
X112152043Y-88199924D01*
X112140745Y-88176038D01*
X112131844Y-88151159D01*
X112125424Y-88125528D01*
X112121547Y-88099391D01*
X112120250Y-88073000D01*
X112120250Y-87534500D01*
X112121547Y-87508109D01*
X112125424Y-87481972D01*
X112131844Y-87456341D01*
X112140745Y-87431462D01*
X112152043Y-87407576D01*
X112165627Y-87384913D01*
X112181367Y-87363690D01*
X112199111Y-87344111D01*
X112218690Y-87326367D01*
X112239913Y-87310627D01*
X112262576Y-87297043D01*
X112286462Y-87285745D01*
X112311341Y-87276844D01*
X112336972Y-87270424D01*
X112363109Y-87266547D01*
X112389500Y-87265250D01*
X113353000Y-87265250D01*
X113379391Y-87266547D01*
X113379391Y-87266547D01*
G37*
D13*
X112871250Y-87803750D03*
D12*
G36*
X123539391Y-87266547D02*
G01*
X123565528Y-87270424D01*
X123591159Y-87276844D01*
X123616038Y-87285745D01*
X123639924Y-87297043D01*
X123662587Y-87310627D01*
X123683810Y-87326367D01*
X123703389Y-87344111D01*
X123721133Y-87363690D01*
X123736873Y-87384913D01*
X123750457Y-87407576D01*
X123761755Y-87431462D01*
X123770656Y-87456341D01*
X123777076Y-87481972D01*
X123780953Y-87508109D01*
X123782250Y-87534500D01*
X123782250Y-88073000D01*
X123780953Y-88099391D01*
X123777076Y-88125528D01*
X123770656Y-88151159D01*
X123761755Y-88176038D01*
X123750457Y-88199924D01*
X123736873Y-88222587D01*
X123721133Y-88243810D01*
X123703389Y-88263389D01*
X123683810Y-88281133D01*
X123662587Y-88296873D01*
X123639924Y-88310457D01*
X123616038Y-88321755D01*
X123591159Y-88330656D01*
X123565528Y-88337076D01*
X123539391Y-88340953D01*
X123513000Y-88342250D01*
X122549500Y-88342250D01*
X122523109Y-88340953D01*
X122496972Y-88337076D01*
X122471341Y-88330656D01*
X122446462Y-88321755D01*
X122422576Y-88310457D01*
X122399913Y-88296873D01*
X122378690Y-88281133D01*
X122359111Y-88263389D01*
X122341367Y-88243810D01*
X122325627Y-88222587D01*
X122312043Y-88199924D01*
X122300745Y-88176038D01*
X122291844Y-88151159D01*
X122285424Y-88125528D01*
X122281547Y-88099391D01*
X122280250Y-88073000D01*
X122280250Y-87534500D01*
X122281547Y-87508109D01*
X122285424Y-87481972D01*
X122291844Y-87456341D01*
X122300745Y-87431462D01*
X122312043Y-87407576D01*
X122325627Y-87384913D01*
X122341367Y-87363690D01*
X122359111Y-87344111D01*
X122378690Y-87326367D01*
X122399913Y-87310627D01*
X122422576Y-87297043D01*
X122446462Y-87285745D01*
X122471341Y-87276844D01*
X122496972Y-87270424D01*
X122523109Y-87266547D01*
X122549500Y-87265250D01*
X123513000Y-87265250D01*
X123539391Y-87266547D01*
X123539391Y-87266547D01*
G37*
D13*
X123031250Y-87803750D03*
D12*
G36*
X123539391Y-89141547D02*
G01*
X123565528Y-89145424D01*
X123591159Y-89151844D01*
X123616038Y-89160745D01*
X123639924Y-89172043D01*
X123662587Y-89185627D01*
X123683810Y-89201367D01*
X123703389Y-89219111D01*
X123721133Y-89238690D01*
X123736873Y-89259913D01*
X123750457Y-89282576D01*
X123761755Y-89306462D01*
X123770656Y-89331341D01*
X123777076Y-89356972D01*
X123780953Y-89383109D01*
X123782250Y-89409500D01*
X123782250Y-89948000D01*
X123780953Y-89974391D01*
X123777076Y-90000528D01*
X123770656Y-90026159D01*
X123761755Y-90051038D01*
X123750457Y-90074924D01*
X123736873Y-90097587D01*
X123721133Y-90118810D01*
X123703389Y-90138389D01*
X123683810Y-90156133D01*
X123662587Y-90171873D01*
X123639924Y-90185457D01*
X123616038Y-90196755D01*
X123591159Y-90205656D01*
X123565528Y-90212076D01*
X123539391Y-90215953D01*
X123513000Y-90217250D01*
X122549500Y-90217250D01*
X122523109Y-90215953D01*
X122496972Y-90212076D01*
X122471341Y-90205656D01*
X122446462Y-90196755D01*
X122422576Y-90185457D01*
X122399913Y-90171873D01*
X122378690Y-90156133D01*
X122359111Y-90138389D01*
X122341367Y-90118810D01*
X122325627Y-90097587D01*
X122312043Y-90074924D01*
X122300745Y-90051038D01*
X122291844Y-90026159D01*
X122285424Y-90000528D01*
X122281547Y-89974391D01*
X122280250Y-89948000D01*
X122280250Y-89409500D01*
X122281547Y-89383109D01*
X122285424Y-89356972D01*
X122291844Y-89331341D01*
X122300745Y-89306462D01*
X122312043Y-89282576D01*
X122325627Y-89259913D01*
X122341367Y-89238690D01*
X122359111Y-89219111D01*
X122378690Y-89201367D01*
X122399913Y-89185627D01*
X122422576Y-89172043D01*
X122446462Y-89160745D01*
X122471341Y-89151844D01*
X122496972Y-89145424D01*
X122523109Y-89141547D01*
X122549500Y-89140250D01*
X123513000Y-89140250D01*
X123539391Y-89141547D01*
X123539391Y-89141547D01*
G37*
D13*
X123031250Y-89678750D03*
M02*
